%TF.GenerationSoftware,KiCad,Pcbnew,8.0.4*%
%TF.CreationDate,2024-08-12T14:45:05-07:00*%
%TF.ProjectId,6502-rev1,36353032-2d72-4657-9631-2e6b69636164,rev?*%
%TF.SameCoordinates,Original*%
%TF.FileFunction,Legend,Top*%
%TF.FilePolarity,Positive*%
%FSLAX46Y46*%
G04 Gerber Fmt 4.6, Leading zero omitted, Abs format (unit mm)*
G04 Created by KiCad (PCBNEW 8.0.4) date 2024-08-12 14:45:05*
%MOMM*%
%LPD*%
G01*
G04 APERTURE LIST*
%ADD10C,0.200000*%
%ADD11C,0.300000*%
%ADD12C,0.125000*%
%ADD13C,0.250000*%
%ADD14C,0.150000*%
%ADD15C,0.187500*%
%ADD16C,0.254000*%
%ADD17C,0.120000*%
%ADD18C,0.100000*%
%ADD19C,0.127000*%
G04 APERTURE END LIST*
D10*
X143500000Y-25500000D02*
X143500000Y-32000000D01*
X166500000Y-25500000D02*
X166500000Y-32000000D01*
X69500000Y-32000000D02*
X240500000Y-32000000D01*
X179000000Y-123000000D02*
X240000000Y-123000000D01*
X115000000Y-127000000D02*
X195000000Y-127000000D01*
X195000000Y-157000000D01*
X115000000Y-157000000D01*
X115000000Y-127000000D01*
X179000000Y-123000000D02*
X70000000Y-123000000D01*
D11*
X169197368Y-97800828D02*
X168911653Y-97800828D01*
X168911653Y-97800828D02*
X168768796Y-97872257D01*
X168768796Y-97872257D02*
X168697368Y-97943685D01*
X168697368Y-97943685D02*
X168554510Y-98157971D01*
X168554510Y-98157971D02*
X168483082Y-98443685D01*
X168483082Y-98443685D02*
X168483082Y-99015114D01*
X168483082Y-99015114D02*
X168554510Y-99157971D01*
X168554510Y-99157971D02*
X168625939Y-99229400D01*
X168625939Y-99229400D02*
X168768796Y-99300828D01*
X168768796Y-99300828D02*
X169054510Y-99300828D01*
X169054510Y-99300828D02*
X169197368Y-99229400D01*
X169197368Y-99229400D02*
X169268796Y-99157971D01*
X169268796Y-99157971D02*
X169340225Y-99015114D01*
X169340225Y-99015114D02*
X169340225Y-98657971D01*
X169340225Y-98657971D02*
X169268796Y-98515114D01*
X169268796Y-98515114D02*
X169197368Y-98443685D01*
X169197368Y-98443685D02*
X169054510Y-98372257D01*
X169054510Y-98372257D02*
X168768796Y-98372257D01*
X168768796Y-98372257D02*
X168625939Y-98443685D01*
X168625939Y-98443685D02*
X168554510Y-98515114D01*
X168554510Y-98515114D02*
X168483082Y-98657971D01*
X170697367Y-97800828D02*
X169983081Y-97800828D01*
X169983081Y-97800828D02*
X169911653Y-98515114D01*
X169911653Y-98515114D02*
X169983081Y-98443685D01*
X169983081Y-98443685D02*
X170125939Y-98372257D01*
X170125939Y-98372257D02*
X170483081Y-98372257D01*
X170483081Y-98372257D02*
X170625939Y-98443685D01*
X170625939Y-98443685D02*
X170697367Y-98515114D01*
X170697367Y-98515114D02*
X170768796Y-98657971D01*
X170768796Y-98657971D02*
X170768796Y-99015114D01*
X170768796Y-99015114D02*
X170697367Y-99157971D01*
X170697367Y-99157971D02*
X170625939Y-99229400D01*
X170625939Y-99229400D02*
X170483081Y-99300828D01*
X170483081Y-99300828D02*
X170125939Y-99300828D01*
X170125939Y-99300828D02*
X169983081Y-99229400D01*
X169983081Y-99229400D02*
X169911653Y-99157971D01*
X172268795Y-99157971D02*
X172197367Y-99229400D01*
X172197367Y-99229400D02*
X171983081Y-99300828D01*
X171983081Y-99300828D02*
X171840224Y-99300828D01*
X171840224Y-99300828D02*
X171625938Y-99229400D01*
X171625938Y-99229400D02*
X171483081Y-99086542D01*
X171483081Y-99086542D02*
X171411652Y-98943685D01*
X171411652Y-98943685D02*
X171340224Y-98657971D01*
X171340224Y-98657971D02*
X171340224Y-98443685D01*
X171340224Y-98443685D02*
X171411652Y-98157971D01*
X171411652Y-98157971D02*
X171483081Y-98015114D01*
X171483081Y-98015114D02*
X171625938Y-97872257D01*
X171625938Y-97872257D02*
X171840224Y-97800828D01*
X171840224Y-97800828D02*
X171983081Y-97800828D01*
X171983081Y-97800828D02*
X172197367Y-97872257D01*
X172197367Y-97872257D02*
X172268795Y-97943685D01*
X172840224Y-97943685D02*
X172911652Y-97872257D01*
X172911652Y-97872257D02*
X173054510Y-97800828D01*
X173054510Y-97800828D02*
X173411652Y-97800828D01*
X173411652Y-97800828D02*
X173554510Y-97872257D01*
X173554510Y-97872257D02*
X173625938Y-97943685D01*
X173625938Y-97943685D02*
X173697367Y-98086542D01*
X173697367Y-98086542D02*
X173697367Y-98229400D01*
X173697367Y-98229400D02*
X173625938Y-98443685D01*
X173625938Y-98443685D02*
X172768795Y-99300828D01*
X172768795Y-99300828D02*
X173697367Y-99300828D01*
X174268795Y-97943685D02*
X174340223Y-97872257D01*
X174340223Y-97872257D02*
X174483081Y-97800828D01*
X174483081Y-97800828D02*
X174840223Y-97800828D01*
X174840223Y-97800828D02*
X174983081Y-97872257D01*
X174983081Y-97872257D02*
X175054509Y-97943685D01*
X175054509Y-97943685D02*
X175125938Y-98086542D01*
X175125938Y-98086542D02*
X175125938Y-98229400D01*
X175125938Y-98229400D02*
X175054509Y-98443685D01*
X175054509Y-98443685D02*
X174197366Y-99300828D01*
X174197366Y-99300828D02*
X175125938Y-99300828D01*
X176697366Y-97800828D02*
X177197366Y-99300828D01*
X177197366Y-99300828D02*
X177697366Y-97800828D01*
X178197365Y-99300828D02*
X178197365Y-97800828D01*
X178840223Y-98872257D02*
X179554509Y-98872257D01*
X178697366Y-99300828D02*
X179197366Y-97800828D01*
X179197366Y-97800828D02*
X179697366Y-99300828D01*
X177554510Y-125800828D02*
X177554510Y-124300828D01*
X177554510Y-125015114D02*
X178411653Y-125015114D01*
X178411653Y-125800828D02*
X178411653Y-124300828D01*
X179125939Y-125800828D02*
X179125939Y-124300828D01*
X179125939Y-124300828D02*
X179483082Y-124300828D01*
X179483082Y-124300828D02*
X179697368Y-124372257D01*
X179697368Y-124372257D02*
X179840225Y-124515114D01*
X179840225Y-124515114D02*
X179911654Y-124657971D01*
X179911654Y-124657971D02*
X179983082Y-124943685D01*
X179983082Y-124943685D02*
X179983082Y-125157971D01*
X179983082Y-125157971D02*
X179911654Y-125443685D01*
X179911654Y-125443685D02*
X179840225Y-125586542D01*
X179840225Y-125586542D02*
X179697368Y-125729400D01*
X179697368Y-125729400D02*
X179483082Y-125800828D01*
X179483082Y-125800828D02*
X179125939Y-125800828D01*
X181268797Y-124800828D02*
X181268797Y-125800828D01*
X180911654Y-124229400D02*
X180554511Y-125300828D01*
X180554511Y-125300828D02*
X181483082Y-125300828D01*
X182697368Y-124800828D02*
X182697368Y-125800828D01*
X182340225Y-124229400D02*
X181983082Y-125300828D01*
X181983082Y-125300828D02*
X182911653Y-125300828D01*
X183340224Y-124300828D02*
X184340224Y-124300828D01*
X184340224Y-124300828D02*
X183697367Y-125800828D01*
X185125938Y-124943685D02*
X184983081Y-124872257D01*
X184983081Y-124872257D02*
X184911652Y-124800828D01*
X184911652Y-124800828D02*
X184840224Y-124657971D01*
X184840224Y-124657971D02*
X184840224Y-124586542D01*
X184840224Y-124586542D02*
X184911652Y-124443685D01*
X184911652Y-124443685D02*
X184983081Y-124372257D01*
X184983081Y-124372257D02*
X185125938Y-124300828D01*
X185125938Y-124300828D02*
X185411652Y-124300828D01*
X185411652Y-124300828D02*
X185554510Y-124372257D01*
X185554510Y-124372257D02*
X185625938Y-124443685D01*
X185625938Y-124443685D02*
X185697367Y-124586542D01*
X185697367Y-124586542D02*
X185697367Y-124657971D01*
X185697367Y-124657971D02*
X185625938Y-124800828D01*
X185625938Y-124800828D02*
X185554510Y-124872257D01*
X185554510Y-124872257D02*
X185411652Y-124943685D01*
X185411652Y-124943685D02*
X185125938Y-124943685D01*
X185125938Y-124943685D02*
X184983081Y-125015114D01*
X184983081Y-125015114D02*
X184911652Y-125086542D01*
X184911652Y-125086542D02*
X184840224Y-125229400D01*
X184840224Y-125229400D02*
X184840224Y-125515114D01*
X184840224Y-125515114D02*
X184911652Y-125657971D01*
X184911652Y-125657971D02*
X184983081Y-125729400D01*
X184983081Y-125729400D02*
X185125938Y-125800828D01*
X185125938Y-125800828D02*
X185411652Y-125800828D01*
X185411652Y-125800828D02*
X185554510Y-125729400D01*
X185554510Y-125729400D02*
X185625938Y-125657971D01*
X185625938Y-125657971D02*
X185697367Y-125515114D01*
X185697367Y-125515114D02*
X185697367Y-125229400D01*
X185697367Y-125229400D02*
X185625938Y-125086542D01*
X185625938Y-125086542D02*
X185554510Y-125015114D01*
X185554510Y-125015114D02*
X185411652Y-124943685D01*
X186625938Y-124300828D02*
X186768795Y-124300828D01*
X186768795Y-124300828D02*
X186911652Y-124372257D01*
X186911652Y-124372257D02*
X186983081Y-124443685D01*
X186983081Y-124443685D02*
X187054509Y-124586542D01*
X187054509Y-124586542D02*
X187125938Y-124872257D01*
X187125938Y-124872257D02*
X187125938Y-125229400D01*
X187125938Y-125229400D02*
X187054509Y-125515114D01*
X187054509Y-125515114D02*
X186983081Y-125657971D01*
X186983081Y-125657971D02*
X186911652Y-125729400D01*
X186911652Y-125729400D02*
X186768795Y-125800828D01*
X186768795Y-125800828D02*
X186625938Y-125800828D01*
X186625938Y-125800828D02*
X186483081Y-125729400D01*
X186483081Y-125729400D02*
X186411652Y-125657971D01*
X186411652Y-125657971D02*
X186340223Y-125515114D01*
X186340223Y-125515114D02*
X186268795Y-125229400D01*
X186268795Y-125229400D02*
X186268795Y-124872257D01*
X186268795Y-124872257D02*
X186340223Y-124586542D01*
X186340223Y-124586542D02*
X186411652Y-124443685D01*
X186411652Y-124443685D02*
X186483081Y-124372257D01*
X186483081Y-124372257D02*
X186625938Y-124300828D01*
X187768794Y-124300828D02*
X187768794Y-125515114D01*
X187768794Y-125515114D02*
X187840223Y-125657971D01*
X187840223Y-125657971D02*
X187911652Y-125729400D01*
X187911652Y-125729400D02*
X188054509Y-125800828D01*
X188054509Y-125800828D02*
X188340223Y-125800828D01*
X188340223Y-125800828D02*
X188483080Y-125729400D01*
X188483080Y-125729400D02*
X188554509Y-125657971D01*
X188554509Y-125657971D02*
X188625937Y-125515114D01*
X188625937Y-125515114D02*
X188625937Y-124300828D01*
X191197366Y-125800828D02*
X190483080Y-125800828D01*
X190483080Y-125800828D02*
X190483080Y-124300828D01*
X192554509Y-125657971D02*
X192483081Y-125729400D01*
X192483081Y-125729400D02*
X192268795Y-125800828D01*
X192268795Y-125800828D02*
X192125938Y-125800828D01*
X192125938Y-125800828D02*
X191911652Y-125729400D01*
X191911652Y-125729400D02*
X191768795Y-125586542D01*
X191768795Y-125586542D02*
X191697366Y-125443685D01*
X191697366Y-125443685D02*
X191625938Y-125157971D01*
X191625938Y-125157971D02*
X191625938Y-124943685D01*
X191625938Y-124943685D02*
X191697366Y-124657971D01*
X191697366Y-124657971D02*
X191768795Y-124515114D01*
X191768795Y-124515114D02*
X191911652Y-124372257D01*
X191911652Y-124372257D02*
X192125938Y-124300828D01*
X192125938Y-124300828D02*
X192268795Y-124300828D01*
X192268795Y-124300828D02*
X192483081Y-124372257D01*
X192483081Y-124372257D02*
X192554509Y-124443685D01*
X193197366Y-125800828D02*
X193197366Y-124300828D01*
X193197366Y-124300828D02*
X193554509Y-124300828D01*
X193554509Y-124300828D02*
X193768795Y-124372257D01*
X193768795Y-124372257D02*
X193911652Y-124515114D01*
X193911652Y-124515114D02*
X193983081Y-124657971D01*
X193983081Y-124657971D02*
X194054509Y-124943685D01*
X194054509Y-124943685D02*
X194054509Y-125157971D01*
X194054509Y-125157971D02*
X193983081Y-125443685D01*
X193983081Y-125443685D02*
X193911652Y-125586542D01*
X193911652Y-125586542D02*
X193768795Y-125729400D01*
X193768795Y-125729400D02*
X193554509Y-125800828D01*
X193554509Y-125800828D02*
X193197366Y-125800828D01*
D12*
X71539378Y-113633690D02*
X71482236Y-113595595D01*
X71482236Y-113595595D02*
X71396521Y-113595595D01*
X71396521Y-113595595D02*
X71310807Y-113633690D01*
X71310807Y-113633690D02*
X71253664Y-113709880D01*
X71253664Y-113709880D02*
X71225093Y-113786071D01*
X71225093Y-113786071D02*
X71196521Y-113938452D01*
X71196521Y-113938452D02*
X71196521Y-114052738D01*
X71196521Y-114052738D02*
X71225093Y-114205119D01*
X71225093Y-114205119D02*
X71253664Y-114281309D01*
X71253664Y-114281309D02*
X71310807Y-114357500D01*
X71310807Y-114357500D02*
X71396521Y-114395595D01*
X71396521Y-114395595D02*
X71453664Y-114395595D01*
X71453664Y-114395595D02*
X71539378Y-114357500D01*
X71539378Y-114357500D02*
X71567950Y-114319404D01*
X71567950Y-114319404D02*
X71567950Y-114052738D01*
X71567950Y-114052738D02*
X71453664Y-114052738D01*
X71825093Y-114395595D02*
X71825093Y-113595595D01*
X71825093Y-113595595D02*
X72167950Y-114395595D01*
X72167950Y-114395595D02*
X72167950Y-113595595D01*
X72453664Y-114395595D02*
X72453664Y-113595595D01*
X72453664Y-113595595D02*
X72596521Y-113595595D01*
X72596521Y-113595595D02*
X72682235Y-113633690D01*
X72682235Y-113633690D02*
X72739378Y-113709880D01*
X72739378Y-113709880D02*
X72767949Y-113786071D01*
X72767949Y-113786071D02*
X72796521Y-113938452D01*
X72796521Y-113938452D02*
X72796521Y-114052738D01*
X72796521Y-114052738D02*
X72767949Y-114205119D01*
X72767949Y-114205119D02*
X72739378Y-114281309D01*
X72739378Y-114281309D02*
X72682235Y-114357500D01*
X72682235Y-114357500D02*
X72596521Y-114395595D01*
X72596521Y-114395595D02*
X72453664Y-114395595D01*
D11*
X82601653Y-48000828D02*
X83601653Y-48000828D01*
X83601653Y-48000828D02*
X82958796Y-49500828D01*
X84815939Y-48500828D02*
X84815939Y-49500828D01*
X84458796Y-47929400D02*
X84101653Y-49000828D01*
X84101653Y-49000828D02*
X85030224Y-49000828D01*
X85601652Y-49500828D02*
X85601652Y-48000828D01*
X85601652Y-48715114D02*
X86458795Y-48715114D01*
X86458795Y-49500828D02*
X86458795Y-48000828D01*
X88030224Y-49357971D02*
X87958796Y-49429400D01*
X87958796Y-49429400D02*
X87744510Y-49500828D01*
X87744510Y-49500828D02*
X87601653Y-49500828D01*
X87601653Y-49500828D02*
X87387367Y-49429400D01*
X87387367Y-49429400D02*
X87244510Y-49286542D01*
X87244510Y-49286542D02*
X87173081Y-49143685D01*
X87173081Y-49143685D02*
X87101653Y-48857971D01*
X87101653Y-48857971D02*
X87101653Y-48643685D01*
X87101653Y-48643685D02*
X87173081Y-48357971D01*
X87173081Y-48357971D02*
X87244510Y-48215114D01*
X87244510Y-48215114D02*
X87387367Y-48072257D01*
X87387367Y-48072257D02*
X87601653Y-48000828D01*
X87601653Y-48000828D02*
X87744510Y-48000828D01*
X87744510Y-48000828D02*
X87958796Y-48072257D01*
X87958796Y-48072257D02*
X88030224Y-48143685D01*
X88958796Y-48000828D02*
X89101653Y-48000828D01*
X89101653Y-48000828D02*
X89244510Y-48072257D01*
X89244510Y-48072257D02*
X89315939Y-48143685D01*
X89315939Y-48143685D02*
X89387367Y-48286542D01*
X89387367Y-48286542D02*
X89458796Y-48572257D01*
X89458796Y-48572257D02*
X89458796Y-48929400D01*
X89458796Y-48929400D02*
X89387367Y-49215114D01*
X89387367Y-49215114D02*
X89315939Y-49357971D01*
X89315939Y-49357971D02*
X89244510Y-49429400D01*
X89244510Y-49429400D02*
X89101653Y-49500828D01*
X89101653Y-49500828D02*
X88958796Y-49500828D01*
X88958796Y-49500828D02*
X88815939Y-49429400D01*
X88815939Y-49429400D02*
X88744510Y-49357971D01*
X88744510Y-49357971D02*
X88673081Y-49215114D01*
X88673081Y-49215114D02*
X88601653Y-48929400D01*
X88601653Y-48929400D02*
X88601653Y-48572257D01*
X88601653Y-48572257D02*
X88673081Y-48286542D01*
X88673081Y-48286542D02*
X88744510Y-48143685D01*
X88744510Y-48143685D02*
X88815939Y-48072257D01*
X88815939Y-48072257D02*
X88958796Y-48000828D01*
X90387367Y-48000828D02*
X90530224Y-48000828D01*
X90530224Y-48000828D02*
X90673081Y-48072257D01*
X90673081Y-48072257D02*
X90744510Y-48143685D01*
X90744510Y-48143685D02*
X90815938Y-48286542D01*
X90815938Y-48286542D02*
X90887367Y-48572257D01*
X90887367Y-48572257D02*
X90887367Y-48929400D01*
X90887367Y-48929400D02*
X90815938Y-49215114D01*
X90815938Y-49215114D02*
X90744510Y-49357971D01*
X90744510Y-49357971D02*
X90673081Y-49429400D01*
X90673081Y-49429400D02*
X90530224Y-49500828D01*
X90530224Y-49500828D02*
X90387367Y-49500828D01*
X90387367Y-49500828D02*
X90244510Y-49429400D01*
X90244510Y-49429400D02*
X90173081Y-49357971D01*
X90173081Y-49357971D02*
X90101652Y-49215114D01*
X90101652Y-49215114D02*
X90030224Y-48929400D01*
X90030224Y-48929400D02*
X90030224Y-48572257D01*
X90030224Y-48572257D02*
X90101652Y-48286542D01*
X90101652Y-48286542D02*
X90173081Y-48143685D01*
X90173081Y-48143685D02*
X90244510Y-48072257D01*
X90244510Y-48072257D02*
X90387367Y-48000828D01*
D12*
X71567950Y-119319404D02*
X71539378Y-119357500D01*
X71539378Y-119357500D02*
X71453664Y-119395595D01*
X71453664Y-119395595D02*
X71396521Y-119395595D01*
X71396521Y-119395595D02*
X71310807Y-119357500D01*
X71310807Y-119357500D02*
X71253664Y-119281309D01*
X71253664Y-119281309D02*
X71225093Y-119205119D01*
X71225093Y-119205119D02*
X71196521Y-119052738D01*
X71196521Y-119052738D02*
X71196521Y-118938452D01*
X71196521Y-118938452D02*
X71225093Y-118786071D01*
X71225093Y-118786071D02*
X71253664Y-118709880D01*
X71253664Y-118709880D02*
X71310807Y-118633690D01*
X71310807Y-118633690D02*
X71396521Y-118595595D01*
X71396521Y-118595595D02*
X71453664Y-118595595D01*
X71453664Y-118595595D02*
X71539378Y-118633690D01*
X71539378Y-118633690D02*
X71567950Y-118671785D01*
X72110807Y-119395595D02*
X71825093Y-119395595D01*
X71825093Y-119395595D02*
X71825093Y-118595595D01*
X72310807Y-119395595D02*
X72310807Y-118595595D01*
X72653664Y-119395595D02*
X72396521Y-118938452D01*
X72653664Y-118595595D02*
X72310807Y-119052738D01*
D13*
X70402568Y-122364619D02*
X70402568Y-121364619D01*
X70402568Y-121364619D02*
X70735901Y-122078904D01*
X70735901Y-122078904D02*
X71069234Y-121364619D01*
X71069234Y-121364619D02*
X71069234Y-122364619D01*
X71497806Y-122078904D02*
X71973996Y-122078904D01*
X71402568Y-122364619D02*
X71735901Y-121364619D01*
X71735901Y-121364619D02*
X72069234Y-122364619D01*
X72402568Y-122364619D02*
X72402568Y-121364619D01*
X72402568Y-121364619D02*
X72973996Y-122364619D01*
X72973996Y-122364619D02*
X72973996Y-121364619D01*
X73212092Y-122459857D02*
X73973996Y-122459857D01*
X74783520Y-122269380D02*
X74735901Y-122317000D01*
X74735901Y-122317000D02*
X74593044Y-122364619D01*
X74593044Y-122364619D02*
X74497806Y-122364619D01*
X74497806Y-122364619D02*
X74354949Y-122317000D01*
X74354949Y-122317000D02*
X74259711Y-122221761D01*
X74259711Y-122221761D02*
X74212092Y-122126523D01*
X74212092Y-122126523D02*
X74164473Y-121936047D01*
X74164473Y-121936047D02*
X74164473Y-121793190D01*
X74164473Y-121793190D02*
X74212092Y-121602714D01*
X74212092Y-121602714D02*
X74259711Y-121507476D01*
X74259711Y-121507476D02*
X74354949Y-121412238D01*
X74354949Y-121412238D02*
X74497806Y-121364619D01*
X74497806Y-121364619D02*
X74593044Y-121364619D01*
X74593044Y-121364619D02*
X74735901Y-121412238D01*
X74735901Y-121412238D02*
X74783520Y-121459857D01*
X75688282Y-122364619D02*
X75212092Y-122364619D01*
X75212092Y-122364619D02*
X75212092Y-121364619D01*
X76021616Y-122364619D02*
X76021616Y-121364619D01*
X76593044Y-122364619D02*
X76164473Y-121793190D01*
X76593044Y-121364619D02*
X76021616Y-121936047D01*
X76783521Y-122459857D02*
X77545425Y-122459857D01*
X77783521Y-122364619D02*
X77783521Y-121364619D01*
X77783521Y-121840809D02*
X78354949Y-121840809D01*
X78354949Y-122364619D02*
X78354949Y-121364619D01*
X78831140Y-122364619D02*
X78831140Y-121364619D01*
X78831140Y-121364619D02*
X79069235Y-121364619D01*
X79069235Y-121364619D02*
X79212092Y-121412238D01*
X79212092Y-121412238D02*
X79307330Y-121507476D01*
X79307330Y-121507476D02*
X79354949Y-121602714D01*
X79354949Y-121602714D02*
X79402568Y-121793190D01*
X79402568Y-121793190D02*
X79402568Y-121936047D01*
X79402568Y-121936047D02*
X79354949Y-122126523D01*
X79354949Y-122126523D02*
X79307330Y-122221761D01*
X79307330Y-122221761D02*
X79212092Y-122317000D01*
X79212092Y-122317000D02*
X79069235Y-122364619D01*
X79069235Y-122364619D02*
X78831140Y-122364619D01*
X80402568Y-122364619D02*
X80069235Y-121888428D01*
X79831140Y-122364619D02*
X79831140Y-121364619D01*
X79831140Y-121364619D02*
X80212092Y-121364619D01*
X80212092Y-121364619D02*
X80307330Y-121412238D01*
X80307330Y-121412238D02*
X80354949Y-121459857D01*
X80354949Y-121459857D02*
X80402568Y-121555095D01*
X80402568Y-121555095D02*
X80402568Y-121697952D01*
X80402568Y-121697952D02*
X80354949Y-121793190D01*
X80354949Y-121793190D02*
X80307330Y-121840809D01*
X80307330Y-121840809D02*
X80212092Y-121888428D01*
X80212092Y-121888428D02*
X79831140Y-121888428D01*
D11*
X162483082Y-40443685D02*
X162554510Y-40372257D01*
X162554510Y-40372257D02*
X162697368Y-40300828D01*
X162697368Y-40300828D02*
X163054510Y-40300828D01*
X163054510Y-40300828D02*
X163197368Y-40372257D01*
X163197368Y-40372257D02*
X163268796Y-40443685D01*
X163268796Y-40443685D02*
X163340225Y-40586542D01*
X163340225Y-40586542D02*
X163340225Y-40729400D01*
X163340225Y-40729400D02*
X163268796Y-40943685D01*
X163268796Y-40943685D02*
X162411653Y-41800828D01*
X162411653Y-41800828D02*
X163340225Y-41800828D01*
X164197367Y-40943685D02*
X164054510Y-40872257D01*
X164054510Y-40872257D02*
X163983081Y-40800828D01*
X163983081Y-40800828D02*
X163911653Y-40657971D01*
X163911653Y-40657971D02*
X163911653Y-40586542D01*
X163911653Y-40586542D02*
X163983081Y-40443685D01*
X163983081Y-40443685D02*
X164054510Y-40372257D01*
X164054510Y-40372257D02*
X164197367Y-40300828D01*
X164197367Y-40300828D02*
X164483081Y-40300828D01*
X164483081Y-40300828D02*
X164625939Y-40372257D01*
X164625939Y-40372257D02*
X164697367Y-40443685D01*
X164697367Y-40443685D02*
X164768796Y-40586542D01*
X164768796Y-40586542D02*
X164768796Y-40657971D01*
X164768796Y-40657971D02*
X164697367Y-40800828D01*
X164697367Y-40800828D02*
X164625939Y-40872257D01*
X164625939Y-40872257D02*
X164483081Y-40943685D01*
X164483081Y-40943685D02*
X164197367Y-40943685D01*
X164197367Y-40943685D02*
X164054510Y-41015114D01*
X164054510Y-41015114D02*
X163983081Y-41086542D01*
X163983081Y-41086542D02*
X163911653Y-41229400D01*
X163911653Y-41229400D02*
X163911653Y-41515114D01*
X163911653Y-41515114D02*
X163983081Y-41657971D01*
X163983081Y-41657971D02*
X164054510Y-41729400D01*
X164054510Y-41729400D02*
X164197367Y-41800828D01*
X164197367Y-41800828D02*
X164483081Y-41800828D01*
X164483081Y-41800828D02*
X164625939Y-41729400D01*
X164625939Y-41729400D02*
X164697367Y-41657971D01*
X164697367Y-41657971D02*
X164768796Y-41515114D01*
X164768796Y-41515114D02*
X164768796Y-41229400D01*
X164768796Y-41229400D02*
X164697367Y-41086542D01*
X164697367Y-41086542D02*
X164625939Y-41015114D01*
X164625939Y-41015114D02*
X164483081Y-40943685D01*
X166268795Y-41657971D02*
X166197367Y-41729400D01*
X166197367Y-41729400D02*
X165983081Y-41800828D01*
X165983081Y-41800828D02*
X165840224Y-41800828D01*
X165840224Y-41800828D02*
X165625938Y-41729400D01*
X165625938Y-41729400D02*
X165483081Y-41586542D01*
X165483081Y-41586542D02*
X165411652Y-41443685D01*
X165411652Y-41443685D02*
X165340224Y-41157971D01*
X165340224Y-41157971D02*
X165340224Y-40943685D01*
X165340224Y-40943685D02*
X165411652Y-40657971D01*
X165411652Y-40657971D02*
X165483081Y-40515114D01*
X165483081Y-40515114D02*
X165625938Y-40372257D01*
X165625938Y-40372257D02*
X165840224Y-40300828D01*
X165840224Y-40300828D02*
X165983081Y-40300828D01*
X165983081Y-40300828D02*
X166197367Y-40372257D01*
X166197367Y-40372257D02*
X166268795Y-40443685D01*
X166840224Y-40443685D02*
X166911652Y-40372257D01*
X166911652Y-40372257D02*
X167054510Y-40300828D01*
X167054510Y-40300828D02*
X167411652Y-40300828D01*
X167411652Y-40300828D02*
X167554510Y-40372257D01*
X167554510Y-40372257D02*
X167625938Y-40443685D01*
X167625938Y-40443685D02*
X167697367Y-40586542D01*
X167697367Y-40586542D02*
X167697367Y-40729400D01*
X167697367Y-40729400D02*
X167625938Y-40943685D01*
X167625938Y-40943685D02*
X166768795Y-41800828D01*
X166768795Y-41800828D02*
X167697367Y-41800828D01*
X169054509Y-40300828D02*
X168340223Y-40300828D01*
X168340223Y-40300828D02*
X168268795Y-41015114D01*
X168268795Y-41015114D02*
X168340223Y-40943685D01*
X168340223Y-40943685D02*
X168483081Y-40872257D01*
X168483081Y-40872257D02*
X168840223Y-40872257D01*
X168840223Y-40872257D02*
X168983081Y-40943685D01*
X168983081Y-40943685D02*
X169054509Y-41015114D01*
X169054509Y-41015114D02*
X169125938Y-41157971D01*
X169125938Y-41157971D02*
X169125938Y-41515114D01*
X169125938Y-41515114D02*
X169054509Y-41657971D01*
X169054509Y-41657971D02*
X168983081Y-41729400D01*
X168983081Y-41729400D02*
X168840223Y-41800828D01*
X168840223Y-41800828D02*
X168483081Y-41800828D01*
X168483081Y-41800828D02*
X168340223Y-41729400D01*
X168340223Y-41729400D02*
X168268795Y-41657971D01*
X170411652Y-40300828D02*
X170125937Y-40300828D01*
X170125937Y-40300828D02*
X169983080Y-40372257D01*
X169983080Y-40372257D02*
X169911652Y-40443685D01*
X169911652Y-40443685D02*
X169768794Y-40657971D01*
X169768794Y-40657971D02*
X169697366Y-40943685D01*
X169697366Y-40943685D02*
X169697366Y-41515114D01*
X169697366Y-41515114D02*
X169768794Y-41657971D01*
X169768794Y-41657971D02*
X169840223Y-41729400D01*
X169840223Y-41729400D02*
X169983080Y-41800828D01*
X169983080Y-41800828D02*
X170268794Y-41800828D01*
X170268794Y-41800828D02*
X170411652Y-41729400D01*
X170411652Y-41729400D02*
X170483080Y-41657971D01*
X170483080Y-41657971D02*
X170554509Y-41515114D01*
X170554509Y-41515114D02*
X170554509Y-41157971D01*
X170554509Y-41157971D02*
X170483080Y-41015114D01*
X170483080Y-41015114D02*
X170411652Y-40943685D01*
X170411652Y-40943685D02*
X170268794Y-40872257D01*
X170268794Y-40872257D02*
X169983080Y-40872257D01*
X169983080Y-40872257D02*
X169840223Y-40943685D01*
X169840223Y-40943685D02*
X169768794Y-41015114D01*
X169768794Y-41015114D02*
X169697366Y-41157971D01*
X172340222Y-41015114D02*
X172840222Y-41015114D01*
X173054508Y-41800828D02*
X172340222Y-41800828D01*
X172340222Y-41800828D02*
X172340222Y-40300828D01*
X172340222Y-40300828D02*
X173054508Y-40300828D01*
X173697365Y-41015114D02*
X174197365Y-41015114D01*
X174411651Y-41800828D02*
X173697365Y-41800828D01*
X173697365Y-41800828D02*
X173697365Y-40300828D01*
X173697365Y-40300828D02*
X174411651Y-40300828D01*
X175054508Y-41800828D02*
X175054508Y-40300828D01*
X175054508Y-40300828D02*
X175625937Y-40300828D01*
X175625937Y-40300828D02*
X175768794Y-40372257D01*
X175768794Y-40372257D02*
X175840223Y-40443685D01*
X175840223Y-40443685D02*
X175911651Y-40586542D01*
X175911651Y-40586542D02*
X175911651Y-40800828D01*
X175911651Y-40800828D02*
X175840223Y-40943685D01*
X175840223Y-40943685D02*
X175768794Y-41015114D01*
X175768794Y-41015114D02*
X175625937Y-41086542D01*
X175625937Y-41086542D02*
X175054508Y-41086542D01*
X177411651Y-41800828D02*
X176911651Y-41086542D01*
X176554508Y-41800828D02*
X176554508Y-40300828D01*
X176554508Y-40300828D02*
X177125937Y-40300828D01*
X177125937Y-40300828D02*
X177268794Y-40372257D01*
X177268794Y-40372257D02*
X177340223Y-40443685D01*
X177340223Y-40443685D02*
X177411651Y-40586542D01*
X177411651Y-40586542D02*
X177411651Y-40800828D01*
X177411651Y-40800828D02*
X177340223Y-40943685D01*
X177340223Y-40943685D02*
X177268794Y-41015114D01*
X177268794Y-41015114D02*
X177125937Y-41086542D01*
X177125937Y-41086542D02*
X176554508Y-41086542D01*
X178340223Y-40300828D02*
X178625937Y-40300828D01*
X178625937Y-40300828D02*
X178768794Y-40372257D01*
X178768794Y-40372257D02*
X178911651Y-40515114D01*
X178911651Y-40515114D02*
X178983080Y-40800828D01*
X178983080Y-40800828D02*
X178983080Y-41300828D01*
X178983080Y-41300828D02*
X178911651Y-41586542D01*
X178911651Y-41586542D02*
X178768794Y-41729400D01*
X178768794Y-41729400D02*
X178625937Y-41800828D01*
X178625937Y-41800828D02*
X178340223Y-41800828D01*
X178340223Y-41800828D02*
X178197366Y-41729400D01*
X178197366Y-41729400D02*
X178054508Y-41586542D01*
X178054508Y-41586542D02*
X177983080Y-41300828D01*
X177983080Y-41300828D02*
X177983080Y-40800828D01*
X177983080Y-40800828D02*
X178054508Y-40515114D01*
X178054508Y-40515114D02*
X178197366Y-40372257D01*
X178197366Y-40372257D02*
X178340223Y-40300828D01*
X179625937Y-41800828D02*
X179625937Y-40300828D01*
X179625937Y-40300828D02*
X180125937Y-41372257D01*
X180125937Y-41372257D02*
X180625937Y-40300828D01*
X180625937Y-40300828D02*
X180625937Y-41800828D01*
X90554510Y-44800828D02*
X90554510Y-43300828D01*
X90554510Y-43300828D02*
X91125939Y-43300828D01*
X91125939Y-43300828D02*
X91268796Y-43372257D01*
X91268796Y-43372257D02*
X91340225Y-43443685D01*
X91340225Y-43443685D02*
X91411653Y-43586542D01*
X91411653Y-43586542D02*
X91411653Y-43800828D01*
X91411653Y-43800828D02*
X91340225Y-43943685D01*
X91340225Y-43943685D02*
X91268796Y-44015114D01*
X91268796Y-44015114D02*
X91125939Y-44086542D01*
X91125939Y-44086542D02*
X90554510Y-44086542D01*
X91911653Y-43300828D02*
X92268796Y-44800828D01*
X92268796Y-44800828D02*
X92554510Y-43729400D01*
X92554510Y-43729400D02*
X92840225Y-44800828D01*
X92840225Y-44800828D02*
X93197368Y-43300828D01*
X94625939Y-44800828D02*
X94125939Y-44086542D01*
X93768796Y-44800828D02*
X93768796Y-43300828D01*
X93768796Y-43300828D02*
X94340225Y-43300828D01*
X94340225Y-43300828D02*
X94483082Y-43372257D01*
X94483082Y-43372257D02*
X94554511Y-43443685D01*
X94554511Y-43443685D02*
X94625939Y-43586542D01*
X94625939Y-43586542D02*
X94625939Y-43800828D01*
X94625939Y-43800828D02*
X94554511Y-43943685D01*
X94554511Y-43943685D02*
X94483082Y-44015114D01*
X94483082Y-44015114D02*
X94340225Y-44086542D01*
X94340225Y-44086542D02*
X93768796Y-44086542D01*
X94911654Y-44943685D02*
X96054511Y-44943685D01*
X97125939Y-44800828D02*
X96411653Y-44800828D01*
X96411653Y-44800828D02*
X96411653Y-43300828D01*
X97625939Y-44015114D02*
X98125939Y-44015114D01*
X98340225Y-44800828D02*
X97625939Y-44800828D01*
X97625939Y-44800828D02*
X97625939Y-43300828D01*
X97625939Y-43300828D02*
X98340225Y-43300828D01*
X98983082Y-44800828D02*
X98983082Y-43300828D01*
X98983082Y-43300828D02*
X99340225Y-43300828D01*
X99340225Y-43300828D02*
X99554511Y-43372257D01*
X99554511Y-43372257D02*
X99697368Y-43515114D01*
X99697368Y-43515114D02*
X99768797Y-43657971D01*
X99768797Y-43657971D02*
X99840225Y-43943685D01*
X99840225Y-43943685D02*
X99840225Y-44157971D01*
X99840225Y-44157971D02*
X99768797Y-44443685D01*
X99768797Y-44443685D02*
X99697368Y-44586542D01*
X99697368Y-44586542D02*
X99554511Y-44729400D01*
X99554511Y-44729400D02*
X99340225Y-44800828D01*
X99340225Y-44800828D02*
X98983082Y-44800828D01*
X192582368Y-105300828D02*
X192296653Y-105300828D01*
X192296653Y-105300828D02*
X192153796Y-105372257D01*
X192153796Y-105372257D02*
X192082368Y-105443685D01*
X192082368Y-105443685D02*
X191939510Y-105657971D01*
X191939510Y-105657971D02*
X191868082Y-105943685D01*
X191868082Y-105943685D02*
X191868082Y-106515114D01*
X191868082Y-106515114D02*
X191939510Y-106657971D01*
X191939510Y-106657971D02*
X192010939Y-106729400D01*
X192010939Y-106729400D02*
X192153796Y-106800828D01*
X192153796Y-106800828D02*
X192439510Y-106800828D01*
X192439510Y-106800828D02*
X192582368Y-106729400D01*
X192582368Y-106729400D02*
X192653796Y-106657971D01*
X192653796Y-106657971D02*
X192725225Y-106515114D01*
X192725225Y-106515114D02*
X192725225Y-106157971D01*
X192725225Y-106157971D02*
X192653796Y-106015114D01*
X192653796Y-106015114D02*
X192582368Y-105943685D01*
X192582368Y-105943685D02*
X192439510Y-105872257D01*
X192439510Y-105872257D02*
X192153796Y-105872257D01*
X192153796Y-105872257D02*
X192010939Y-105943685D01*
X192010939Y-105943685D02*
X191939510Y-106015114D01*
X191939510Y-106015114D02*
X191868082Y-106157971D01*
X193296653Y-105443685D02*
X193368081Y-105372257D01*
X193368081Y-105372257D02*
X193510939Y-105300828D01*
X193510939Y-105300828D02*
X193868081Y-105300828D01*
X193868081Y-105300828D02*
X194010939Y-105372257D01*
X194010939Y-105372257D02*
X194082367Y-105443685D01*
X194082367Y-105443685D02*
X194153796Y-105586542D01*
X194153796Y-105586542D02*
X194153796Y-105729400D01*
X194153796Y-105729400D02*
X194082367Y-105943685D01*
X194082367Y-105943685D02*
X193225224Y-106800828D01*
X193225224Y-106800828D02*
X194153796Y-106800828D01*
X194725224Y-105443685D02*
X194796652Y-105372257D01*
X194796652Y-105372257D02*
X194939510Y-105300828D01*
X194939510Y-105300828D02*
X195296652Y-105300828D01*
X195296652Y-105300828D02*
X195439510Y-105372257D01*
X195439510Y-105372257D02*
X195510938Y-105443685D01*
X195510938Y-105443685D02*
X195582367Y-105586542D01*
X195582367Y-105586542D02*
X195582367Y-105729400D01*
X195582367Y-105729400D02*
X195510938Y-105943685D01*
X195510938Y-105943685D02*
X194653795Y-106800828D01*
X194653795Y-106800828D02*
X195582367Y-106800828D01*
X196939509Y-105300828D02*
X196225223Y-105300828D01*
X196225223Y-105300828D02*
X196153795Y-106015114D01*
X196153795Y-106015114D02*
X196225223Y-105943685D01*
X196225223Y-105943685D02*
X196368081Y-105872257D01*
X196368081Y-105872257D02*
X196725223Y-105872257D01*
X196725223Y-105872257D02*
X196868081Y-105943685D01*
X196868081Y-105943685D02*
X196939509Y-106015114D01*
X196939509Y-106015114D02*
X197010938Y-106157971D01*
X197010938Y-106157971D02*
X197010938Y-106515114D01*
X197010938Y-106515114D02*
X196939509Y-106657971D01*
X196939509Y-106657971D02*
X196868081Y-106729400D01*
X196868081Y-106729400D02*
X196725223Y-106800828D01*
X196725223Y-106800828D02*
X196368081Y-106800828D01*
X196368081Y-106800828D02*
X196225223Y-106729400D01*
X196225223Y-106729400D02*
X196153795Y-106657971D01*
X198296652Y-105300828D02*
X198010937Y-105300828D01*
X198010937Y-105300828D02*
X197868080Y-105372257D01*
X197868080Y-105372257D02*
X197796652Y-105443685D01*
X197796652Y-105443685D02*
X197653794Y-105657971D01*
X197653794Y-105657971D02*
X197582366Y-105943685D01*
X197582366Y-105943685D02*
X197582366Y-106515114D01*
X197582366Y-106515114D02*
X197653794Y-106657971D01*
X197653794Y-106657971D02*
X197725223Y-106729400D01*
X197725223Y-106729400D02*
X197868080Y-106800828D01*
X197868080Y-106800828D02*
X198153794Y-106800828D01*
X198153794Y-106800828D02*
X198296652Y-106729400D01*
X198296652Y-106729400D02*
X198368080Y-106657971D01*
X198368080Y-106657971D02*
X198439509Y-106515114D01*
X198439509Y-106515114D02*
X198439509Y-106157971D01*
X198439509Y-106157971D02*
X198368080Y-106015114D01*
X198368080Y-106015114D02*
X198296652Y-105943685D01*
X198296652Y-105943685D02*
X198153794Y-105872257D01*
X198153794Y-105872257D02*
X197868080Y-105872257D01*
X197868080Y-105872257D02*
X197725223Y-105943685D01*
X197725223Y-105943685D02*
X197653794Y-106015114D01*
X197653794Y-106015114D02*
X197582366Y-106157971D01*
X201082365Y-106800828D02*
X200582365Y-106086542D01*
X200225222Y-106800828D02*
X200225222Y-105300828D01*
X200225222Y-105300828D02*
X200796651Y-105300828D01*
X200796651Y-105300828D02*
X200939508Y-105372257D01*
X200939508Y-105372257D02*
X201010937Y-105443685D01*
X201010937Y-105443685D02*
X201082365Y-105586542D01*
X201082365Y-105586542D02*
X201082365Y-105800828D01*
X201082365Y-105800828D02*
X201010937Y-105943685D01*
X201010937Y-105943685D02*
X200939508Y-106015114D01*
X200939508Y-106015114D02*
X200796651Y-106086542D01*
X200796651Y-106086542D02*
X200225222Y-106086542D01*
X201653794Y-106372257D02*
X202368080Y-106372257D01*
X201510937Y-106800828D02*
X202010937Y-105300828D01*
X202010937Y-105300828D02*
X202510937Y-106800828D01*
X203010936Y-106800828D02*
X203010936Y-105300828D01*
X203010936Y-105300828D02*
X203510936Y-106372257D01*
X203510936Y-106372257D02*
X204010936Y-105300828D01*
X204010936Y-105300828D02*
X204010936Y-106800828D01*
X144607144Y-27957341D02*
X145321430Y-27957341D01*
X144464287Y-28385912D02*
X144964287Y-26885912D01*
X144964287Y-26885912D02*
X145464287Y-28385912D01*
X146678572Y-28385912D02*
X145964286Y-28385912D01*
X145964286Y-28385912D02*
X145964286Y-26885912D01*
X147178572Y-27600198D02*
X147678572Y-27600198D01*
X147892858Y-28385912D02*
X147178572Y-28385912D01*
X147178572Y-28385912D02*
X147178572Y-26885912D01*
X147178572Y-26885912D02*
X147892858Y-26885912D01*
X148392858Y-26885912D02*
X149392858Y-28385912D01*
X149392858Y-26885912D02*
X148392858Y-28385912D01*
X150035715Y-26885912D02*
X149892858Y-27171626D01*
X150607144Y-28314484D02*
X150821430Y-28385912D01*
X150821430Y-28385912D02*
X151178572Y-28385912D01*
X151178572Y-28385912D02*
X151321430Y-28314484D01*
X151321430Y-28314484D02*
X151392858Y-28243055D01*
X151392858Y-28243055D02*
X151464287Y-28100198D01*
X151464287Y-28100198D02*
X151464287Y-27957341D01*
X151464287Y-27957341D02*
X151392858Y-27814484D01*
X151392858Y-27814484D02*
X151321430Y-27743055D01*
X151321430Y-27743055D02*
X151178572Y-27671626D01*
X151178572Y-27671626D02*
X150892858Y-27600198D01*
X150892858Y-27600198D02*
X150750001Y-27528769D01*
X150750001Y-27528769D02*
X150678572Y-27457341D01*
X150678572Y-27457341D02*
X150607144Y-27314484D01*
X150607144Y-27314484D02*
X150607144Y-27171626D01*
X150607144Y-27171626D02*
X150678572Y-27028769D01*
X150678572Y-27028769D02*
X150750001Y-26957341D01*
X150750001Y-26957341D02*
X150892858Y-26885912D01*
X150892858Y-26885912D02*
X151250001Y-26885912D01*
X151250001Y-26885912D02*
X151464287Y-26957341D01*
X153892858Y-26885912D02*
X153607143Y-26885912D01*
X153607143Y-26885912D02*
X153464286Y-26957341D01*
X153464286Y-26957341D02*
X153392858Y-27028769D01*
X153392858Y-27028769D02*
X153250000Y-27243055D01*
X153250000Y-27243055D02*
X153178572Y-27528769D01*
X153178572Y-27528769D02*
X153178572Y-28100198D01*
X153178572Y-28100198D02*
X153250000Y-28243055D01*
X153250000Y-28243055D02*
X153321429Y-28314484D01*
X153321429Y-28314484D02*
X153464286Y-28385912D01*
X153464286Y-28385912D02*
X153750000Y-28385912D01*
X153750000Y-28385912D02*
X153892858Y-28314484D01*
X153892858Y-28314484D02*
X153964286Y-28243055D01*
X153964286Y-28243055D02*
X154035715Y-28100198D01*
X154035715Y-28100198D02*
X154035715Y-27743055D01*
X154035715Y-27743055D02*
X153964286Y-27600198D01*
X153964286Y-27600198D02*
X153892858Y-27528769D01*
X153892858Y-27528769D02*
X153750000Y-27457341D01*
X153750000Y-27457341D02*
X153464286Y-27457341D01*
X153464286Y-27457341D02*
X153321429Y-27528769D01*
X153321429Y-27528769D02*
X153250000Y-27600198D01*
X153250000Y-27600198D02*
X153178572Y-27743055D01*
X155392857Y-26885912D02*
X154678571Y-26885912D01*
X154678571Y-26885912D02*
X154607143Y-27600198D01*
X154607143Y-27600198D02*
X154678571Y-27528769D01*
X154678571Y-27528769D02*
X154821429Y-27457341D01*
X154821429Y-27457341D02*
X155178571Y-27457341D01*
X155178571Y-27457341D02*
X155321429Y-27528769D01*
X155321429Y-27528769D02*
X155392857Y-27600198D01*
X155392857Y-27600198D02*
X155464286Y-27743055D01*
X155464286Y-27743055D02*
X155464286Y-28100198D01*
X155464286Y-28100198D02*
X155392857Y-28243055D01*
X155392857Y-28243055D02*
X155321429Y-28314484D01*
X155321429Y-28314484D02*
X155178571Y-28385912D01*
X155178571Y-28385912D02*
X154821429Y-28385912D01*
X154821429Y-28385912D02*
X154678571Y-28314484D01*
X154678571Y-28314484D02*
X154607143Y-28243055D01*
X156964285Y-28243055D02*
X156892857Y-28314484D01*
X156892857Y-28314484D02*
X156678571Y-28385912D01*
X156678571Y-28385912D02*
X156535714Y-28385912D01*
X156535714Y-28385912D02*
X156321428Y-28314484D01*
X156321428Y-28314484D02*
X156178571Y-28171626D01*
X156178571Y-28171626D02*
X156107142Y-28028769D01*
X156107142Y-28028769D02*
X156035714Y-27743055D01*
X156035714Y-27743055D02*
X156035714Y-27528769D01*
X156035714Y-27528769D02*
X156107142Y-27243055D01*
X156107142Y-27243055D02*
X156178571Y-27100198D01*
X156178571Y-27100198D02*
X156321428Y-26957341D01*
X156321428Y-26957341D02*
X156535714Y-26885912D01*
X156535714Y-26885912D02*
X156678571Y-26885912D01*
X156678571Y-26885912D02*
X156892857Y-26957341D01*
X156892857Y-26957341D02*
X156964285Y-27028769D01*
X157892857Y-26885912D02*
X158035714Y-26885912D01*
X158035714Y-26885912D02*
X158178571Y-26957341D01*
X158178571Y-26957341D02*
X158250000Y-27028769D01*
X158250000Y-27028769D02*
X158321428Y-27171626D01*
X158321428Y-27171626D02*
X158392857Y-27457341D01*
X158392857Y-27457341D02*
X158392857Y-27814484D01*
X158392857Y-27814484D02*
X158321428Y-28100198D01*
X158321428Y-28100198D02*
X158250000Y-28243055D01*
X158250000Y-28243055D02*
X158178571Y-28314484D01*
X158178571Y-28314484D02*
X158035714Y-28385912D01*
X158035714Y-28385912D02*
X157892857Y-28385912D01*
X157892857Y-28385912D02*
X157750000Y-28314484D01*
X157750000Y-28314484D02*
X157678571Y-28243055D01*
X157678571Y-28243055D02*
X157607142Y-28100198D01*
X157607142Y-28100198D02*
X157535714Y-27814484D01*
X157535714Y-27814484D02*
X157535714Y-27457341D01*
X157535714Y-27457341D02*
X157607142Y-27171626D01*
X157607142Y-27171626D02*
X157678571Y-27028769D01*
X157678571Y-27028769D02*
X157750000Y-26957341D01*
X157750000Y-26957341D02*
X157892857Y-26885912D01*
X158964285Y-27028769D02*
X159035713Y-26957341D01*
X159035713Y-26957341D02*
X159178571Y-26885912D01*
X159178571Y-26885912D02*
X159535713Y-26885912D01*
X159535713Y-26885912D02*
X159678571Y-26957341D01*
X159678571Y-26957341D02*
X159749999Y-27028769D01*
X159749999Y-27028769D02*
X159821428Y-27171626D01*
X159821428Y-27171626D02*
X159821428Y-27314484D01*
X159821428Y-27314484D02*
X159749999Y-27528769D01*
X159749999Y-27528769D02*
X158892856Y-28385912D01*
X158892856Y-28385912D02*
X159821428Y-28385912D01*
X161535713Y-28314484D02*
X161749999Y-28385912D01*
X161749999Y-28385912D02*
X162107141Y-28385912D01*
X162107141Y-28385912D02*
X162249999Y-28314484D01*
X162249999Y-28314484D02*
X162321427Y-28243055D01*
X162321427Y-28243055D02*
X162392856Y-28100198D01*
X162392856Y-28100198D02*
X162392856Y-27957341D01*
X162392856Y-27957341D02*
X162321427Y-27814484D01*
X162321427Y-27814484D02*
X162249999Y-27743055D01*
X162249999Y-27743055D02*
X162107141Y-27671626D01*
X162107141Y-27671626D02*
X161821427Y-27600198D01*
X161821427Y-27600198D02*
X161678570Y-27528769D01*
X161678570Y-27528769D02*
X161607141Y-27457341D01*
X161607141Y-27457341D02*
X161535713Y-27314484D01*
X161535713Y-27314484D02*
X161535713Y-27171626D01*
X161535713Y-27171626D02*
X161607141Y-27028769D01*
X161607141Y-27028769D02*
X161678570Y-26957341D01*
X161678570Y-26957341D02*
X161821427Y-26885912D01*
X161821427Y-26885912D02*
X162178570Y-26885912D01*
X162178570Y-26885912D02*
X162392856Y-26957341D01*
X163535712Y-27600198D02*
X163749998Y-27671626D01*
X163749998Y-27671626D02*
X163821427Y-27743055D01*
X163821427Y-27743055D02*
X163892855Y-27885912D01*
X163892855Y-27885912D02*
X163892855Y-28100198D01*
X163892855Y-28100198D02*
X163821427Y-28243055D01*
X163821427Y-28243055D02*
X163749998Y-28314484D01*
X163749998Y-28314484D02*
X163607141Y-28385912D01*
X163607141Y-28385912D02*
X163035712Y-28385912D01*
X163035712Y-28385912D02*
X163035712Y-26885912D01*
X163035712Y-26885912D02*
X163535712Y-26885912D01*
X163535712Y-26885912D02*
X163678570Y-26957341D01*
X163678570Y-26957341D02*
X163749998Y-27028769D01*
X163749998Y-27028769D02*
X163821427Y-27171626D01*
X163821427Y-27171626D02*
X163821427Y-27314484D01*
X163821427Y-27314484D02*
X163749998Y-27457341D01*
X163749998Y-27457341D02*
X163678570Y-27528769D01*
X163678570Y-27528769D02*
X163535712Y-27600198D01*
X163535712Y-27600198D02*
X163035712Y-27600198D01*
X165392855Y-28243055D02*
X165321427Y-28314484D01*
X165321427Y-28314484D02*
X165107141Y-28385912D01*
X165107141Y-28385912D02*
X164964284Y-28385912D01*
X164964284Y-28385912D02*
X164749998Y-28314484D01*
X164749998Y-28314484D02*
X164607141Y-28171626D01*
X164607141Y-28171626D02*
X164535712Y-28028769D01*
X164535712Y-28028769D02*
X164464284Y-27743055D01*
X164464284Y-27743055D02*
X164464284Y-27528769D01*
X164464284Y-27528769D02*
X164535712Y-27243055D01*
X164535712Y-27243055D02*
X164607141Y-27100198D01*
X164607141Y-27100198D02*
X164749998Y-26957341D01*
X164749998Y-26957341D02*
X164964284Y-26885912D01*
X164964284Y-26885912D02*
X165107141Y-26885912D01*
X165107141Y-26885912D02*
X165321427Y-26957341D01*
X165321427Y-26957341D02*
X165392855Y-27028769D01*
X151785714Y-30800828D02*
X151285714Y-30086542D01*
X150928571Y-30800828D02*
X150928571Y-29300828D01*
X150928571Y-29300828D02*
X151500000Y-29300828D01*
X151500000Y-29300828D02*
X151642857Y-29372257D01*
X151642857Y-29372257D02*
X151714286Y-29443685D01*
X151714286Y-29443685D02*
X151785714Y-29586542D01*
X151785714Y-29586542D02*
X151785714Y-29800828D01*
X151785714Y-29800828D02*
X151714286Y-29943685D01*
X151714286Y-29943685D02*
X151642857Y-30015114D01*
X151642857Y-30015114D02*
X151500000Y-30086542D01*
X151500000Y-30086542D02*
X150928571Y-30086542D01*
X152428571Y-30015114D02*
X152928571Y-30015114D01*
X153142857Y-30800828D02*
X152428571Y-30800828D01*
X152428571Y-30800828D02*
X152428571Y-29300828D01*
X152428571Y-29300828D02*
X153142857Y-29300828D01*
X153571429Y-29300828D02*
X154071429Y-30800828D01*
X154071429Y-30800828D02*
X154571429Y-29300828D01*
X157000000Y-30800828D02*
X156142857Y-30800828D01*
X156571428Y-30800828D02*
X156571428Y-29300828D01*
X156571428Y-29300828D02*
X156428571Y-29515114D01*
X156428571Y-29515114D02*
X156285714Y-29657971D01*
X156285714Y-29657971D02*
X156142857Y-29729400D01*
X157642856Y-30657971D02*
X157714285Y-30729400D01*
X157714285Y-30729400D02*
X157642856Y-30800828D01*
X157642856Y-30800828D02*
X157571428Y-30729400D01*
X157571428Y-30729400D02*
X157642856Y-30657971D01*
X157642856Y-30657971D02*
X157642856Y-30800828D01*
X158642857Y-29300828D02*
X158785714Y-29300828D01*
X158785714Y-29300828D02*
X158928571Y-29372257D01*
X158928571Y-29372257D02*
X159000000Y-29443685D01*
X159000000Y-29443685D02*
X159071428Y-29586542D01*
X159071428Y-29586542D02*
X159142857Y-29872257D01*
X159142857Y-29872257D02*
X159142857Y-30229400D01*
X159142857Y-30229400D02*
X159071428Y-30515114D01*
X159071428Y-30515114D02*
X159000000Y-30657971D01*
X159000000Y-30657971D02*
X158928571Y-30729400D01*
X158928571Y-30729400D02*
X158785714Y-30800828D01*
X158785714Y-30800828D02*
X158642857Y-30800828D01*
X158642857Y-30800828D02*
X158500000Y-30729400D01*
X158500000Y-30729400D02*
X158428571Y-30657971D01*
X158428571Y-30657971D02*
X158357142Y-30515114D01*
X158357142Y-30515114D02*
X158285714Y-30229400D01*
X158285714Y-30229400D02*
X158285714Y-29872257D01*
X158285714Y-29872257D02*
X158357142Y-29586542D01*
X158357142Y-29586542D02*
X158428571Y-29443685D01*
X158428571Y-29443685D02*
X158500000Y-29372257D01*
X158500000Y-29372257D02*
X158642857Y-29300828D01*
D14*
X102158207Y-156774580D02*
X102110588Y-156822200D01*
X102110588Y-156822200D02*
X101967731Y-156869819D01*
X101967731Y-156869819D02*
X101872493Y-156869819D01*
X101872493Y-156869819D02*
X101729636Y-156822200D01*
X101729636Y-156822200D02*
X101634398Y-156726961D01*
X101634398Y-156726961D02*
X101586779Y-156631723D01*
X101586779Y-156631723D02*
X101539160Y-156441247D01*
X101539160Y-156441247D02*
X101539160Y-156298390D01*
X101539160Y-156298390D02*
X101586779Y-156107914D01*
X101586779Y-156107914D02*
X101634398Y-156012676D01*
X101634398Y-156012676D02*
X101729636Y-155917438D01*
X101729636Y-155917438D02*
X101872493Y-155869819D01*
X101872493Y-155869819D02*
X101967731Y-155869819D01*
X101967731Y-155869819D02*
X102110588Y-155917438D01*
X102110588Y-155917438D02*
X102158207Y-155965057D01*
X102777255Y-155869819D02*
X102967731Y-155869819D01*
X102967731Y-155869819D02*
X103062969Y-155917438D01*
X103062969Y-155917438D02*
X103158207Y-156012676D01*
X103158207Y-156012676D02*
X103205826Y-156203152D01*
X103205826Y-156203152D02*
X103205826Y-156536485D01*
X103205826Y-156536485D02*
X103158207Y-156726961D01*
X103158207Y-156726961D02*
X103062969Y-156822200D01*
X103062969Y-156822200D02*
X102967731Y-156869819D01*
X102967731Y-156869819D02*
X102777255Y-156869819D01*
X102777255Y-156869819D02*
X102682017Y-156822200D01*
X102682017Y-156822200D02*
X102586779Y-156726961D01*
X102586779Y-156726961D02*
X102539160Y-156536485D01*
X102539160Y-156536485D02*
X102539160Y-156203152D01*
X102539160Y-156203152D02*
X102586779Y-156012676D01*
X102586779Y-156012676D02*
X102682017Y-155917438D01*
X102682017Y-155917438D02*
X102777255Y-155869819D01*
X103634398Y-156869819D02*
X103634398Y-155869819D01*
X103634398Y-155869819D02*
X104205826Y-156869819D01*
X104205826Y-156869819D02*
X104205826Y-155869819D01*
X104539160Y-155869819D02*
X105110588Y-155869819D01*
X104824874Y-156869819D02*
X104824874Y-155869819D01*
X106015350Y-156869819D02*
X105682017Y-156393628D01*
X105443922Y-156869819D02*
X105443922Y-155869819D01*
X105443922Y-155869819D02*
X105824874Y-155869819D01*
X105824874Y-155869819D02*
X105920112Y-155917438D01*
X105920112Y-155917438D02*
X105967731Y-155965057D01*
X105967731Y-155965057D02*
X106015350Y-156060295D01*
X106015350Y-156060295D02*
X106015350Y-156203152D01*
X106015350Y-156203152D02*
X105967731Y-156298390D01*
X105967731Y-156298390D02*
X105920112Y-156346009D01*
X105920112Y-156346009D02*
X105824874Y-156393628D01*
X105824874Y-156393628D02*
X105443922Y-156393628D01*
X106396303Y-156584104D02*
X106872493Y-156584104D01*
X106301065Y-156869819D02*
X106634398Y-155869819D01*
X106634398Y-155869819D02*
X106967731Y-156869819D01*
X107253446Y-156822200D02*
X107396303Y-156869819D01*
X107396303Y-156869819D02*
X107634398Y-156869819D01*
X107634398Y-156869819D02*
X107729636Y-156822200D01*
X107729636Y-156822200D02*
X107777255Y-156774580D01*
X107777255Y-156774580D02*
X107824874Y-156679342D01*
X107824874Y-156679342D02*
X107824874Y-156584104D01*
X107824874Y-156584104D02*
X107777255Y-156488866D01*
X107777255Y-156488866D02*
X107729636Y-156441247D01*
X107729636Y-156441247D02*
X107634398Y-156393628D01*
X107634398Y-156393628D02*
X107443922Y-156346009D01*
X107443922Y-156346009D02*
X107348684Y-156298390D01*
X107348684Y-156298390D02*
X107301065Y-156250771D01*
X107301065Y-156250771D02*
X107253446Y-156155533D01*
X107253446Y-156155533D02*
X107253446Y-156060295D01*
X107253446Y-156060295D02*
X107301065Y-155965057D01*
X107301065Y-155965057D02*
X107348684Y-155917438D01*
X107348684Y-155917438D02*
X107443922Y-155869819D01*
X107443922Y-155869819D02*
X107682017Y-155869819D01*
X107682017Y-155869819D02*
X107824874Y-155917438D01*
X108110589Y-155869819D02*
X108682017Y-155869819D01*
X108396303Y-156869819D02*
X108396303Y-155869819D01*
D11*
X169197368Y-72300828D02*
X168911653Y-72300828D01*
X168911653Y-72300828D02*
X168768796Y-72372257D01*
X168768796Y-72372257D02*
X168697368Y-72443685D01*
X168697368Y-72443685D02*
X168554510Y-72657971D01*
X168554510Y-72657971D02*
X168483082Y-72943685D01*
X168483082Y-72943685D02*
X168483082Y-73515114D01*
X168483082Y-73515114D02*
X168554510Y-73657971D01*
X168554510Y-73657971D02*
X168625939Y-73729400D01*
X168625939Y-73729400D02*
X168768796Y-73800828D01*
X168768796Y-73800828D02*
X169054510Y-73800828D01*
X169054510Y-73800828D02*
X169197368Y-73729400D01*
X169197368Y-73729400D02*
X169268796Y-73657971D01*
X169268796Y-73657971D02*
X169340225Y-73515114D01*
X169340225Y-73515114D02*
X169340225Y-73157971D01*
X169340225Y-73157971D02*
X169268796Y-73015114D01*
X169268796Y-73015114D02*
X169197368Y-72943685D01*
X169197368Y-72943685D02*
X169054510Y-72872257D01*
X169054510Y-72872257D02*
X168768796Y-72872257D01*
X168768796Y-72872257D02*
X168625939Y-72943685D01*
X168625939Y-72943685D02*
X168554510Y-73015114D01*
X168554510Y-73015114D02*
X168483082Y-73157971D01*
X170697367Y-72300828D02*
X169983081Y-72300828D01*
X169983081Y-72300828D02*
X169911653Y-73015114D01*
X169911653Y-73015114D02*
X169983081Y-72943685D01*
X169983081Y-72943685D02*
X170125939Y-72872257D01*
X170125939Y-72872257D02*
X170483081Y-72872257D01*
X170483081Y-72872257D02*
X170625939Y-72943685D01*
X170625939Y-72943685D02*
X170697367Y-73015114D01*
X170697367Y-73015114D02*
X170768796Y-73157971D01*
X170768796Y-73157971D02*
X170768796Y-73515114D01*
X170768796Y-73515114D02*
X170697367Y-73657971D01*
X170697367Y-73657971D02*
X170625939Y-73729400D01*
X170625939Y-73729400D02*
X170483081Y-73800828D01*
X170483081Y-73800828D02*
X170125939Y-73800828D01*
X170125939Y-73800828D02*
X169983081Y-73729400D01*
X169983081Y-73729400D02*
X169911653Y-73657971D01*
X172268795Y-73657971D02*
X172197367Y-73729400D01*
X172197367Y-73729400D02*
X171983081Y-73800828D01*
X171983081Y-73800828D02*
X171840224Y-73800828D01*
X171840224Y-73800828D02*
X171625938Y-73729400D01*
X171625938Y-73729400D02*
X171483081Y-73586542D01*
X171483081Y-73586542D02*
X171411652Y-73443685D01*
X171411652Y-73443685D02*
X171340224Y-73157971D01*
X171340224Y-73157971D02*
X171340224Y-72943685D01*
X171340224Y-72943685D02*
X171411652Y-72657971D01*
X171411652Y-72657971D02*
X171483081Y-72515114D01*
X171483081Y-72515114D02*
X171625938Y-72372257D01*
X171625938Y-72372257D02*
X171840224Y-72300828D01*
X171840224Y-72300828D02*
X171983081Y-72300828D01*
X171983081Y-72300828D02*
X172197367Y-72372257D01*
X172197367Y-72372257D02*
X172268795Y-72443685D01*
X173197367Y-72300828D02*
X173340224Y-72300828D01*
X173340224Y-72300828D02*
X173483081Y-72372257D01*
X173483081Y-72372257D02*
X173554510Y-72443685D01*
X173554510Y-72443685D02*
X173625938Y-72586542D01*
X173625938Y-72586542D02*
X173697367Y-72872257D01*
X173697367Y-72872257D02*
X173697367Y-73229400D01*
X173697367Y-73229400D02*
X173625938Y-73515114D01*
X173625938Y-73515114D02*
X173554510Y-73657971D01*
X173554510Y-73657971D02*
X173483081Y-73729400D01*
X173483081Y-73729400D02*
X173340224Y-73800828D01*
X173340224Y-73800828D02*
X173197367Y-73800828D01*
X173197367Y-73800828D02*
X173054510Y-73729400D01*
X173054510Y-73729400D02*
X172983081Y-73657971D01*
X172983081Y-73657971D02*
X172911652Y-73515114D01*
X172911652Y-73515114D02*
X172840224Y-73229400D01*
X172840224Y-73229400D02*
X172840224Y-72872257D01*
X172840224Y-72872257D02*
X172911652Y-72586542D01*
X172911652Y-72586542D02*
X172983081Y-72443685D01*
X172983081Y-72443685D02*
X173054510Y-72372257D01*
X173054510Y-72372257D02*
X173197367Y-72300828D01*
X174268795Y-72443685D02*
X174340223Y-72372257D01*
X174340223Y-72372257D02*
X174483081Y-72300828D01*
X174483081Y-72300828D02*
X174840223Y-72300828D01*
X174840223Y-72300828D02*
X174983081Y-72372257D01*
X174983081Y-72372257D02*
X175054509Y-72443685D01*
X175054509Y-72443685D02*
X175125938Y-72586542D01*
X175125938Y-72586542D02*
X175125938Y-72729400D01*
X175125938Y-72729400D02*
X175054509Y-72943685D01*
X175054509Y-72943685D02*
X174197366Y-73800828D01*
X174197366Y-73800828D02*
X175125938Y-73800828D01*
X177768794Y-73657971D02*
X177697366Y-73729400D01*
X177697366Y-73729400D02*
X177483080Y-73800828D01*
X177483080Y-73800828D02*
X177340223Y-73800828D01*
X177340223Y-73800828D02*
X177125937Y-73729400D01*
X177125937Y-73729400D02*
X176983080Y-73586542D01*
X176983080Y-73586542D02*
X176911651Y-73443685D01*
X176911651Y-73443685D02*
X176840223Y-73157971D01*
X176840223Y-73157971D02*
X176840223Y-72943685D01*
X176840223Y-72943685D02*
X176911651Y-72657971D01*
X176911651Y-72657971D02*
X176983080Y-72515114D01*
X176983080Y-72515114D02*
X177125937Y-72372257D01*
X177125937Y-72372257D02*
X177340223Y-72300828D01*
X177340223Y-72300828D02*
X177483080Y-72300828D01*
X177483080Y-72300828D02*
X177697366Y-72372257D01*
X177697366Y-72372257D02*
X177768794Y-72443685D01*
X178411651Y-73800828D02*
X178411651Y-72300828D01*
X178411651Y-72300828D02*
X178983080Y-72300828D01*
X178983080Y-72300828D02*
X179125937Y-72372257D01*
X179125937Y-72372257D02*
X179197366Y-72443685D01*
X179197366Y-72443685D02*
X179268794Y-72586542D01*
X179268794Y-72586542D02*
X179268794Y-72800828D01*
X179268794Y-72800828D02*
X179197366Y-72943685D01*
X179197366Y-72943685D02*
X179125937Y-73015114D01*
X179125937Y-73015114D02*
X178983080Y-73086542D01*
X178983080Y-73086542D02*
X178411651Y-73086542D01*
X179911651Y-72300828D02*
X179911651Y-73515114D01*
X179911651Y-73515114D02*
X179983080Y-73657971D01*
X179983080Y-73657971D02*
X180054509Y-73729400D01*
X180054509Y-73729400D02*
X180197366Y-73800828D01*
X180197366Y-73800828D02*
X180483080Y-73800828D01*
X180483080Y-73800828D02*
X180625937Y-73729400D01*
X180625937Y-73729400D02*
X180697366Y-73657971D01*
X180697366Y-73657971D02*
X180768794Y-73515114D01*
X180768794Y-73515114D02*
X180768794Y-72300828D01*
D13*
X85973996Y-124864619D02*
X85640663Y-124388428D01*
X85402568Y-124864619D02*
X85402568Y-123864619D01*
X85402568Y-123864619D02*
X85783520Y-123864619D01*
X85783520Y-123864619D02*
X85878758Y-123912238D01*
X85878758Y-123912238D02*
X85926377Y-123959857D01*
X85926377Y-123959857D02*
X85973996Y-124055095D01*
X85973996Y-124055095D02*
X85973996Y-124197952D01*
X85973996Y-124197952D02*
X85926377Y-124293190D01*
X85926377Y-124293190D02*
X85878758Y-124340809D01*
X85878758Y-124340809D02*
X85783520Y-124388428D01*
X85783520Y-124388428D02*
X85402568Y-124388428D01*
X86354949Y-124817000D02*
X86497806Y-124864619D01*
X86497806Y-124864619D02*
X86735901Y-124864619D01*
X86735901Y-124864619D02*
X86831139Y-124817000D01*
X86831139Y-124817000D02*
X86878758Y-124769380D01*
X86878758Y-124769380D02*
X86926377Y-124674142D01*
X86926377Y-124674142D02*
X86926377Y-124578904D01*
X86926377Y-124578904D02*
X86878758Y-124483666D01*
X86878758Y-124483666D02*
X86831139Y-124436047D01*
X86831139Y-124436047D02*
X86735901Y-124388428D01*
X86735901Y-124388428D02*
X86545425Y-124340809D01*
X86545425Y-124340809D02*
X86450187Y-124293190D01*
X86450187Y-124293190D02*
X86402568Y-124245571D01*
X86402568Y-124245571D02*
X86354949Y-124150333D01*
X86354949Y-124150333D02*
X86354949Y-124055095D01*
X86354949Y-124055095D02*
X86402568Y-123959857D01*
X86402568Y-123959857D02*
X86450187Y-123912238D01*
X86450187Y-123912238D02*
X86545425Y-123864619D01*
X86545425Y-123864619D02*
X86783520Y-123864619D01*
X86783520Y-123864619D02*
X86926377Y-123912238D01*
X87354949Y-124483666D02*
X88116854Y-124483666D01*
X88545425Y-123959857D02*
X88593044Y-123912238D01*
X88593044Y-123912238D02*
X88688282Y-123864619D01*
X88688282Y-123864619D02*
X88926377Y-123864619D01*
X88926377Y-123864619D02*
X89021615Y-123912238D01*
X89021615Y-123912238D02*
X89069234Y-123959857D01*
X89069234Y-123959857D02*
X89116853Y-124055095D01*
X89116853Y-124055095D02*
X89116853Y-124150333D01*
X89116853Y-124150333D02*
X89069234Y-124293190D01*
X89069234Y-124293190D02*
X88497806Y-124864619D01*
X88497806Y-124864619D02*
X89116853Y-124864619D01*
X89450187Y-123864619D02*
X90069234Y-123864619D01*
X90069234Y-123864619D02*
X89735901Y-124245571D01*
X89735901Y-124245571D02*
X89878758Y-124245571D01*
X89878758Y-124245571D02*
X89973996Y-124293190D01*
X89973996Y-124293190D02*
X90021615Y-124340809D01*
X90021615Y-124340809D02*
X90069234Y-124436047D01*
X90069234Y-124436047D02*
X90069234Y-124674142D01*
X90069234Y-124674142D02*
X90021615Y-124769380D01*
X90021615Y-124769380D02*
X89973996Y-124817000D01*
X89973996Y-124817000D02*
X89878758Y-124864619D01*
X89878758Y-124864619D02*
X89593044Y-124864619D01*
X89593044Y-124864619D02*
X89497806Y-124817000D01*
X89497806Y-124817000D02*
X89450187Y-124769380D01*
X90450187Y-123959857D02*
X90497806Y-123912238D01*
X90497806Y-123912238D02*
X90593044Y-123864619D01*
X90593044Y-123864619D02*
X90831139Y-123864619D01*
X90831139Y-123864619D02*
X90926377Y-123912238D01*
X90926377Y-123912238D02*
X90973996Y-123959857D01*
X90973996Y-123959857D02*
X91021615Y-124055095D01*
X91021615Y-124055095D02*
X91021615Y-124150333D01*
X91021615Y-124150333D02*
X90973996Y-124293190D01*
X90973996Y-124293190D02*
X90402568Y-124864619D01*
X90402568Y-124864619D02*
X91021615Y-124864619D01*
D15*
X160966212Y-30592345D02*
X161042402Y-30592345D01*
X161042402Y-30592345D02*
X161118593Y-30630440D01*
X161118593Y-30630440D02*
X161156688Y-30668535D01*
X161156688Y-30668535D02*
X161194783Y-30744726D01*
X161194783Y-30744726D02*
X161232878Y-30897107D01*
X161232878Y-30897107D02*
X161232878Y-31087583D01*
X161232878Y-31087583D02*
X161194783Y-31239964D01*
X161194783Y-31239964D02*
X161156688Y-31316154D01*
X161156688Y-31316154D02*
X161118593Y-31354250D01*
X161118593Y-31354250D02*
X161042402Y-31392345D01*
X161042402Y-31392345D02*
X160966212Y-31392345D01*
X160966212Y-31392345D02*
X160890021Y-31354250D01*
X160890021Y-31354250D02*
X160851926Y-31316154D01*
X160851926Y-31316154D02*
X160813831Y-31239964D01*
X160813831Y-31239964D02*
X160775735Y-31087583D01*
X160775735Y-31087583D02*
X160775735Y-30897107D01*
X160775735Y-30897107D02*
X160813831Y-30744726D01*
X160813831Y-30744726D02*
X160851926Y-30668535D01*
X160851926Y-30668535D02*
X160890021Y-30630440D01*
X160890021Y-30630440D02*
X160966212Y-30592345D01*
X161690021Y-30935202D02*
X161613831Y-30897107D01*
X161613831Y-30897107D02*
X161575736Y-30859011D01*
X161575736Y-30859011D02*
X161537640Y-30782821D01*
X161537640Y-30782821D02*
X161537640Y-30744726D01*
X161537640Y-30744726D02*
X161575736Y-30668535D01*
X161575736Y-30668535D02*
X161613831Y-30630440D01*
X161613831Y-30630440D02*
X161690021Y-30592345D01*
X161690021Y-30592345D02*
X161842402Y-30592345D01*
X161842402Y-30592345D02*
X161918593Y-30630440D01*
X161918593Y-30630440D02*
X161956688Y-30668535D01*
X161956688Y-30668535D02*
X161994783Y-30744726D01*
X161994783Y-30744726D02*
X161994783Y-30782821D01*
X161994783Y-30782821D02*
X161956688Y-30859011D01*
X161956688Y-30859011D02*
X161918593Y-30897107D01*
X161918593Y-30897107D02*
X161842402Y-30935202D01*
X161842402Y-30935202D02*
X161690021Y-30935202D01*
X161690021Y-30935202D02*
X161613831Y-30973297D01*
X161613831Y-30973297D02*
X161575736Y-31011392D01*
X161575736Y-31011392D02*
X161537640Y-31087583D01*
X161537640Y-31087583D02*
X161537640Y-31239964D01*
X161537640Y-31239964D02*
X161575736Y-31316154D01*
X161575736Y-31316154D02*
X161613831Y-31354250D01*
X161613831Y-31354250D02*
X161690021Y-31392345D01*
X161690021Y-31392345D02*
X161842402Y-31392345D01*
X161842402Y-31392345D02*
X161918593Y-31354250D01*
X161918593Y-31354250D02*
X161956688Y-31316154D01*
X161956688Y-31316154D02*
X161994783Y-31239964D01*
X161994783Y-31239964D02*
X161994783Y-31087583D01*
X161994783Y-31087583D02*
X161956688Y-31011392D01*
X161956688Y-31011392D02*
X161918593Y-30973297D01*
X161918593Y-30973297D02*
X161842402Y-30935202D01*
X162909069Y-30554250D02*
X162223355Y-31582821D01*
X163137640Y-30668535D02*
X163175736Y-30630440D01*
X163175736Y-30630440D02*
X163251926Y-30592345D01*
X163251926Y-30592345D02*
X163442402Y-30592345D01*
X163442402Y-30592345D02*
X163518593Y-30630440D01*
X163518593Y-30630440D02*
X163556688Y-30668535D01*
X163556688Y-30668535D02*
X163594783Y-30744726D01*
X163594783Y-30744726D02*
X163594783Y-30820916D01*
X163594783Y-30820916D02*
X163556688Y-30935202D01*
X163556688Y-30935202D02*
X163099545Y-31392345D01*
X163099545Y-31392345D02*
X163594783Y-31392345D01*
X164090022Y-30592345D02*
X164166212Y-30592345D01*
X164166212Y-30592345D02*
X164242403Y-30630440D01*
X164242403Y-30630440D02*
X164280498Y-30668535D01*
X164280498Y-30668535D02*
X164318593Y-30744726D01*
X164318593Y-30744726D02*
X164356688Y-30897107D01*
X164356688Y-30897107D02*
X164356688Y-31087583D01*
X164356688Y-31087583D02*
X164318593Y-31239964D01*
X164318593Y-31239964D02*
X164280498Y-31316154D01*
X164280498Y-31316154D02*
X164242403Y-31354250D01*
X164242403Y-31354250D02*
X164166212Y-31392345D01*
X164166212Y-31392345D02*
X164090022Y-31392345D01*
X164090022Y-31392345D02*
X164013831Y-31354250D01*
X164013831Y-31354250D02*
X163975736Y-31316154D01*
X163975736Y-31316154D02*
X163937641Y-31239964D01*
X163937641Y-31239964D02*
X163899545Y-31087583D01*
X163899545Y-31087583D02*
X163899545Y-30897107D01*
X163899545Y-30897107D02*
X163937641Y-30744726D01*
X163937641Y-30744726D02*
X163975736Y-30668535D01*
X163975736Y-30668535D02*
X164013831Y-30630440D01*
X164013831Y-30630440D02*
X164090022Y-30592345D01*
X164661450Y-30668535D02*
X164699546Y-30630440D01*
X164699546Y-30630440D02*
X164775736Y-30592345D01*
X164775736Y-30592345D02*
X164966212Y-30592345D01*
X164966212Y-30592345D02*
X165042403Y-30630440D01*
X165042403Y-30630440D02*
X165080498Y-30668535D01*
X165080498Y-30668535D02*
X165118593Y-30744726D01*
X165118593Y-30744726D02*
X165118593Y-30820916D01*
X165118593Y-30820916D02*
X165080498Y-30935202D01*
X165080498Y-30935202D02*
X164623355Y-31392345D01*
X164623355Y-31392345D02*
X165118593Y-31392345D01*
X165804308Y-30859011D02*
X165804308Y-31392345D01*
X165613832Y-30554250D02*
X165423355Y-31125678D01*
X165423355Y-31125678D02*
X165918594Y-31125678D01*
D11*
X74640225Y-43300828D02*
X74925939Y-43300828D01*
X74925939Y-43300828D02*
X75068796Y-43372257D01*
X75068796Y-43372257D02*
X75211653Y-43515114D01*
X75211653Y-43515114D02*
X75283082Y-43800828D01*
X75283082Y-43800828D02*
X75283082Y-44300828D01*
X75283082Y-44300828D02*
X75211653Y-44586542D01*
X75211653Y-44586542D02*
X75068796Y-44729400D01*
X75068796Y-44729400D02*
X74925939Y-44800828D01*
X74925939Y-44800828D02*
X74640225Y-44800828D01*
X74640225Y-44800828D02*
X74497368Y-44729400D01*
X74497368Y-44729400D02*
X74354510Y-44586542D01*
X74354510Y-44586542D02*
X74283082Y-44300828D01*
X74283082Y-44300828D02*
X74283082Y-43800828D01*
X74283082Y-43800828D02*
X74354510Y-43515114D01*
X74354510Y-43515114D02*
X74497368Y-43372257D01*
X74497368Y-43372257D02*
X74640225Y-43300828D01*
X75925939Y-44800828D02*
X75925939Y-43300828D01*
X75925939Y-43300828D02*
X76783082Y-44800828D01*
X76783082Y-44800828D02*
X76783082Y-43300828D01*
X78997368Y-45300828D02*
X78997368Y-43157971D01*
X81497368Y-43300828D02*
X81783082Y-43300828D01*
X81783082Y-43300828D02*
X81925939Y-43372257D01*
X81925939Y-43372257D02*
X82068796Y-43515114D01*
X82068796Y-43515114D02*
X82140225Y-43800828D01*
X82140225Y-43800828D02*
X82140225Y-44300828D01*
X82140225Y-44300828D02*
X82068796Y-44586542D01*
X82068796Y-44586542D02*
X81925939Y-44729400D01*
X81925939Y-44729400D02*
X81783082Y-44800828D01*
X81783082Y-44800828D02*
X81497368Y-44800828D01*
X81497368Y-44800828D02*
X81354511Y-44729400D01*
X81354511Y-44729400D02*
X81211653Y-44586542D01*
X81211653Y-44586542D02*
X81140225Y-44300828D01*
X81140225Y-44300828D02*
X81140225Y-43800828D01*
X81140225Y-43800828D02*
X81211653Y-43515114D01*
X81211653Y-43515114D02*
X81354511Y-43372257D01*
X81354511Y-43372257D02*
X81497368Y-43300828D01*
X83283082Y-44015114D02*
X82783082Y-44015114D01*
X82783082Y-44800828D02*
X82783082Y-43300828D01*
X82783082Y-43300828D02*
X83497368Y-43300828D01*
X84568796Y-44015114D02*
X84068796Y-44015114D01*
X84068796Y-44800828D02*
X84068796Y-43300828D01*
X84068796Y-43300828D02*
X84783082Y-43300828D01*
X107582368Y-105300828D02*
X107296653Y-105300828D01*
X107296653Y-105300828D02*
X107153796Y-105372257D01*
X107153796Y-105372257D02*
X107082368Y-105443685D01*
X107082368Y-105443685D02*
X106939510Y-105657971D01*
X106939510Y-105657971D02*
X106868082Y-105943685D01*
X106868082Y-105943685D02*
X106868082Y-106515114D01*
X106868082Y-106515114D02*
X106939510Y-106657971D01*
X106939510Y-106657971D02*
X107010939Y-106729400D01*
X107010939Y-106729400D02*
X107153796Y-106800828D01*
X107153796Y-106800828D02*
X107439510Y-106800828D01*
X107439510Y-106800828D02*
X107582368Y-106729400D01*
X107582368Y-106729400D02*
X107653796Y-106657971D01*
X107653796Y-106657971D02*
X107725225Y-106515114D01*
X107725225Y-106515114D02*
X107725225Y-106157971D01*
X107725225Y-106157971D02*
X107653796Y-106015114D01*
X107653796Y-106015114D02*
X107582368Y-105943685D01*
X107582368Y-105943685D02*
X107439510Y-105872257D01*
X107439510Y-105872257D02*
X107153796Y-105872257D01*
X107153796Y-105872257D02*
X107010939Y-105943685D01*
X107010939Y-105943685D02*
X106939510Y-106015114D01*
X106939510Y-106015114D02*
X106868082Y-106157971D01*
X109082367Y-105300828D02*
X108368081Y-105300828D01*
X108368081Y-105300828D02*
X108296653Y-106015114D01*
X108296653Y-106015114D02*
X108368081Y-105943685D01*
X108368081Y-105943685D02*
X108510939Y-105872257D01*
X108510939Y-105872257D02*
X108868081Y-105872257D01*
X108868081Y-105872257D02*
X109010939Y-105943685D01*
X109010939Y-105943685D02*
X109082367Y-106015114D01*
X109082367Y-106015114D02*
X109153796Y-106157971D01*
X109153796Y-106157971D02*
X109153796Y-106515114D01*
X109153796Y-106515114D02*
X109082367Y-106657971D01*
X109082367Y-106657971D02*
X109010939Y-106729400D01*
X109010939Y-106729400D02*
X108868081Y-106800828D01*
X108868081Y-106800828D02*
X108510939Y-106800828D01*
X108510939Y-106800828D02*
X108368081Y-106729400D01*
X108368081Y-106729400D02*
X108296653Y-106657971D01*
X110653795Y-106657971D02*
X110582367Y-106729400D01*
X110582367Y-106729400D02*
X110368081Y-106800828D01*
X110368081Y-106800828D02*
X110225224Y-106800828D01*
X110225224Y-106800828D02*
X110010938Y-106729400D01*
X110010938Y-106729400D02*
X109868081Y-106586542D01*
X109868081Y-106586542D02*
X109796652Y-106443685D01*
X109796652Y-106443685D02*
X109725224Y-106157971D01*
X109725224Y-106157971D02*
X109725224Y-105943685D01*
X109725224Y-105943685D02*
X109796652Y-105657971D01*
X109796652Y-105657971D02*
X109868081Y-105515114D01*
X109868081Y-105515114D02*
X110010938Y-105372257D01*
X110010938Y-105372257D02*
X110225224Y-105300828D01*
X110225224Y-105300828D02*
X110368081Y-105300828D01*
X110368081Y-105300828D02*
X110582367Y-105372257D01*
X110582367Y-105372257D02*
X110653795Y-105443685D01*
X112010938Y-105300828D02*
X111296652Y-105300828D01*
X111296652Y-105300828D02*
X111225224Y-106015114D01*
X111225224Y-106015114D02*
X111296652Y-105943685D01*
X111296652Y-105943685D02*
X111439510Y-105872257D01*
X111439510Y-105872257D02*
X111796652Y-105872257D01*
X111796652Y-105872257D02*
X111939510Y-105943685D01*
X111939510Y-105943685D02*
X112010938Y-106015114D01*
X112010938Y-106015114D02*
X112082367Y-106157971D01*
X112082367Y-106157971D02*
X112082367Y-106515114D01*
X112082367Y-106515114D02*
X112010938Y-106657971D01*
X112010938Y-106657971D02*
X111939510Y-106729400D01*
X111939510Y-106729400D02*
X111796652Y-106800828D01*
X111796652Y-106800828D02*
X111439510Y-106800828D01*
X111439510Y-106800828D02*
X111296652Y-106729400D01*
X111296652Y-106729400D02*
X111225224Y-106657971D01*
X113510938Y-106800828D02*
X112653795Y-106800828D01*
X113082366Y-106800828D02*
X113082366Y-105300828D01*
X113082366Y-105300828D02*
X112939509Y-105515114D01*
X112939509Y-105515114D02*
X112796652Y-105657971D01*
X112796652Y-105657971D02*
X112653795Y-105729400D01*
X115225223Y-106372257D02*
X115939509Y-106372257D01*
X115082366Y-106800828D02*
X115582366Y-105300828D01*
X115582366Y-105300828D02*
X116082366Y-106800828D01*
X117439508Y-106657971D02*
X117368080Y-106729400D01*
X117368080Y-106729400D02*
X117153794Y-106800828D01*
X117153794Y-106800828D02*
X117010937Y-106800828D01*
X117010937Y-106800828D02*
X116796651Y-106729400D01*
X116796651Y-106729400D02*
X116653794Y-106586542D01*
X116653794Y-106586542D02*
X116582365Y-106443685D01*
X116582365Y-106443685D02*
X116510937Y-106157971D01*
X116510937Y-106157971D02*
X116510937Y-105943685D01*
X116510937Y-105943685D02*
X116582365Y-105657971D01*
X116582365Y-105657971D02*
X116653794Y-105515114D01*
X116653794Y-105515114D02*
X116796651Y-105372257D01*
X116796651Y-105372257D02*
X117010937Y-105300828D01*
X117010937Y-105300828D02*
X117153794Y-105300828D01*
X117153794Y-105300828D02*
X117368080Y-105372257D01*
X117368080Y-105372257D02*
X117439508Y-105443685D01*
X118082365Y-106800828D02*
X118082365Y-105300828D01*
X118725223Y-106372257D02*
X119439509Y-106372257D01*
X118582366Y-106800828D02*
X119082366Y-105300828D01*
X119082366Y-105300828D02*
X119582366Y-106800828D01*
D12*
X71567950Y-116819404D02*
X71539378Y-116857500D01*
X71539378Y-116857500D02*
X71453664Y-116895595D01*
X71453664Y-116895595D02*
X71396521Y-116895595D01*
X71396521Y-116895595D02*
X71310807Y-116857500D01*
X71310807Y-116857500D02*
X71253664Y-116781309D01*
X71253664Y-116781309D02*
X71225093Y-116705119D01*
X71225093Y-116705119D02*
X71196521Y-116552738D01*
X71196521Y-116552738D02*
X71196521Y-116438452D01*
X71196521Y-116438452D02*
X71225093Y-116286071D01*
X71225093Y-116286071D02*
X71253664Y-116209880D01*
X71253664Y-116209880D02*
X71310807Y-116133690D01*
X71310807Y-116133690D02*
X71396521Y-116095595D01*
X71396521Y-116095595D02*
X71453664Y-116095595D01*
X71453664Y-116095595D02*
X71539378Y-116133690D01*
X71539378Y-116133690D02*
X71567950Y-116171785D01*
X72110807Y-116895595D02*
X71825093Y-116895595D01*
X71825093Y-116895595D02*
X71825093Y-116095595D01*
X72310807Y-116895595D02*
X72310807Y-116095595D01*
X72653664Y-116895595D02*
X72396521Y-116438452D01*
X72653664Y-116095595D02*
X72310807Y-116552738D01*
D13*
X96831139Y-110864619D02*
X96640663Y-110864619D01*
X96640663Y-110864619D02*
X96545425Y-110912238D01*
X96545425Y-110912238D02*
X96497806Y-110959857D01*
X96497806Y-110959857D02*
X96402568Y-111102714D01*
X96402568Y-111102714D02*
X96354949Y-111293190D01*
X96354949Y-111293190D02*
X96354949Y-111674142D01*
X96354949Y-111674142D02*
X96402568Y-111769380D01*
X96402568Y-111769380D02*
X96450187Y-111817000D01*
X96450187Y-111817000D02*
X96545425Y-111864619D01*
X96545425Y-111864619D02*
X96735901Y-111864619D01*
X96735901Y-111864619D02*
X96831139Y-111817000D01*
X96831139Y-111817000D02*
X96878758Y-111769380D01*
X96878758Y-111769380D02*
X96926377Y-111674142D01*
X96926377Y-111674142D02*
X96926377Y-111436047D01*
X96926377Y-111436047D02*
X96878758Y-111340809D01*
X96878758Y-111340809D02*
X96831139Y-111293190D01*
X96831139Y-111293190D02*
X96735901Y-111245571D01*
X96735901Y-111245571D02*
X96545425Y-111245571D01*
X96545425Y-111245571D02*
X96450187Y-111293190D01*
X96450187Y-111293190D02*
X96402568Y-111340809D01*
X96402568Y-111340809D02*
X96354949Y-111436047D01*
X97831139Y-110864619D02*
X97354949Y-110864619D01*
X97354949Y-110864619D02*
X97307330Y-111340809D01*
X97307330Y-111340809D02*
X97354949Y-111293190D01*
X97354949Y-111293190D02*
X97450187Y-111245571D01*
X97450187Y-111245571D02*
X97688282Y-111245571D01*
X97688282Y-111245571D02*
X97783520Y-111293190D01*
X97783520Y-111293190D02*
X97831139Y-111340809D01*
X97831139Y-111340809D02*
X97878758Y-111436047D01*
X97878758Y-111436047D02*
X97878758Y-111674142D01*
X97878758Y-111674142D02*
X97831139Y-111769380D01*
X97831139Y-111769380D02*
X97783520Y-111817000D01*
X97783520Y-111817000D02*
X97688282Y-111864619D01*
X97688282Y-111864619D02*
X97450187Y-111864619D01*
X97450187Y-111864619D02*
X97354949Y-111817000D01*
X97354949Y-111817000D02*
X97307330Y-111769380D01*
X98878758Y-111769380D02*
X98831139Y-111817000D01*
X98831139Y-111817000D02*
X98688282Y-111864619D01*
X98688282Y-111864619D02*
X98593044Y-111864619D01*
X98593044Y-111864619D02*
X98450187Y-111817000D01*
X98450187Y-111817000D02*
X98354949Y-111721761D01*
X98354949Y-111721761D02*
X98307330Y-111626523D01*
X98307330Y-111626523D02*
X98259711Y-111436047D01*
X98259711Y-111436047D02*
X98259711Y-111293190D01*
X98259711Y-111293190D02*
X98307330Y-111102714D01*
X98307330Y-111102714D02*
X98354949Y-111007476D01*
X98354949Y-111007476D02*
X98450187Y-110912238D01*
X98450187Y-110912238D02*
X98593044Y-110864619D01*
X98593044Y-110864619D02*
X98688282Y-110864619D01*
X98688282Y-110864619D02*
X98831139Y-110912238D01*
X98831139Y-110912238D02*
X98878758Y-110959857D01*
X99497806Y-110864619D02*
X99593044Y-110864619D01*
X99593044Y-110864619D02*
X99688282Y-110912238D01*
X99688282Y-110912238D02*
X99735901Y-110959857D01*
X99735901Y-110959857D02*
X99783520Y-111055095D01*
X99783520Y-111055095D02*
X99831139Y-111245571D01*
X99831139Y-111245571D02*
X99831139Y-111483666D01*
X99831139Y-111483666D02*
X99783520Y-111674142D01*
X99783520Y-111674142D02*
X99735901Y-111769380D01*
X99735901Y-111769380D02*
X99688282Y-111817000D01*
X99688282Y-111817000D02*
X99593044Y-111864619D01*
X99593044Y-111864619D02*
X99497806Y-111864619D01*
X99497806Y-111864619D02*
X99402568Y-111817000D01*
X99402568Y-111817000D02*
X99354949Y-111769380D01*
X99354949Y-111769380D02*
X99307330Y-111674142D01*
X99307330Y-111674142D02*
X99259711Y-111483666D01*
X99259711Y-111483666D02*
X99259711Y-111245571D01*
X99259711Y-111245571D02*
X99307330Y-111055095D01*
X99307330Y-111055095D02*
X99354949Y-110959857D01*
X99354949Y-110959857D02*
X99402568Y-110912238D01*
X99402568Y-110912238D02*
X99497806Y-110864619D01*
X100212092Y-110959857D02*
X100259711Y-110912238D01*
X100259711Y-110912238D02*
X100354949Y-110864619D01*
X100354949Y-110864619D02*
X100593044Y-110864619D01*
X100593044Y-110864619D02*
X100688282Y-110912238D01*
X100688282Y-110912238D02*
X100735901Y-110959857D01*
X100735901Y-110959857D02*
X100783520Y-111055095D01*
X100783520Y-111055095D02*
X100783520Y-111150333D01*
X100783520Y-111150333D02*
X100735901Y-111293190D01*
X100735901Y-111293190D02*
X100164473Y-111864619D01*
X100164473Y-111864619D02*
X100783520Y-111864619D01*
X101973997Y-111864619D02*
X101973997Y-110864619D01*
X101973997Y-110864619D02*
X102212092Y-110864619D01*
X102212092Y-110864619D02*
X102354949Y-110912238D01*
X102354949Y-110912238D02*
X102450187Y-111007476D01*
X102450187Y-111007476D02*
X102497806Y-111102714D01*
X102497806Y-111102714D02*
X102545425Y-111293190D01*
X102545425Y-111293190D02*
X102545425Y-111436047D01*
X102545425Y-111436047D02*
X102497806Y-111626523D01*
X102497806Y-111626523D02*
X102450187Y-111721761D01*
X102450187Y-111721761D02*
X102354949Y-111817000D01*
X102354949Y-111817000D02*
X102212092Y-111864619D01*
X102212092Y-111864619D02*
X101973997Y-111864619D01*
X102973997Y-111340809D02*
X103307330Y-111340809D01*
X103450187Y-111864619D02*
X102973997Y-111864619D01*
X102973997Y-111864619D02*
X102973997Y-110864619D01*
X102973997Y-110864619D02*
X103450187Y-110864619D01*
X104212092Y-111340809D02*
X104354949Y-111388428D01*
X104354949Y-111388428D02*
X104402568Y-111436047D01*
X104402568Y-111436047D02*
X104450187Y-111531285D01*
X104450187Y-111531285D02*
X104450187Y-111674142D01*
X104450187Y-111674142D02*
X104402568Y-111769380D01*
X104402568Y-111769380D02*
X104354949Y-111817000D01*
X104354949Y-111817000D02*
X104259711Y-111864619D01*
X104259711Y-111864619D02*
X103878759Y-111864619D01*
X103878759Y-111864619D02*
X103878759Y-110864619D01*
X103878759Y-110864619D02*
X104212092Y-110864619D01*
X104212092Y-110864619D02*
X104307330Y-110912238D01*
X104307330Y-110912238D02*
X104354949Y-110959857D01*
X104354949Y-110959857D02*
X104402568Y-111055095D01*
X104402568Y-111055095D02*
X104402568Y-111150333D01*
X104402568Y-111150333D02*
X104354949Y-111245571D01*
X104354949Y-111245571D02*
X104307330Y-111293190D01*
X104307330Y-111293190D02*
X104212092Y-111340809D01*
X104212092Y-111340809D02*
X103878759Y-111340809D01*
X104878759Y-110864619D02*
X104878759Y-111674142D01*
X104878759Y-111674142D02*
X104926378Y-111769380D01*
X104926378Y-111769380D02*
X104973997Y-111817000D01*
X104973997Y-111817000D02*
X105069235Y-111864619D01*
X105069235Y-111864619D02*
X105259711Y-111864619D01*
X105259711Y-111864619D02*
X105354949Y-111817000D01*
X105354949Y-111817000D02*
X105402568Y-111769380D01*
X105402568Y-111769380D02*
X105450187Y-111674142D01*
X105450187Y-111674142D02*
X105450187Y-110864619D01*
X106450187Y-110912238D02*
X106354949Y-110864619D01*
X106354949Y-110864619D02*
X106212092Y-110864619D01*
X106212092Y-110864619D02*
X106069235Y-110912238D01*
X106069235Y-110912238D02*
X105973997Y-111007476D01*
X105973997Y-111007476D02*
X105926378Y-111102714D01*
X105926378Y-111102714D02*
X105878759Y-111293190D01*
X105878759Y-111293190D02*
X105878759Y-111436047D01*
X105878759Y-111436047D02*
X105926378Y-111626523D01*
X105926378Y-111626523D02*
X105973997Y-111721761D01*
X105973997Y-111721761D02*
X106069235Y-111817000D01*
X106069235Y-111817000D02*
X106212092Y-111864619D01*
X106212092Y-111864619D02*
X106307330Y-111864619D01*
X106307330Y-111864619D02*
X106450187Y-111817000D01*
X106450187Y-111817000D02*
X106497806Y-111769380D01*
X106497806Y-111769380D02*
X106497806Y-111436047D01*
X106497806Y-111436047D02*
X106307330Y-111436047D01*
X107688283Y-111864619D02*
X107688283Y-110864619D01*
X107688283Y-110864619D02*
X108069235Y-110864619D01*
X108069235Y-110864619D02*
X108164473Y-110912238D01*
X108164473Y-110912238D02*
X108212092Y-110959857D01*
X108212092Y-110959857D02*
X108259711Y-111055095D01*
X108259711Y-111055095D02*
X108259711Y-111197952D01*
X108259711Y-111197952D02*
X108212092Y-111293190D01*
X108212092Y-111293190D02*
X108164473Y-111340809D01*
X108164473Y-111340809D02*
X108069235Y-111388428D01*
X108069235Y-111388428D02*
X107688283Y-111388428D01*
X108878759Y-110864619D02*
X109069235Y-110864619D01*
X109069235Y-110864619D02*
X109164473Y-110912238D01*
X109164473Y-110912238D02*
X109259711Y-111007476D01*
X109259711Y-111007476D02*
X109307330Y-111197952D01*
X109307330Y-111197952D02*
X109307330Y-111531285D01*
X109307330Y-111531285D02*
X109259711Y-111721761D01*
X109259711Y-111721761D02*
X109164473Y-111817000D01*
X109164473Y-111817000D02*
X109069235Y-111864619D01*
X109069235Y-111864619D02*
X108878759Y-111864619D01*
X108878759Y-111864619D02*
X108783521Y-111817000D01*
X108783521Y-111817000D02*
X108688283Y-111721761D01*
X108688283Y-111721761D02*
X108640664Y-111531285D01*
X108640664Y-111531285D02*
X108640664Y-111197952D01*
X108640664Y-111197952D02*
X108688283Y-111007476D01*
X108688283Y-111007476D02*
X108783521Y-110912238D01*
X108783521Y-110912238D02*
X108878759Y-110864619D01*
X110307330Y-111864619D02*
X109973997Y-111388428D01*
X109735902Y-111864619D02*
X109735902Y-110864619D01*
X109735902Y-110864619D02*
X110116854Y-110864619D01*
X110116854Y-110864619D02*
X110212092Y-110912238D01*
X110212092Y-110912238D02*
X110259711Y-110959857D01*
X110259711Y-110959857D02*
X110307330Y-111055095D01*
X110307330Y-111055095D02*
X110307330Y-111197952D01*
X110307330Y-111197952D02*
X110259711Y-111293190D01*
X110259711Y-111293190D02*
X110212092Y-111340809D01*
X110212092Y-111340809D02*
X110116854Y-111388428D01*
X110116854Y-111388428D02*
X109735902Y-111388428D01*
X110593045Y-110864619D02*
X111164473Y-110864619D01*
X110878759Y-111864619D02*
X110878759Y-110864619D01*
D14*
X230916667Y-115157200D02*
X231059524Y-115204819D01*
X231059524Y-115204819D02*
X231297619Y-115204819D01*
X231297619Y-115204819D02*
X231392857Y-115157200D01*
X231392857Y-115157200D02*
X231440476Y-115109580D01*
X231440476Y-115109580D02*
X231488095Y-115014342D01*
X231488095Y-115014342D02*
X231488095Y-114919104D01*
X231488095Y-114919104D02*
X231440476Y-114823866D01*
X231440476Y-114823866D02*
X231392857Y-114776247D01*
X231392857Y-114776247D02*
X231297619Y-114728628D01*
X231297619Y-114728628D02*
X231107143Y-114681009D01*
X231107143Y-114681009D02*
X231011905Y-114633390D01*
X231011905Y-114633390D02*
X230964286Y-114585771D01*
X230964286Y-114585771D02*
X230916667Y-114490533D01*
X230916667Y-114490533D02*
X230916667Y-114395295D01*
X230916667Y-114395295D02*
X230964286Y-114300057D01*
X230964286Y-114300057D02*
X231011905Y-114252438D01*
X231011905Y-114252438D02*
X231107143Y-114204819D01*
X231107143Y-114204819D02*
X231345238Y-114204819D01*
X231345238Y-114204819D02*
X231488095Y-114252438D01*
X231821429Y-114204819D02*
X232059524Y-115204819D01*
X232059524Y-115204819D02*
X232250000Y-114490533D01*
X232250000Y-114490533D02*
X232440476Y-115204819D01*
X232440476Y-115204819D02*
X232678572Y-114204819D01*
X232964286Y-114204819D02*
X233583333Y-114204819D01*
X233583333Y-114204819D02*
X233250000Y-114585771D01*
X233250000Y-114585771D02*
X233392857Y-114585771D01*
X233392857Y-114585771D02*
X233488095Y-114633390D01*
X233488095Y-114633390D02*
X233535714Y-114681009D01*
X233535714Y-114681009D02*
X233583333Y-114776247D01*
X233583333Y-114776247D02*
X233583333Y-115014342D01*
X233583333Y-115014342D02*
X233535714Y-115109580D01*
X233535714Y-115109580D02*
X233488095Y-115157200D01*
X233488095Y-115157200D02*
X233392857Y-115204819D01*
X233392857Y-115204819D02*
X233107143Y-115204819D01*
X233107143Y-115204819D02*
X233011905Y-115157200D01*
X233011905Y-115157200D02*
X232964286Y-115109580D01*
X230178571Y-119431009D02*
X230511904Y-119431009D01*
X230654761Y-119954819D02*
X230178571Y-119954819D01*
X230178571Y-119954819D02*
X230178571Y-118954819D01*
X230178571Y-118954819D02*
X230654761Y-118954819D01*
X231083333Y-119954819D02*
X231083333Y-118954819D01*
X231083333Y-118954819D02*
X231654761Y-119954819D01*
X231654761Y-119954819D02*
X231654761Y-118954819D01*
X231988095Y-118954819D02*
X232559523Y-118954819D01*
X232273809Y-119954819D02*
X232273809Y-118954819D01*
X232892857Y-119431009D02*
X233226190Y-119431009D01*
X233369047Y-119954819D02*
X232892857Y-119954819D01*
X232892857Y-119954819D02*
X232892857Y-118954819D01*
X232892857Y-118954819D02*
X233369047Y-118954819D01*
X234369047Y-119954819D02*
X234035714Y-119478628D01*
X233797619Y-119954819D02*
X233797619Y-118954819D01*
X233797619Y-118954819D02*
X234178571Y-118954819D01*
X234178571Y-118954819D02*
X234273809Y-119002438D01*
X234273809Y-119002438D02*
X234321428Y-119050057D01*
X234321428Y-119050057D02*
X234369047Y-119145295D01*
X234369047Y-119145295D02*
X234369047Y-119288152D01*
X234369047Y-119288152D02*
X234321428Y-119383390D01*
X234321428Y-119383390D02*
X234273809Y-119431009D01*
X234273809Y-119431009D02*
X234178571Y-119478628D01*
X234178571Y-119478628D02*
X233797619Y-119478628D01*
X91309726Y-142423332D02*
X92216869Y-142423332D01*
X92216869Y-142423332D02*
X92398297Y-142483809D01*
X92398297Y-142483809D02*
X92519250Y-142604761D01*
X92519250Y-142604761D02*
X92579726Y-142786190D01*
X92579726Y-142786190D02*
X92579726Y-142907142D01*
X91733059Y-141274285D02*
X92579726Y-141274285D01*
X91249250Y-141576666D02*
X92156392Y-141879047D01*
X92156392Y-141879047D02*
X92156392Y-141092856D01*
X78208333Y-106084819D02*
X77875000Y-105608628D01*
X77636905Y-106084819D02*
X77636905Y-105084819D01*
X77636905Y-105084819D02*
X78017857Y-105084819D01*
X78017857Y-105084819D02*
X78113095Y-105132438D01*
X78113095Y-105132438D02*
X78160714Y-105180057D01*
X78160714Y-105180057D02*
X78208333Y-105275295D01*
X78208333Y-105275295D02*
X78208333Y-105418152D01*
X78208333Y-105418152D02*
X78160714Y-105513390D01*
X78160714Y-105513390D02*
X78113095Y-105561009D01*
X78113095Y-105561009D02*
X78017857Y-105608628D01*
X78017857Y-105608628D02*
X77636905Y-105608628D01*
X79065476Y-105084819D02*
X78875000Y-105084819D01*
X78875000Y-105084819D02*
X78779762Y-105132438D01*
X78779762Y-105132438D02*
X78732143Y-105180057D01*
X78732143Y-105180057D02*
X78636905Y-105322914D01*
X78636905Y-105322914D02*
X78589286Y-105513390D01*
X78589286Y-105513390D02*
X78589286Y-105894342D01*
X78589286Y-105894342D02*
X78636905Y-105989580D01*
X78636905Y-105989580D02*
X78684524Y-106037200D01*
X78684524Y-106037200D02*
X78779762Y-106084819D01*
X78779762Y-106084819D02*
X78970238Y-106084819D01*
X78970238Y-106084819D02*
X79065476Y-106037200D01*
X79065476Y-106037200D02*
X79113095Y-105989580D01*
X79113095Y-105989580D02*
X79160714Y-105894342D01*
X79160714Y-105894342D02*
X79160714Y-105656247D01*
X79160714Y-105656247D02*
X79113095Y-105561009D01*
X79113095Y-105561009D02*
X79065476Y-105513390D01*
X79065476Y-105513390D02*
X78970238Y-105465771D01*
X78970238Y-105465771D02*
X78779762Y-105465771D01*
X78779762Y-105465771D02*
X78684524Y-105513390D01*
X78684524Y-105513390D02*
X78636905Y-105561009D01*
X78636905Y-105561009D02*
X78589286Y-105656247D01*
X112618095Y-66599819D02*
X112618095Y-67409342D01*
X112618095Y-67409342D02*
X112665714Y-67504580D01*
X112665714Y-67504580D02*
X112713333Y-67552200D01*
X112713333Y-67552200D02*
X112808571Y-67599819D01*
X112808571Y-67599819D02*
X112999047Y-67599819D01*
X112999047Y-67599819D02*
X113094285Y-67552200D01*
X113094285Y-67552200D02*
X113141904Y-67504580D01*
X113141904Y-67504580D02*
X113189523Y-67409342D01*
X113189523Y-67409342D02*
X113189523Y-66599819D01*
X113570476Y-66599819D02*
X114237142Y-66599819D01*
X114237142Y-66599819D02*
X113808571Y-67599819D01*
X71689819Y-74571904D02*
X72499342Y-74571904D01*
X72499342Y-74571904D02*
X72594580Y-74524285D01*
X72594580Y-74524285D02*
X72642200Y-74476666D01*
X72642200Y-74476666D02*
X72689819Y-74381428D01*
X72689819Y-74381428D02*
X72689819Y-74190952D01*
X72689819Y-74190952D02*
X72642200Y-74095714D01*
X72642200Y-74095714D02*
X72594580Y-74048095D01*
X72594580Y-74048095D02*
X72499342Y-74000476D01*
X72499342Y-74000476D02*
X71689819Y-74000476D01*
X72118390Y-73381428D02*
X72070771Y-73476666D01*
X72070771Y-73476666D02*
X72023152Y-73524285D01*
X72023152Y-73524285D02*
X71927914Y-73571904D01*
X71927914Y-73571904D02*
X71880295Y-73571904D01*
X71880295Y-73571904D02*
X71785057Y-73524285D01*
X71785057Y-73524285D02*
X71737438Y-73476666D01*
X71737438Y-73476666D02*
X71689819Y-73381428D01*
X71689819Y-73381428D02*
X71689819Y-73190952D01*
X71689819Y-73190952D02*
X71737438Y-73095714D01*
X71737438Y-73095714D02*
X71785057Y-73048095D01*
X71785057Y-73048095D02*
X71880295Y-73000476D01*
X71880295Y-73000476D02*
X71927914Y-73000476D01*
X71927914Y-73000476D02*
X72023152Y-73048095D01*
X72023152Y-73048095D02*
X72070771Y-73095714D01*
X72070771Y-73095714D02*
X72118390Y-73190952D01*
X72118390Y-73190952D02*
X72118390Y-73381428D01*
X72118390Y-73381428D02*
X72166009Y-73476666D01*
X72166009Y-73476666D02*
X72213628Y-73524285D01*
X72213628Y-73524285D02*
X72308866Y-73571904D01*
X72308866Y-73571904D02*
X72499342Y-73571904D01*
X72499342Y-73571904D02*
X72594580Y-73524285D01*
X72594580Y-73524285D02*
X72642200Y-73476666D01*
X72642200Y-73476666D02*
X72689819Y-73381428D01*
X72689819Y-73381428D02*
X72689819Y-73190952D01*
X72689819Y-73190952D02*
X72642200Y-73095714D01*
X72642200Y-73095714D02*
X72594580Y-73048095D01*
X72594580Y-73048095D02*
X72499342Y-73000476D01*
X72499342Y-73000476D02*
X72308866Y-73000476D01*
X72308866Y-73000476D02*
X72213628Y-73048095D01*
X72213628Y-73048095D02*
X72166009Y-73095714D01*
X72166009Y-73095714D02*
X72118390Y-73190952D01*
X88833333Y-86084819D02*
X88500000Y-85608628D01*
X88261905Y-86084819D02*
X88261905Y-85084819D01*
X88261905Y-85084819D02*
X88642857Y-85084819D01*
X88642857Y-85084819D02*
X88738095Y-85132438D01*
X88738095Y-85132438D02*
X88785714Y-85180057D01*
X88785714Y-85180057D02*
X88833333Y-85275295D01*
X88833333Y-85275295D02*
X88833333Y-85418152D01*
X88833333Y-85418152D02*
X88785714Y-85513390D01*
X88785714Y-85513390D02*
X88738095Y-85561009D01*
X88738095Y-85561009D02*
X88642857Y-85608628D01*
X88642857Y-85608628D02*
X88261905Y-85608628D01*
X89404762Y-85513390D02*
X89309524Y-85465771D01*
X89309524Y-85465771D02*
X89261905Y-85418152D01*
X89261905Y-85418152D02*
X89214286Y-85322914D01*
X89214286Y-85322914D02*
X89214286Y-85275295D01*
X89214286Y-85275295D02*
X89261905Y-85180057D01*
X89261905Y-85180057D02*
X89309524Y-85132438D01*
X89309524Y-85132438D02*
X89404762Y-85084819D01*
X89404762Y-85084819D02*
X89595238Y-85084819D01*
X89595238Y-85084819D02*
X89690476Y-85132438D01*
X89690476Y-85132438D02*
X89738095Y-85180057D01*
X89738095Y-85180057D02*
X89785714Y-85275295D01*
X89785714Y-85275295D02*
X89785714Y-85322914D01*
X89785714Y-85322914D02*
X89738095Y-85418152D01*
X89738095Y-85418152D02*
X89690476Y-85465771D01*
X89690476Y-85465771D02*
X89595238Y-85513390D01*
X89595238Y-85513390D02*
X89404762Y-85513390D01*
X89404762Y-85513390D02*
X89309524Y-85561009D01*
X89309524Y-85561009D02*
X89261905Y-85608628D01*
X89261905Y-85608628D02*
X89214286Y-85703866D01*
X89214286Y-85703866D02*
X89214286Y-85894342D01*
X89214286Y-85894342D02*
X89261905Y-85989580D01*
X89261905Y-85989580D02*
X89309524Y-86037200D01*
X89309524Y-86037200D02*
X89404762Y-86084819D01*
X89404762Y-86084819D02*
X89595238Y-86084819D01*
X89595238Y-86084819D02*
X89690476Y-86037200D01*
X89690476Y-86037200D02*
X89738095Y-85989580D01*
X89738095Y-85989580D02*
X89785714Y-85894342D01*
X89785714Y-85894342D02*
X89785714Y-85703866D01*
X89785714Y-85703866D02*
X89738095Y-85608628D01*
X89738095Y-85608628D02*
X89690476Y-85561009D01*
X89690476Y-85561009D02*
X89595238Y-85513390D01*
X78208333Y-81084819D02*
X77875000Y-80608628D01*
X77636905Y-81084819D02*
X77636905Y-80084819D01*
X77636905Y-80084819D02*
X78017857Y-80084819D01*
X78017857Y-80084819D02*
X78113095Y-80132438D01*
X78113095Y-80132438D02*
X78160714Y-80180057D01*
X78160714Y-80180057D02*
X78208333Y-80275295D01*
X78208333Y-80275295D02*
X78208333Y-80418152D01*
X78208333Y-80418152D02*
X78160714Y-80513390D01*
X78160714Y-80513390D02*
X78113095Y-80561009D01*
X78113095Y-80561009D02*
X78017857Y-80608628D01*
X78017857Y-80608628D02*
X77636905Y-80608628D01*
X79160714Y-81084819D02*
X78589286Y-81084819D01*
X78875000Y-81084819D02*
X78875000Y-80084819D01*
X78875000Y-80084819D02*
X78779762Y-80227676D01*
X78779762Y-80227676D02*
X78684524Y-80322914D01*
X78684524Y-80322914D02*
X78589286Y-80370533D01*
X95084819Y-92332857D02*
X94608628Y-92666190D01*
X95084819Y-92904285D02*
X94084819Y-92904285D01*
X94084819Y-92904285D02*
X94084819Y-92523333D01*
X94084819Y-92523333D02*
X94132438Y-92428095D01*
X94132438Y-92428095D02*
X94180057Y-92380476D01*
X94180057Y-92380476D02*
X94275295Y-92332857D01*
X94275295Y-92332857D02*
X94418152Y-92332857D01*
X94418152Y-92332857D02*
X94513390Y-92380476D01*
X94513390Y-92380476D02*
X94561009Y-92428095D01*
X94561009Y-92428095D02*
X94608628Y-92523333D01*
X94608628Y-92523333D02*
X94608628Y-92904285D01*
X95084819Y-91380476D02*
X95084819Y-91951904D01*
X95084819Y-91666190D02*
X94084819Y-91666190D01*
X94084819Y-91666190D02*
X94227676Y-91761428D01*
X94227676Y-91761428D02*
X94322914Y-91856666D01*
X94322914Y-91856666D02*
X94370533Y-91951904D01*
X94084819Y-91047142D02*
X94084819Y-90428095D01*
X94084819Y-90428095D02*
X94465771Y-90761428D01*
X94465771Y-90761428D02*
X94465771Y-90618571D01*
X94465771Y-90618571D02*
X94513390Y-90523333D01*
X94513390Y-90523333D02*
X94561009Y-90475714D01*
X94561009Y-90475714D02*
X94656247Y-90428095D01*
X94656247Y-90428095D02*
X94894342Y-90428095D01*
X94894342Y-90428095D02*
X94989580Y-90475714D01*
X94989580Y-90475714D02*
X95037200Y-90523333D01*
X95037200Y-90523333D02*
X95084819Y-90618571D01*
X95084819Y-90618571D02*
X95084819Y-90904285D01*
X95084819Y-90904285D02*
X95037200Y-90999523D01*
X95037200Y-90999523D02*
X94989580Y-91047142D01*
X124576667Y-116309726D02*
X124576667Y-117216869D01*
X124576667Y-117216869D02*
X124516190Y-117398297D01*
X124516190Y-117398297D02*
X124395238Y-117519250D01*
X124395238Y-117519250D02*
X124213809Y-117579726D01*
X124213809Y-117579726D02*
X124092857Y-117579726D01*
X125786190Y-116309726D02*
X125181428Y-116309726D01*
X125181428Y-116309726D02*
X125120952Y-116914488D01*
X125120952Y-116914488D02*
X125181428Y-116854011D01*
X125181428Y-116854011D02*
X125302381Y-116793535D01*
X125302381Y-116793535D02*
X125604762Y-116793535D01*
X125604762Y-116793535D02*
X125725714Y-116854011D01*
X125725714Y-116854011D02*
X125786190Y-116914488D01*
X125786190Y-116914488D02*
X125846667Y-117035440D01*
X125846667Y-117035440D02*
X125846667Y-117337821D01*
X125846667Y-117337821D02*
X125786190Y-117458773D01*
X125786190Y-117458773D02*
X125725714Y-117519250D01*
X125725714Y-117519250D02*
X125604762Y-117579726D01*
X125604762Y-117579726D02*
X125302381Y-117579726D01*
X125302381Y-117579726D02*
X125181428Y-117519250D01*
X125181428Y-117519250D02*
X125120952Y-117458773D01*
X231309726Y-53467619D02*
X232337821Y-53467619D01*
X232337821Y-53467619D02*
X232458773Y-53407142D01*
X232458773Y-53407142D02*
X232519250Y-53346666D01*
X232519250Y-53346666D02*
X232579726Y-53225714D01*
X232579726Y-53225714D02*
X232579726Y-52983809D01*
X232579726Y-52983809D02*
X232519250Y-52862857D01*
X232519250Y-52862857D02*
X232458773Y-52802380D01*
X232458773Y-52802380D02*
X232337821Y-52741904D01*
X232337821Y-52741904D02*
X231309726Y-52741904D01*
X232579726Y-51471904D02*
X232579726Y-52197619D01*
X232579726Y-51834762D02*
X231309726Y-51834762D01*
X231309726Y-51834762D02*
X231491154Y-51955714D01*
X231491154Y-51955714D02*
X231612107Y-52076666D01*
X231612107Y-52076666D02*
X231672583Y-52197619D01*
X213843773Y-72816428D02*
X213904250Y-72876904D01*
X213904250Y-72876904D02*
X213964726Y-73058333D01*
X213964726Y-73058333D02*
X213964726Y-73179285D01*
X213964726Y-73179285D02*
X213904250Y-73360714D01*
X213904250Y-73360714D02*
X213783297Y-73481666D01*
X213783297Y-73481666D02*
X213662345Y-73542143D01*
X213662345Y-73542143D02*
X213420440Y-73602619D01*
X213420440Y-73602619D02*
X213239011Y-73602619D01*
X213239011Y-73602619D02*
X212997107Y-73542143D01*
X212997107Y-73542143D02*
X212876154Y-73481666D01*
X212876154Y-73481666D02*
X212755202Y-73360714D01*
X212755202Y-73360714D02*
X212694726Y-73179285D01*
X212694726Y-73179285D02*
X212694726Y-73058333D01*
X212694726Y-73058333D02*
X212755202Y-72876904D01*
X212755202Y-72876904D02*
X212815678Y-72816428D01*
X213964726Y-71606904D02*
X213964726Y-72332619D01*
X213964726Y-71969762D02*
X212694726Y-71969762D01*
X212694726Y-71969762D02*
X212876154Y-72090714D01*
X212876154Y-72090714D02*
X212997107Y-72211666D01*
X212997107Y-72211666D02*
X213057583Y-72332619D01*
X212815678Y-71123095D02*
X212755202Y-71062619D01*
X212755202Y-71062619D02*
X212694726Y-70941666D01*
X212694726Y-70941666D02*
X212694726Y-70639285D01*
X212694726Y-70639285D02*
X212755202Y-70518333D01*
X212755202Y-70518333D02*
X212815678Y-70457857D01*
X212815678Y-70457857D02*
X212936630Y-70397380D01*
X212936630Y-70397380D02*
X213057583Y-70397380D01*
X213057583Y-70397380D02*
X213239011Y-70457857D01*
X213239011Y-70457857D02*
X213964726Y-71183571D01*
X213964726Y-71183571D02*
X213964726Y-70397380D01*
X71689819Y-58571904D02*
X72499342Y-58571904D01*
X72499342Y-58571904D02*
X72594580Y-58524285D01*
X72594580Y-58524285D02*
X72642200Y-58476666D01*
X72642200Y-58476666D02*
X72689819Y-58381428D01*
X72689819Y-58381428D02*
X72689819Y-58190952D01*
X72689819Y-58190952D02*
X72642200Y-58095714D01*
X72642200Y-58095714D02*
X72594580Y-58048095D01*
X72594580Y-58048095D02*
X72499342Y-58000476D01*
X72499342Y-58000476D02*
X71689819Y-58000476D01*
X71689819Y-57619523D02*
X71689819Y-57000476D01*
X71689819Y-57000476D02*
X72070771Y-57333809D01*
X72070771Y-57333809D02*
X72070771Y-57190952D01*
X72070771Y-57190952D02*
X72118390Y-57095714D01*
X72118390Y-57095714D02*
X72166009Y-57048095D01*
X72166009Y-57048095D02*
X72261247Y-57000476D01*
X72261247Y-57000476D02*
X72499342Y-57000476D01*
X72499342Y-57000476D02*
X72594580Y-57048095D01*
X72594580Y-57048095D02*
X72642200Y-57095714D01*
X72642200Y-57095714D02*
X72689819Y-57190952D01*
X72689819Y-57190952D02*
X72689819Y-57476666D01*
X72689819Y-57476666D02*
X72642200Y-57571904D01*
X72642200Y-57571904D02*
X72594580Y-57619523D01*
X72458773Y-50816428D02*
X72519250Y-50876904D01*
X72519250Y-50876904D02*
X72579726Y-51058333D01*
X72579726Y-51058333D02*
X72579726Y-51179285D01*
X72579726Y-51179285D02*
X72519250Y-51360714D01*
X72519250Y-51360714D02*
X72398297Y-51481666D01*
X72398297Y-51481666D02*
X72277345Y-51542143D01*
X72277345Y-51542143D02*
X72035440Y-51602619D01*
X72035440Y-51602619D02*
X71854011Y-51602619D01*
X71854011Y-51602619D02*
X71612107Y-51542143D01*
X71612107Y-51542143D02*
X71491154Y-51481666D01*
X71491154Y-51481666D02*
X71370202Y-51360714D01*
X71370202Y-51360714D02*
X71309726Y-51179285D01*
X71309726Y-51179285D02*
X71309726Y-51058333D01*
X71309726Y-51058333D02*
X71370202Y-50876904D01*
X71370202Y-50876904D02*
X71430678Y-50816428D01*
X72579726Y-49606904D02*
X72579726Y-50332619D01*
X72579726Y-49969762D02*
X71309726Y-49969762D01*
X71309726Y-49969762D02*
X71491154Y-50090714D01*
X71491154Y-50090714D02*
X71612107Y-50211666D01*
X71612107Y-50211666D02*
X71672583Y-50332619D01*
X71309726Y-48820714D02*
X71309726Y-48699761D01*
X71309726Y-48699761D02*
X71370202Y-48578809D01*
X71370202Y-48578809D02*
X71430678Y-48518333D01*
X71430678Y-48518333D02*
X71551630Y-48457857D01*
X71551630Y-48457857D02*
X71793535Y-48397380D01*
X71793535Y-48397380D02*
X72095916Y-48397380D01*
X72095916Y-48397380D02*
X72337821Y-48457857D01*
X72337821Y-48457857D02*
X72458773Y-48518333D01*
X72458773Y-48518333D02*
X72519250Y-48578809D01*
X72519250Y-48578809D02*
X72579726Y-48699761D01*
X72579726Y-48699761D02*
X72579726Y-48820714D01*
X72579726Y-48820714D02*
X72519250Y-48941666D01*
X72519250Y-48941666D02*
X72458773Y-49002142D01*
X72458773Y-49002142D02*
X72337821Y-49062619D01*
X72337821Y-49062619D02*
X72095916Y-49123095D01*
X72095916Y-49123095D02*
X71793535Y-49123095D01*
X71793535Y-49123095D02*
X71551630Y-49062619D01*
X71551630Y-49062619D02*
X71430678Y-49002142D01*
X71430678Y-49002142D02*
X71370202Y-48941666D01*
X71370202Y-48941666D02*
X71309726Y-48820714D01*
X227070476Y-98454819D02*
X227737142Y-99454819D01*
X227737142Y-98454819D02*
X227070476Y-99454819D01*
X228641904Y-99454819D02*
X228070476Y-99454819D01*
X228356190Y-99454819D02*
X228356190Y-98454819D01*
X228356190Y-98454819D02*
X228260952Y-98597676D01*
X228260952Y-98597676D02*
X228165714Y-98692914D01*
X228165714Y-98692914D02*
X228070476Y-98740533D01*
X215916667Y-133157200D02*
X216059524Y-133204819D01*
X216059524Y-133204819D02*
X216297619Y-133204819D01*
X216297619Y-133204819D02*
X216392857Y-133157200D01*
X216392857Y-133157200D02*
X216440476Y-133109580D01*
X216440476Y-133109580D02*
X216488095Y-133014342D01*
X216488095Y-133014342D02*
X216488095Y-132919104D01*
X216488095Y-132919104D02*
X216440476Y-132823866D01*
X216440476Y-132823866D02*
X216392857Y-132776247D01*
X216392857Y-132776247D02*
X216297619Y-132728628D01*
X216297619Y-132728628D02*
X216107143Y-132681009D01*
X216107143Y-132681009D02*
X216011905Y-132633390D01*
X216011905Y-132633390D02*
X215964286Y-132585771D01*
X215964286Y-132585771D02*
X215916667Y-132490533D01*
X215916667Y-132490533D02*
X215916667Y-132395295D01*
X215916667Y-132395295D02*
X215964286Y-132300057D01*
X215964286Y-132300057D02*
X216011905Y-132252438D01*
X216011905Y-132252438D02*
X216107143Y-132204819D01*
X216107143Y-132204819D02*
X216345238Y-132204819D01*
X216345238Y-132204819D02*
X216488095Y-132252438D01*
X216821429Y-132204819D02*
X217059524Y-133204819D01*
X217059524Y-133204819D02*
X217250000Y-132490533D01*
X217250000Y-132490533D02*
X217440476Y-133204819D01*
X217440476Y-133204819D02*
X217678572Y-132204819D01*
X218488095Y-132538152D02*
X218488095Y-133204819D01*
X218250000Y-132157200D02*
X218011905Y-132871485D01*
X218011905Y-132871485D02*
X218630952Y-132871485D01*
X216464286Y-136954819D02*
X216464286Y-137764342D01*
X216464286Y-137764342D02*
X216511905Y-137859580D01*
X216511905Y-137859580D02*
X216559524Y-137907200D01*
X216559524Y-137907200D02*
X216654762Y-137954819D01*
X216654762Y-137954819D02*
X216845238Y-137954819D01*
X216845238Y-137954819D02*
X216940476Y-137907200D01*
X216940476Y-137907200D02*
X216988095Y-137859580D01*
X216988095Y-137859580D02*
X217035714Y-137764342D01*
X217035714Y-137764342D02*
X217035714Y-136954819D01*
X217511905Y-137954819D02*
X217511905Y-136954819D01*
X217511905Y-136954819D02*
X217892857Y-136954819D01*
X217892857Y-136954819D02*
X217988095Y-137002438D01*
X217988095Y-137002438D02*
X218035714Y-137050057D01*
X218035714Y-137050057D02*
X218083333Y-137145295D01*
X218083333Y-137145295D02*
X218083333Y-137288152D01*
X218083333Y-137288152D02*
X218035714Y-137383390D01*
X218035714Y-137383390D02*
X217988095Y-137431009D01*
X217988095Y-137431009D02*
X217892857Y-137478628D01*
X217892857Y-137478628D02*
X217511905Y-137478628D01*
X233788333Y-81458773D02*
X233727857Y-81519250D01*
X233727857Y-81519250D02*
X233546428Y-81579726D01*
X233546428Y-81579726D02*
X233425476Y-81579726D01*
X233425476Y-81579726D02*
X233244047Y-81519250D01*
X233244047Y-81519250D02*
X233123095Y-81398297D01*
X233123095Y-81398297D02*
X233062618Y-81277345D01*
X233062618Y-81277345D02*
X233002142Y-81035440D01*
X233002142Y-81035440D02*
X233002142Y-80854011D01*
X233002142Y-80854011D02*
X233062618Y-80612107D01*
X233062618Y-80612107D02*
X233123095Y-80491154D01*
X233123095Y-80491154D02*
X233244047Y-80370202D01*
X233244047Y-80370202D02*
X233425476Y-80309726D01*
X233425476Y-80309726D02*
X233546428Y-80309726D01*
X233546428Y-80309726D02*
X233727857Y-80370202D01*
X233727857Y-80370202D02*
X233788333Y-80430678D01*
X234876904Y-80733059D02*
X234876904Y-81579726D01*
X234574523Y-80249250D02*
X234272142Y-81156392D01*
X234272142Y-81156392D02*
X235058333Y-81156392D01*
X236288333Y-71958773D02*
X236227857Y-72019250D01*
X236227857Y-72019250D02*
X236046428Y-72079726D01*
X236046428Y-72079726D02*
X235925476Y-72079726D01*
X235925476Y-72079726D02*
X235744047Y-72019250D01*
X235744047Y-72019250D02*
X235623095Y-71898297D01*
X235623095Y-71898297D02*
X235562618Y-71777345D01*
X235562618Y-71777345D02*
X235502142Y-71535440D01*
X235502142Y-71535440D02*
X235502142Y-71354011D01*
X235502142Y-71354011D02*
X235562618Y-71112107D01*
X235562618Y-71112107D02*
X235623095Y-70991154D01*
X235623095Y-70991154D02*
X235744047Y-70870202D01*
X235744047Y-70870202D02*
X235925476Y-70809726D01*
X235925476Y-70809726D02*
X236046428Y-70809726D01*
X236046428Y-70809726D02*
X236227857Y-70870202D01*
X236227857Y-70870202D02*
X236288333Y-70930678D01*
X236772142Y-70930678D02*
X236832618Y-70870202D01*
X236832618Y-70870202D02*
X236953571Y-70809726D01*
X236953571Y-70809726D02*
X237255952Y-70809726D01*
X237255952Y-70809726D02*
X237376904Y-70870202D01*
X237376904Y-70870202D02*
X237437380Y-70930678D01*
X237437380Y-70930678D02*
X237497857Y-71051630D01*
X237497857Y-71051630D02*
X237497857Y-71172583D01*
X237497857Y-71172583D02*
X237437380Y-71354011D01*
X237437380Y-71354011D02*
X236711666Y-72079726D01*
X236711666Y-72079726D02*
X237497857Y-72079726D01*
D16*
X94332618Y-34574318D02*
X94332618Y-33304318D01*
X94332618Y-33304318D02*
X94634999Y-33304318D01*
X94634999Y-33304318D02*
X94816428Y-33364794D01*
X94816428Y-33364794D02*
X94937380Y-33485746D01*
X94937380Y-33485746D02*
X94997857Y-33606699D01*
X94997857Y-33606699D02*
X95058333Y-33848603D01*
X95058333Y-33848603D02*
X95058333Y-34030032D01*
X95058333Y-34030032D02*
X94997857Y-34271937D01*
X94997857Y-34271937D02*
X94937380Y-34392889D01*
X94937380Y-34392889D02*
X94816428Y-34513842D01*
X94816428Y-34513842D02*
X94634999Y-34574318D01*
X94634999Y-34574318D02*
X94332618Y-34574318D01*
X95481666Y-33304318D02*
X96267857Y-33304318D01*
X96267857Y-33304318D02*
X95844523Y-33788127D01*
X95844523Y-33788127D02*
X96025952Y-33788127D01*
X96025952Y-33788127D02*
X96146904Y-33848603D01*
X96146904Y-33848603D02*
X96207380Y-33909080D01*
X96207380Y-33909080D02*
X96267857Y-34030032D01*
X96267857Y-34030032D02*
X96267857Y-34332413D01*
X96267857Y-34332413D02*
X96207380Y-34453365D01*
X96207380Y-34453365D02*
X96146904Y-34513842D01*
X96146904Y-34513842D02*
X96025952Y-34574318D01*
X96025952Y-34574318D02*
X95663095Y-34574318D01*
X95663095Y-34574318D02*
X95542142Y-34513842D01*
X95542142Y-34513842D02*
X95481666Y-34453365D01*
D14*
X101458773Y-71211666D02*
X101519250Y-71272142D01*
X101519250Y-71272142D02*
X101579726Y-71453571D01*
X101579726Y-71453571D02*
X101579726Y-71574523D01*
X101579726Y-71574523D02*
X101519250Y-71755952D01*
X101519250Y-71755952D02*
X101398297Y-71876904D01*
X101398297Y-71876904D02*
X101277345Y-71937381D01*
X101277345Y-71937381D02*
X101035440Y-71997857D01*
X101035440Y-71997857D02*
X100854011Y-71997857D01*
X100854011Y-71997857D02*
X100612107Y-71937381D01*
X100612107Y-71937381D02*
X100491154Y-71876904D01*
X100491154Y-71876904D02*
X100370202Y-71755952D01*
X100370202Y-71755952D02*
X100309726Y-71574523D01*
X100309726Y-71574523D02*
X100309726Y-71453571D01*
X100309726Y-71453571D02*
X100370202Y-71272142D01*
X100370202Y-71272142D02*
X100430678Y-71211666D01*
X100309726Y-70123095D02*
X100309726Y-70365000D01*
X100309726Y-70365000D02*
X100370202Y-70485952D01*
X100370202Y-70485952D02*
X100430678Y-70546428D01*
X100430678Y-70546428D02*
X100612107Y-70667381D01*
X100612107Y-70667381D02*
X100854011Y-70727857D01*
X100854011Y-70727857D02*
X101337821Y-70727857D01*
X101337821Y-70727857D02*
X101458773Y-70667381D01*
X101458773Y-70667381D02*
X101519250Y-70606904D01*
X101519250Y-70606904D02*
X101579726Y-70485952D01*
X101579726Y-70485952D02*
X101579726Y-70244047D01*
X101579726Y-70244047D02*
X101519250Y-70123095D01*
X101519250Y-70123095D02*
X101458773Y-70062619D01*
X101458773Y-70062619D02*
X101337821Y-70002142D01*
X101337821Y-70002142D02*
X101035440Y-70002142D01*
X101035440Y-70002142D02*
X100914488Y-70062619D01*
X100914488Y-70062619D02*
X100854011Y-70123095D01*
X100854011Y-70123095D02*
X100793535Y-70244047D01*
X100793535Y-70244047D02*
X100793535Y-70485952D01*
X100793535Y-70485952D02*
X100854011Y-70606904D01*
X100854011Y-70606904D02*
X100914488Y-70667381D01*
X100914488Y-70667381D02*
X101035440Y-70727857D01*
X151974333Y-100458773D02*
X151913857Y-100519250D01*
X151913857Y-100519250D02*
X151732428Y-100579726D01*
X151732428Y-100579726D02*
X151611476Y-100579726D01*
X151611476Y-100579726D02*
X151430047Y-100519250D01*
X151430047Y-100519250D02*
X151309095Y-100398297D01*
X151309095Y-100398297D02*
X151248618Y-100277345D01*
X151248618Y-100277345D02*
X151188142Y-100035440D01*
X151188142Y-100035440D02*
X151188142Y-99854011D01*
X151188142Y-99854011D02*
X151248618Y-99612107D01*
X151248618Y-99612107D02*
X151309095Y-99491154D01*
X151309095Y-99491154D02*
X151430047Y-99370202D01*
X151430047Y-99370202D02*
X151611476Y-99309726D01*
X151611476Y-99309726D02*
X151732428Y-99309726D01*
X151732428Y-99309726D02*
X151913857Y-99370202D01*
X151913857Y-99370202D02*
X151974333Y-99430678D01*
X152579095Y-100579726D02*
X152820999Y-100579726D01*
X152820999Y-100579726D02*
X152941952Y-100519250D01*
X152941952Y-100519250D02*
X153002428Y-100458773D01*
X153002428Y-100458773D02*
X153123380Y-100277345D01*
X153123380Y-100277345D02*
X153183857Y-100035440D01*
X153183857Y-100035440D02*
X153183857Y-99551630D01*
X153183857Y-99551630D02*
X153123380Y-99430678D01*
X153123380Y-99430678D02*
X153062904Y-99370202D01*
X153062904Y-99370202D02*
X152941952Y-99309726D01*
X152941952Y-99309726D02*
X152700047Y-99309726D01*
X152700047Y-99309726D02*
X152579095Y-99370202D01*
X152579095Y-99370202D02*
X152518618Y-99430678D01*
X152518618Y-99430678D02*
X152458142Y-99551630D01*
X152458142Y-99551630D02*
X152458142Y-99854011D01*
X152458142Y-99854011D02*
X152518618Y-99974964D01*
X152518618Y-99974964D02*
X152579095Y-100035440D01*
X152579095Y-100035440D02*
X152700047Y-100095916D01*
X152700047Y-100095916D02*
X152941952Y-100095916D01*
X152941952Y-100095916D02*
X153062904Y-100035440D01*
X153062904Y-100035440D02*
X153123380Y-99974964D01*
X153123380Y-99974964D02*
X153183857Y-99854011D01*
X227916667Y-142157200D02*
X228059524Y-142204819D01*
X228059524Y-142204819D02*
X228297619Y-142204819D01*
X228297619Y-142204819D02*
X228392857Y-142157200D01*
X228392857Y-142157200D02*
X228440476Y-142109580D01*
X228440476Y-142109580D02*
X228488095Y-142014342D01*
X228488095Y-142014342D02*
X228488095Y-141919104D01*
X228488095Y-141919104D02*
X228440476Y-141823866D01*
X228440476Y-141823866D02*
X228392857Y-141776247D01*
X228392857Y-141776247D02*
X228297619Y-141728628D01*
X228297619Y-141728628D02*
X228107143Y-141681009D01*
X228107143Y-141681009D02*
X228011905Y-141633390D01*
X228011905Y-141633390D02*
X227964286Y-141585771D01*
X227964286Y-141585771D02*
X227916667Y-141490533D01*
X227916667Y-141490533D02*
X227916667Y-141395295D01*
X227916667Y-141395295D02*
X227964286Y-141300057D01*
X227964286Y-141300057D02*
X228011905Y-141252438D01*
X228011905Y-141252438D02*
X228107143Y-141204819D01*
X228107143Y-141204819D02*
X228345238Y-141204819D01*
X228345238Y-141204819D02*
X228488095Y-141252438D01*
X228821429Y-141204819D02*
X229059524Y-142204819D01*
X229059524Y-142204819D02*
X229250000Y-141490533D01*
X229250000Y-141490533D02*
X229440476Y-142204819D01*
X229440476Y-142204819D02*
X229678572Y-141204819D01*
X229964286Y-141204819D02*
X230630952Y-141204819D01*
X230630952Y-141204819D02*
X230202381Y-142204819D01*
X227916666Y-146954819D02*
X227583333Y-146478628D01*
X227345238Y-146954819D02*
X227345238Y-145954819D01*
X227345238Y-145954819D02*
X227726190Y-145954819D01*
X227726190Y-145954819D02*
X227821428Y-146002438D01*
X227821428Y-146002438D02*
X227869047Y-146050057D01*
X227869047Y-146050057D02*
X227916666Y-146145295D01*
X227916666Y-146145295D02*
X227916666Y-146288152D01*
X227916666Y-146288152D02*
X227869047Y-146383390D01*
X227869047Y-146383390D02*
X227821428Y-146431009D01*
X227821428Y-146431009D02*
X227726190Y-146478628D01*
X227726190Y-146478628D02*
X227345238Y-146478628D01*
X228345238Y-146954819D02*
X228345238Y-145954819D01*
X229345237Y-146002438D02*
X229249999Y-145954819D01*
X229249999Y-145954819D02*
X229107142Y-145954819D01*
X229107142Y-145954819D02*
X228964285Y-146002438D01*
X228964285Y-146002438D02*
X228869047Y-146097676D01*
X228869047Y-146097676D02*
X228821428Y-146192914D01*
X228821428Y-146192914D02*
X228773809Y-146383390D01*
X228773809Y-146383390D02*
X228773809Y-146526247D01*
X228773809Y-146526247D02*
X228821428Y-146716723D01*
X228821428Y-146716723D02*
X228869047Y-146811961D01*
X228869047Y-146811961D02*
X228964285Y-146907200D01*
X228964285Y-146907200D02*
X229107142Y-146954819D01*
X229107142Y-146954819D02*
X229202380Y-146954819D01*
X229202380Y-146954819D02*
X229345237Y-146907200D01*
X229345237Y-146907200D02*
X229392856Y-146859580D01*
X229392856Y-146859580D02*
X229392856Y-146526247D01*
X229392856Y-146526247D02*
X229202380Y-146526247D01*
X229821428Y-146954819D02*
X229821428Y-145954819D01*
X229821428Y-146431009D02*
X230392856Y-146431009D01*
X230392856Y-146954819D02*
X230392856Y-145954819D01*
X230726190Y-145954819D02*
X231297618Y-145954819D01*
X231011904Y-146954819D02*
X231011904Y-145954819D01*
X197618095Y-66599819D02*
X197618095Y-67409342D01*
X197618095Y-67409342D02*
X197665714Y-67504580D01*
X197665714Y-67504580D02*
X197713333Y-67552200D01*
X197713333Y-67552200D02*
X197808571Y-67599819D01*
X197808571Y-67599819D02*
X197999047Y-67599819D01*
X197999047Y-67599819D02*
X198094285Y-67552200D01*
X198094285Y-67552200D02*
X198141904Y-67504580D01*
X198141904Y-67504580D02*
X198189523Y-67409342D01*
X198189523Y-67409342D02*
X198189523Y-66599819D01*
X199141904Y-66599819D02*
X198665714Y-66599819D01*
X198665714Y-66599819D02*
X198618095Y-67076009D01*
X198618095Y-67076009D02*
X198665714Y-67028390D01*
X198665714Y-67028390D02*
X198760952Y-66980771D01*
X198760952Y-66980771D02*
X198999047Y-66980771D01*
X198999047Y-66980771D02*
X199094285Y-67028390D01*
X199094285Y-67028390D02*
X199141904Y-67076009D01*
X199141904Y-67076009D02*
X199189523Y-67171247D01*
X199189523Y-67171247D02*
X199189523Y-67409342D01*
X199189523Y-67409342D02*
X199141904Y-67504580D01*
X199141904Y-67504580D02*
X199094285Y-67552200D01*
X199094285Y-67552200D02*
X198999047Y-67599819D01*
X198999047Y-67599819D02*
X198760952Y-67599819D01*
X198760952Y-67599819D02*
X198665714Y-67552200D01*
X198665714Y-67552200D02*
X198618095Y-67504580D01*
X184449571Y-116458773D02*
X184389095Y-116519250D01*
X184389095Y-116519250D02*
X184207666Y-116579726D01*
X184207666Y-116579726D02*
X184086714Y-116579726D01*
X184086714Y-116579726D02*
X183905285Y-116519250D01*
X183905285Y-116519250D02*
X183784333Y-116398297D01*
X183784333Y-116398297D02*
X183723856Y-116277345D01*
X183723856Y-116277345D02*
X183663380Y-116035440D01*
X183663380Y-116035440D02*
X183663380Y-115854011D01*
X183663380Y-115854011D02*
X183723856Y-115612107D01*
X183723856Y-115612107D02*
X183784333Y-115491154D01*
X183784333Y-115491154D02*
X183905285Y-115370202D01*
X183905285Y-115370202D02*
X184086714Y-115309726D01*
X184086714Y-115309726D02*
X184207666Y-115309726D01*
X184207666Y-115309726D02*
X184389095Y-115370202D01*
X184389095Y-115370202D02*
X184449571Y-115430678D01*
X185659095Y-116579726D02*
X184933380Y-116579726D01*
X185296237Y-116579726D02*
X185296237Y-115309726D01*
X185296237Y-115309726D02*
X185175285Y-115491154D01*
X185175285Y-115491154D02*
X185054333Y-115612107D01*
X185054333Y-115612107D02*
X184933380Y-115672583D01*
X186082428Y-115309726D02*
X186868619Y-115309726D01*
X186868619Y-115309726D02*
X186445285Y-115793535D01*
X186445285Y-115793535D02*
X186626714Y-115793535D01*
X186626714Y-115793535D02*
X186747666Y-115854011D01*
X186747666Y-115854011D02*
X186808142Y-115914488D01*
X186808142Y-115914488D02*
X186868619Y-116035440D01*
X186868619Y-116035440D02*
X186868619Y-116337821D01*
X186868619Y-116337821D02*
X186808142Y-116458773D01*
X186808142Y-116458773D02*
X186747666Y-116519250D01*
X186747666Y-116519250D02*
X186626714Y-116579726D01*
X186626714Y-116579726D02*
X186263857Y-116579726D01*
X186263857Y-116579726D02*
X186142904Y-116519250D01*
X186142904Y-116519250D02*
X186082428Y-116458773D01*
X212912118Y-65429726D02*
X212912118Y-64159726D01*
X212912118Y-64159726D02*
X213214499Y-64159726D01*
X213214499Y-64159726D02*
X213395928Y-64220202D01*
X213395928Y-64220202D02*
X213516880Y-64341154D01*
X213516880Y-64341154D02*
X213577357Y-64462107D01*
X213577357Y-64462107D02*
X213637833Y-64704011D01*
X213637833Y-64704011D02*
X213637833Y-64885440D01*
X213637833Y-64885440D02*
X213577357Y-65127345D01*
X213577357Y-65127345D02*
X213516880Y-65248297D01*
X213516880Y-65248297D02*
X213395928Y-65369250D01*
X213395928Y-65369250D02*
X213214499Y-65429726D01*
X213214499Y-65429726D02*
X212912118Y-65429726D01*
X214121642Y-64280678D02*
X214182118Y-64220202D01*
X214182118Y-64220202D02*
X214303071Y-64159726D01*
X214303071Y-64159726D02*
X214605452Y-64159726D01*
X214605452Y-64159726D02*
X214726404Y-64220202D01*
X214726404Y-64220202D02*
X214786880Y-64280678D01*
X214786880Y-64280678D02*
X214847357Y-64401630D01*
X214847357Y-64401630D02*
X214847357Y-64522583D01*
X214847357Y-64522583D02*
X214786880Y-64704011D01*
X214786880Y-64704011D02*
X214061166Y-65429726D01*
X214061166Y-65429726D02*
X214847357Y-65429726D01*
D16*
X117076667Y-132304318D02*
X117076667Y-133211461D01*
X117076667Y-133211461D02*
X117016190Y-133392889D01*
X117016190Y-133392889D02*
X116895238Y-133513842D01*
X116895238Y-133513842D02*
X116713809Y-133574318D01*
X116713809Y-133574318D02*
X116592857Y-133574318D01*
X117560476Y-132304318D02*
X118346667Y-132304318D01*
X118346667Y-132304318D02*
X117923333Y-132788127D01*
X117923333Y-132788127D02*
X118104762Y-132788127D01*
X118104762Y-132788127D02*
X118225714Y-132848603D01*
X118225714Y-132848603D02*
X118286190Y-132909080D01*
X118286190Y-132909080D02*
X118346667Y-133030032D01*
X118346667Y-133030032D02*
X118346667Y-133332413D01*
X118346667Y-133332413D02*
X118286190Y-133453365D01*
X118286190Y-133453365D02*
X118225714Y-133513842D01*
X118225714Y-133513842D02*
X118104762Y-133574318D01*
X118104762Y-133574318D02*
X117741905Y-133574318D01*
X117741905Y-133574318D02*
X117620952Y-133513842D01*
X117620952Y-133513842D02*
X117560476Y-133453365D01*
D14*
X78208333Y-91084819D02*
X77875000Y-90608628D01*
X77636905Y-91084819D02*
X77636905Y-90084819D01*
X77636905Y-90084819D02*
X78017857Y-90084819D01*
X78017857Y-90084819D02*
X78113095Y-90132438D01*
X78113095Y-90132438D02*
X78160714Y-90180057D01*
X78160714Y-90180057D02*
X78208333Y-90275295D01*
X78208333Y-90275295D02*
X78208333Y-90418152D01*
X78208333Y-90418152D02*
X78160714Y-90513390D01*
X78160714Y-90513390D02*
X78113095Y-90561009D01*
X78113095Y-90561009D02*
X78017857Y-90608628D01*
X78017857Y-90608628D02*
X77636905Y-90608628D01*
X78541667Y-90084819D02*
X79160714Y-90084819D01*
X79160714Y-90084819D02*
X78827381Y-90465771D01*
X78827381Y-90465771D02*
X78970238Y-90465771D01*
X78970238Y-90465771D02*
X79065476Y-90513390D01*
X79065476Y-90513390D02*
X79113095Y-90561009D01*
X79113095Y-90561009D02*
X79160714Y-90656247D01*
X79160714Y-90656247D02*
X79160714Y-90894342D01*
X79160714Y-90894342D02*
X79113095Y-90989580D01*
X79113095Y-90989580D02*
X79065476Y-91037200D01*
X79065476Y-91037200D02*
X78970238Y-91084819D01*
X78970238Y-91084819D02*
X78684524Y-91084819D01*
X78684524Y-91084819D02*
X78589286Y-91037200D01*
X78589286Y-91037200D02*
X78541667Y-90989580D01*
X88357142Y-106084819D02*
X88023809Y-105608628D01*
X87785714Y-106084819D02*
X87785714Y-105084819D01*
X87785714Y-105084819D02*
X88166666Y-105084819D01*
X88166666Y-105084819D02*
X88261904Y-105132438D01*
X88261904Y-105132438D02*
X88309523Y-105180057D01*
X88309523Y-105180057D02*
X88357142Y-105275295D01*
X88357142Y-105275295D02*
X88357142Y-105418152D01*
X88357142Y-105418152D02*
X88309523Y-105513390D01*
X88309523Y-105513390D02*
X88261904Y-105561009D01*
X88261904Y-105561009D02*
X88166666Y-105608628D01*
X88166666Y-105608628D02*
X87785714Y-105608628D01*
X89309523Y-106084819D02*
X88738095Y-106084819D01*
X89023809Y-106084819D02*
X89023809Y-105084819D01*
X89023809Y-105084819D02*
X88928571Y-105227676D01*
X88928571Y-105227676D02*
X88833333Y-105322914D01*
X88833333Y-105322914D02*
X88738095Y-105370533D01*
X89690476Y-105180057D02*
X89738095Y-105132438D01*
X89738095Y-105132438D02*
X89833333Y-105084819D01*
X89833333Y-105084819D02*
X90071428Y-105084819D01*
X90071428Y-105084819D02*
X90166666Y-105132438D01*
X90166666Y-105132438D02*
X90214285Y-105180057D01*
X90214285Y-105180057D02*
X90261904Y-105275295D01*
X90261904Y-105275295D02*
X90261904Y-105370533D01*
X90261904Y-105370533D02*
X90214285Y-105513390D01*
X90214285Y-105513390D02*
X89642857Y-106084819D01*
X89642857Y-106084819D02*
X90261904Y-106084819D01*
X101458773Y-83211666D02*
X101519250Y-83272142D01*
X101519250Y-83272142D02*
X101579726Y-83453571D01*
X101579726Y-83453571D02*
X101579726Y-83574523D01*
X101579726Y-83574523D02*
X101519250Y-83755952D01*
X101519250Y-83755952D02*
X101398297Y-83876904D01*
X101398297Y-83876904D02*
X101277345Y-83937381D01*
X101277345Y-83937381D02*
X101035440Y-83997857D01*
X101035440Y-83997857D02*
X100854011Y-83997857D01*
X100854011Y-83997857D02*
X100612107Y-83937381D01*
X100612107Y-83937381D02*
X100491154Y-83876904D01*
X100491154Y-83876904D02*
X100370202Y-83755952D01*
X100370202Y-83755952D02*
X100309726Y-83574523D01*
X100309726Y-83574523D02*
X100309726Y-83453571D01*
X100309726Y-83453571D02*
X100370202Y-83272142D01*
X100370202Y-83272142D02*
X100430678Y-83211666D01*
X100854011Y-82485952D02*
X100793535Y-82606904D01*
X100793535Y-82606904D02*
X100733059Y-82667381D01*
X100733059Y-82667381D02*
X100612107Y-82727857D01*
X100612107Y-82727857D02*
X100551630Y-82727857D01*
X100551630Y-82727857D02*
X100430678Y-82667381D01*
X100430678Y-82667381D02*
X100370202Y-82606904D01*
X100370202Y-82606904D02*
X100309726Y-82485952D01*
X100309726Y-82485952D02*
X100309726Y-82244047D01*
X100309726Y-82244047D02*
X100370202Y-82123095D01*
X100370202Y-82123095D02*
X100430678Y-82062619D01*
X100430678Y-82062619D02*
X100551630Y-82002142D01*
X100551630Y-82002142D02*
X100612107Y-82002142D01*
X100612107Y-82002142D02*
X100733059Y-82062619D01*
X100733059Y-82062619D02*
X100793535Y-82123095D01*
X100793535Y-82123095D02*
X100854011Y-82244047D01*
X100854011Y-82244047D02*
X100854011Y-82485952D01*
X100854011Y-82485952D02*
X100914488Y-82606904D01*
X100914488Y-82606904D02*
X100974964Y-82667381D01*
X100974964Y-82667381D02*
X101095916Y-82727857D01*
X101095916Y-82727857D02*
X101337821Y-82727857D01*
X101337821Y-82727857D02*
X101458773Y-82667381D01*
X101458773Y-82667381D02*
X101519250Y-82606904D01*
X101519250Y-82606904D02*
X101579726Y-82485952D01*
X101579726Y-82485952D02*
X101579726Y-82244047D01*
X101579726Y-82244047D02*
X101519250Y-82123095D01*
X101519250Y-82123095D02*
X101458773Y-82062619D01*
X101458773Y-82062619D02*
X101337821Y-82002142D01*
X101337821Y-82002142D02*
X101095916Y-82002142D01*
X101095916Y-82002142D02*
X100974964Y-82062619D01*
X100974964Y-82062619D02*
X100914488Y-82123095D01*
X100914488Y-82123095D02*
X100854011Y-82244047D01*
X128999819Y-111766904D02*
X129809342Y-111766904D01*
X129809342Y-111766904D02*
X129904580Y-111719285D01*
X129904580Y-111719285D02*
X129952200Y-111671666D01*
X129952200Y-111671666D02*
X129999819Y-111576428D01*
X129999819Y-111576428D02*
X129999819Y-111385952D01*
X129999819Y-111385952D02*
X129952200Y-111290714D01*
X129952200Y-111290714D02*
X129904580Y-111243095D01*
X129904580Y-111243095D02*
X129809342Y-111195476D01*
X129809342Y-111195476D02*
X128999819Y-111195476D01*
X128999819Y-110290714D02*
X128999819Y-110481190D01*
X128999819Y-110481190D02*
X129047438Y-110576428D01*
X129047438Y-110576428D02*
X129095057Y-110624047D01*
X129095057Y-110624047D02*
X129237914Y-110719285D01*
X129237914Y-110719285D02*
X129428390Y-110766904D01*
X129428390Y-110766904D02*
X129809342Y-110766904D01*
X129809342Y-110766904D02*
X129904580Y-110719285D01*
X129904580Y-110719285D02*
X129952200Y-110671666D01*
X129952200Y-110671666D02*
X129999819Y-110576428D01*
X129999819Y-110576428D02*
X129999819Y-110385952D01*
X129999819Y-110385952D02*
X129952200Y-110290714D01*
X129952200Y-110290714D02*
X129904580Y-110243095D01*
X129904580Y-110243095D02*
X129809342Y-110195476D01*
X129809342Y-110195476D02*
X129571247Y-110195476D01*
X129571247Y-110195476D02*
X129476009Y-110243095D01*
X129476009Y-110243095D02*
X129428390Y-110290714D01*
X129428390Y-110290714D02*
X129380771Y-110385952D01*
X129380771Y-110385952D02*
X129380771Y-110576428D01*
X129380771Y-110576428D02*
X129428390Y-110671666D01*
X129428390Y-110671666D02*
X129476009Y-110719285D01*
X129476009Y-110719285D02*
X129571247Y-110766904D01*
X101458773Y-77211666D02*
X101519250Y-77272142D01*
X101519250Y-77272142D02*
X101579726Y-77453571D01*
X101579726Y-77453571D02*
X101579726Y-77574523D01*
X101579726Y-77574523D02*
X101519250Y-77755952D01*
X101519250Y-77755952D02*
X101398297Y-77876904D01*
X101398297Y-77876904D02*
X101277345Y-77937381D01*
X101277345Y-77937381D02*
X101035440Y-77997857D01*
X101035440Y-77997857D02*
X100854011Y-77997857D01*
X100854011Y-77997857D02*
X100612107Y-77937381D01*
X100612107Y-77937381D02*
X100491154Y-77876904D01*
X100491154Y-77876904D02*
X100370202Y-77755952D01*
X100370202Y-77755952D02*
X100309726Y-77574523D01*
X100309726Y-77574523D02*
X100309726Y-77453571D01*
X100309726Y-77453571D02*
X100370202Y-77272142D01*
X100370202Y-77272142D02*
X100430678Y-77211666D01*
X100309726Y-76788333D02*
X100309726Y-75941666D01*
X100309726Y-75941666D02*
X101579726Y-76485952D01*
X101458773Y-65211666D02*
X101519250Y-65272142D01*
X101519250Y-65272142D02*
X101579726Y-65453571D01*
X101579726Y-65453571D02*
X101579726Y-65574523D01*
X101579726Y-65574523D02*
X101519250Y-65755952D01*
X101519250Y-65755952D02*
X101398297Y-65876904D01*
X101398297Y-65876904D02*
X101277345Y-65937381D01*
X101277345Y-65937381D02*
X101035440Y-65997857D01*
X101035440Y-65997857D02*
X100854011Y-65997857D01*
X100854011Y-65997857D02*
X100612107Y-65937381D01*
X100612107Y-65937381D02*
X100491154Y-65876904D01*
X100491154Y-65876904D02*
X100370202Y-65755952D01*
X100370202Y-65755952D02*
X100309726Y-65574523D01*
X100309726Y-65574523D02*
X100309726Y-65453571D01*
X100309726Y-65453571D02*
X100370202Y-65272142D01*
X100370202Y-65272142D02*
X100430678Y-65211666D01*
X100309726Y-64062619D02*
X100309726Y-64667381D01*
X100309726Y-64667381D02*
X100914488Y-64727857D01*
X100914488Y-64727857D02*
X100854011Y-64667381D01*
X100854011Y-64667381D02*
X100793535Y-64546428D01*
X100793535Y-64546428D02*
X100793535Y-64244047D01*
X100793535Y-64244047D02*
X100854011Y-64123095D01*
X100854011Y-64123095D02*
X100914488Y-64062619D01*
X100914488Y-64062619D02*
X101035440Y-64002142D01*
X101035440Y-64002142D02*
X101337821Y-64002142D01*
X101337821Y-64002142D02*
X101458773Y-64062619D01*
X101458773Y-64062619D02*
X101519250Y-64123095D01*
X101519250Y-64123095D02*
X101579726Y-64244047D01*
X101579726Y-64244047D02*
X101579726Y-64546428D01*
X101579726Y-64546428D02*
X101519250Y-64667381D01*
X101519250Y-64667381D02*
X101458773Y-64727857D01*
X236288333Y-65458773D02*
X236227857Y-65519250D01*
X236227857Y-65519250D02*
X236046428Y-65579726D01*
X236046428Y-65579726D02*
X235925476Y-65579726D01*
X235925476Y-65579726D02*
X235744047Y-65519250D01*
X235744047Y-65519250D02*
X235623095Y-65398297D01*
X235623095Y-65398297D02*
X235562618Y-65277345D01*
X235562618Y-65277345D02*
X235502142Y-65035440D01*
X235502142Y-65035440D02*
X235502142Y-64854011D01*
X235502142Y-64854011D02*
X235562618Y-64612107D01*
X235562618Y-64612107D02*
X235623095Y-64491154D01*
X235623095Y-64491154D02*
X235744047Y-64370202D01*
X235744047Y-64370202D02*
X235925476Y-64309726D01*
X235925476Y-64309726D02*
X236046428Y-64309726D01*
X236046428Y-64309726D02*
X236227857Y-64370202D01*
X236227857Y-64370202D02*
X236288333Y-64430678D01*
X237497857Y-65579726D02*
X236772142Y-65579726D01*
X237134999Y-65579726D02*
X237134999Y-64309726D01*
X237134999Y-64309726D02*
X237014047Y-64491154D01*
X237014047Y-64491154D02*
X236893095Y-64612107D01*
X236893095Y-64612107D02*
X236772142Y-64672583D01*
X88833333Y-81084819D02*
X88500000Y-80608628D01*
X88261905Y-81084819D02*
X88261905Y-80084819D01*
X88261905Y-80084819D02*
X88642857Y-80084819D01*
X88642857Y-80084819D02*
X88738095Y-80132438D01*
X88738095Y-80132438D02*
X88785714Y-80180057D01*
X88785714Y-80180057D02*
X88833333Y-80275295D01*
X88833333Y-80275295D02*
X88833333Y-80418152D01*
X88833333Y-80418152D02*
X88785714Y-80513390D01*
X88785714Y-80513390D02*
X88738095Y-80561009D01*
X88738095Y-80561009D02*
X88642857Y-80608628D01*
X88642857Y-80608628D02*
X88261905Y-80608628D01*
X89166667Y-80084819D02*
X89833333Y-80084819D01*
X89833333Y-80084819D02*
X89404762Y-81084819D01*
D16*
X77306666Y-34013842D02*
X77488095Y-34074318D01*
X77488095Y-34074318D02*
X77790476Y-34074318D01*
X77790476Y-34074318D02*
X77911428Y-34013842D01*
X77911428Y-34013842D02*
X77971904Y-33953365D01*
X77971904Y-33953365D02*
X78032381Y-33832413D01*
X78032381Y-33832413D02*
X78032381Y-33711461D01*
X78032381Y-33711461D02*
X77971904Y-33590508D01*
X77971904Y-33590508D02*
X77911428Y-33530032D01*
X77911428Y-33530032D02*
X77790476Y-33469556D01*
X77790476Y-33469556D02*
X77548571Y-33409080D01*
X77548571Y-33409080D02*
X77427619Y-33348603D01*
X77427619Y-33348603D02*
X77367142Y-33288127D01*
X77367142Y-33288127D02*
X77306666Y-33167175D01*
X77306666Y-33167175D02*
X77306666Y-33046222D01*
X77306666Y-33046222D02*
X77367142Y-32925270D01*
X77367142Y-32925270D02*
X77427619Y-32864794D01*
X77427619Y-32864794D02*
X77548571Y-32804318D01*
X77548571Y-32804318D02*
X77850952Y-32804318D01*
X77850952Y-32804318D02*
X78032381Y-32864794D01*
X78455714Y-32804318D02*
X78758095Y-34074318D01*
X78758095Y-34074318D02*
X79000000Y-33167175D01*
X79000000Y-33167175D02*
X79241905Y-34074318D01*
X79241905Y-34074318D02*
X79544286Y-32804318D01*
X80693334Y-34074318D02*
X79967619Y-34074318D01*
X80330476Y-34074318D02*
X80330476Y-32804318D01*
X80330476Y-32804318D02*
X80209524Y-32985746D01*
X80209524Y-32985746D02*
X80088572Y-33106699D01*
X80088572Y-33106699D02*
X79967619Y-33167175D01*
D14*
X223402584Y-81478594D02*
X223402584Y-81956010D01*
X223068392Y-80953435D02*
X223402584Y-81478594D01*
X223402584Y-81478594D02*
X223736775Y-80953435D01*
X224596125Y-81956010D02*
X224023225Y-81956010D01*
X224309675Y-81956010D02*
X224309675Y-80953435D01*
X224309675Y-80953435D02*
X224214192Y-81096660D01*
X224214192Y-81096660D02*
X224118709Y-81192144D01*
X224118709Y-81192144D02*
X224023225Y-81239885D01*
X74666666Y-111099819D02*
X74666666Y-111814104D01*
X74666666Y-111814104D02*
X74619047Y-111956961D01*
X74619047Y-111956961D02*
X74523809Y-112052200D01*
X74523809Y-112052200D02*
X74380952Y-112099819D01*
X74380952Y-112099819D02*
X74285714Y-112099819D01*
X75095238Y-111195057D02*
X75142857Y-111147438D01*
X75142857Y-111147438D02*
X75238095Y-111099819D01*
X75238095Y-111099819D02*
X75476190Y-111099819D01*
X75476190Y-111099819D02*
X75571428Y-111147438D01*
X75571428Y-111147438D02*
X75619047Y-111195057D01*
X75619047Y-111195057D02*
X75666666Y-111290295D01*
X75666666Y-111290295D02*
X75666666Y-111385533D01*
X75666666Y-111385533D02*
X75619047Y-111528390D01*
X75619047Y-111528390D02*
X75047619Y-112099819D01*
X75047619Y-112099819D02*
X75666666Y-112099819D01*
X203916667Y-142157200D02*
X204059524Y-142204819D01*
X204059524Y-142204819D02*
X204297619Y-142204819D01*
X204297619Y-142204819D02*
X204392857Y-142157200D01*
X204392857Y-142157200D02*
X204440476Y-142109580D01*
X204440476Y-142109580D02*
X204488095Y-142014342D01*
X204488095Y-142014342D02*
X204488095Y-141919104D01*
X204488095Y-141919104D02*
X204440476Y-141823866D01*
X204440476Y-141823866D02*
X204392857Y-141776247D01*
X204392857Y-141776247D02*
X204297619Y-141728628D01*
X204297619Y-141728628D02*
X204107143Y-141681009D01*
X204107143Y-141681009D02*
X204011905Y-141633390D01*
X204011905Y-141633390D02*
X203964286Y-141585771D01*
X203964286Y-141585771D02*
X203916667Y-141490533D01*
X203916667Y-141490533D02*
X203916667Y-141395295D01*
X203916667Y-141395295D02*
X203964286Y-141300057D01*
X203964286Y-141300057D02*
X204011905Y-141252438D01*
X204011905Y-141252438D02*
X204107143Y-141204819D01*
X204107143Y-141204819D02*
X204345238Y-141204819D01*
X204345238Y-141204819D02*
X204488095Y-141252438D01*
X204821429Y-141204819D02*
X205059524Y-142204819D01*
X205059524Y-142204819D02*
X205250000Y-141490533D01*
X205250000Y-141490533D02*
X205440476Y-142204819D01*
X205440476Y-142204819D02*
X205678572Y-141204819D01*
X206488095Y-141204819D02*
X206297619Y-141204819D01*
X206297619Y-141204819D02*
X206202381Y-141252438D01*
X206202381Y-141252438D02*
X206154762Y-141300057D01*
X206154762Y-141300057D02*
X206059524Y-141442914D01*
X206059524Y-141442914D02*
X206011905Y-141633390D01*
X206011905Y-141633390D02*
X206011905Y-142014342D01*
X206011905Y-142014342D02*
X206059524Y-142109580D01*
X206059524Y-142109580D02*
X206107143Y-142157200D01*
X206107143Y-142157200D02*
X206202381Y-142204819D01*
X206202381Y-142204819D02*
X206392857Y-142204819D01*
X206392857Y-142204819D02*
X206488095Y-142157200D01*
X206488095Y-142157200D02*
X206535714Y-142109580D01*
X206535714Y-142109580D02*
X206583333Y-142014342D01*
X206583333Y-142014342D02*
X206583333Y-141776247D01*
X206583333Y-141776247D02*
X206535714Y-141681009D01*
X206535714Y-141681009D02*
X206488095Y-141633390D01*
X206488095Y-141633390D02*
X206392857Y-141585771D01*
X206392857Y-141585771D02*
X206202381Y-141585771D01*
X206202381Y-141585771D02*
X206107143Y-141633390D01*
X206107143Y-141633390D02*
X206059524Y-141681009D01*
X206059524Y-141681009D02*
X206011905Y-141776247D01*
X204297618Y-146954819D02*
X203821428Y-146954819D01*
X203821428Y-146954819D02*
X203821428Y-145954819D01*
X204630952Y-146431009D02*
X204964285Y-146431009D01*
X205107142Y-146954819D02*
X204630952Y-146954819D01*
X204630952Y-146954819D02*
X204630952Y-145954819D01*
X204630952Y-145954819D02*
X205107142Y-145954819D01*
X205869047Y-146431009D02*
X205535714Y-146431009D01*
X205535714Y-146954819D02*
X205535714Y-145954819D01*
X205535714Y-145954819D02*
X206011904Y-145954819D01*
X206250000Y-145954819D02*
X206821428Y-145954819D01*
X206535714Y-146954819D02*
X206535714Y-145954819D01*
D16*
X154552380Y-55889318D02*
X154552380Y-56917413D01*
X154552380Y-56917413D02*
X154612857Y-57038365D01*
X154612857Y-57038365D02*
X154673333Y-57098842D01*
X154673333Y-57098842D02*
X154794285Y-57159318D01*
X154794285Y-57159318D02*
X155036190Y-57159318D01*
X155036190Y-57159318D02*
X155157142Y-57098842D01*
X155157142Y-57098842D02*
X155217619Y-57038365D01*
X155217619Y-57038365D02*
X155278095Y-56917413D01*
X155278095Y-56917413D02*
X155278095Y-55889318D01*
X156427142Y-56312651D02*
X156427142Y-57159318D01*
X156124761Y-55828842D02*
X155822380Y-56735984D01*
X155822380Y-56735984D02*
X156608571Y-56735984D01*
D14*
X228788333Y-71958773D02*
X228727857Y-72019250D01*
X228727857Y-72019250D02*
X228546428Y-72079726D01*
X228546428Y-72079726D02*
X228425476Y-72079726D01*
X228425476Y-72079726D02*
X228244047Y-72019250D01*
X228244047Y-72019250D02*
X228123095Y-71898297D01*
X228123095Y-71898297D02*
X228062618Y-71777345D01*
X228062618Y-71777345D02*
X228002142Y-71535440D01*
X228002142Y-71535440D02*
X228002142Y-71354011D01*
X228002142Y-71354011D02*
X228062618Y-71112107D01*
X228062618Y-71112107D02*
X228123095Y-70991154D01*
X228123095Y-70991154D02*
X228244047Y-70870202D01*
X228244047Y-70870202D02*
X228425476Y-70809726D01*
X228425476Y-70809726D02*
X228546428Y-70809726D01*
X228546428Y-70809726D02*
X228727857Y-70870202D01*
X228727857Y-70870202D02*
X228788333Y-70930678D01*
X229211666Y-70809726D02*
X229997857Y-70809726D01*
X229997857Y-70809726D02*
X229574523Y-71293535D01*
X229574523Y-71293535D02*
X229755952Y-71293535D01*
X229755952Y-71293535D02*
X229876904Y-71354011D01*
X229876904Y-71354011D02*
X229937380Y-71414488D01*
X229937380Y-71414488D02*
X229997857Y-71535440D01*
X229997857Y-71535440D02*
X229997857Y-71837821D01*
X229997857Y-71837821D02*
X229937380Y-71958773D01*
X229937380Y-71958773D02*
X229876904Y-72019250D01*
X229876904Y-72019250D02*
X229755952Y-72079726D01*
X229755952Y-72079726D02*
X229393095Y-72079726D01*
X229393095Y-72079726D02*
X229272142Y-72019250D01*
X229272142Y-72019250D02*
X229211666Y-71958773D01*
X200916667Y-115157200D02*
X201059524Y-115204819D01*
X201059524Y-115204819D02*
X201297619Y-115204819D01*
X201297619Y-115204819D02*
X201392857Y-115157200D01*
X201392857Y-115157200D02*
X201440476Y-115109580D01*
X201440476Y-115109580D02*
X201488095Y-115014342D01*
X201488095Y-115014342D02*
X201488095Y-114919104D01*
X201488095Y-114919104D02*
X201440476Y-114823866D01*
X201440476Y-114823866D02*
X201392857Y-114776247D01*
X201392857Y-114776247D02*
X201297619Y-114728628D01*
X201297619Y-114728628D02*
X201107143Y-114681009D01*
X201107143Y-114681009D02*
X201011905Y-114633390D01*
X201011905Y-114633390D02*
X200964286Y-114585771D01*
X200964286Y-114585771D02*
X200916667Y-114490533D01*
X200916667Y-114490533D02*
X200916667Y-114395295D01*
X200916667Y-114395295D02*
X200964286Y-114300057D01*
X200964286Y-114300057D02*
X201011905Y-114252438D01*
X201011905Y-114252438D02*
X201107143Y-114204819D01*
X201107143Y-114204819D02*
X201345238Y-114204819D01*
X201345238Y-114204819D02*
X201488095Y-114252438D01*
X201821429Y-114204819D02*
X202059524Y-115204819D01*
X202059524Y-115204819D02*
X202250000Y-114490533D01*
X202250000Y-114490533D02*
X202440476Y-115204819D01*
X202440476Y-115204819D02*
X202678572Y-114204819D01*
X203202381Y-114633390D02*
X203107143Y-114585771D01*
X203107143Y-114585771D02*
X203059524Y-114538152D01*
X203059524Y-114538152D02*
X203011905Y-114442914D01*
X203011905Y-114442914D02*
X203011905Y-114395295D01*
X203011905Y-114395295D02*
X203059524Y-114300057D01*
X203059524Y-114300057D02*
X203107143Y-114252438D01*
X203107143Y-114252438D02*
X203202381Y-114204819D01*
X203202381Y-114204819D02*
X203392857Y-114204819D01*
X203392857Y-114204819D02*
X203488095Y-114252438D01*
X203488095Y-114252438D02*
X203535714Y-114300057D01*
X203535714Y-114300057D02*
X203583333Y-114395295D01*
X203583333Y-114395295D02*
X203583333Y-114442914D01*
X203583333Y-114442914D02*
X203535714Y-114538152D01*
X203535714Y-114538152D02*
X203488095Y-114585771D01*
X203488095Y-114585771D02*
X203392857Y-114633390D01*
X203392857Y-114633390D02*
X203202381Y-114633390D01*
X203202381Y-114633390D02*
X203107143Y-114681009D01*
X203107143Y-114681009D02*
X203059524Y-114728628D01*
X203059524Y-114728628D02*
X203011905Y-114823866D01*
X203011905Y-114823866D02*
X203011905Y-115014342D01*
X203011905Y-115014342D02*
X203059524Y-115109580D01*
X203059524Y-115109580D02*
X203107143Y-115157200D01*
X203107143Y-115157200D02*
X203202381Y-115204819D01*
X203202381Y-115204819D02*
X203392857Y-115204819D01*
X203392857Y-115204819D02*
X203488095Y-115157200D01*
X203488095Y-115157200D02*
X203535714Y-115109580D01*
X203535714Y-115109580D02*
X203583333Y-115014342D01*
X203583333Y-115014342D02*
X203583333Y-114823866D01*
X203583333Y-114823866D02*
X203535714Y-114728628D01*
X203535714Y-114728628D02*
X203488095Y-114681009D01*
X203488095Y-114681009D02*
X203392857Y-114633390D01*
X201059524Y-119431009D02*
X201392857Y-119431009D01*
X201535714Y-119954819D02*
X201059524Y-119954819D01*
X201059524Y-119954819D02*
X201059524Y-118954819D01*
X201059524Y-118954819D02*
X201535714Y-118954819D01*
X201916667Y-119907200D02*
X202059524Y-119954819D01*
X202059524Y-119954819D02*
X202297619Y-119954819D01*
X202297619Y-119954819D02*
X202392857Y-119907200D01*
X202392857Y-119907200D02*
X202440476Y-119859580D01*
X202440476Y-119859580D02*
X202488095Y-119764342D01*
X202488095Y-119764342D02*
X202488095Y-119669104D01*
X202488095Y-119669104D02*
X202440476Y-119573866D01*
X202440476Y-119573866D02*
X202392857Y-119526247D01*
X202392857Y-119526247D02*
X202297619Y-119478628D01*
X202297619Y-119478628D02*
X202107143Y-119431009D01*
X202107143Y-119431009D02*
X202011905Y-119383390D01*
X202011905Y-119383390D02*
X201964286Y-119335771D01*
X201964286Y-119335771D02*
X201916667Y-119240533D01*
X201916667Y-119240533D02*
X201916667Y-119145295D01*
X201916667Y-119145295D02*
X201964286Y-119050057D01*
X201964286Y-119050057D02*
X202011905Y-119002438D01*
X202011905Y-119002438D02*
X202107143Y-118954819D01*
X202107143Y-118954819D02*
X202345238Y-118954819D01*
X202345238Y-118954819D02*
X202488095Y-119002438D01*
X203488095Y-119859580D02*
X203440476Y-119907200D01*
X203440476Y-119907200D02*
X203297619Y-119954819D01*
X203297619Y-119954819D02*
X203202381Y-119954819D01*
X203202381Y-119954819D02*
X203059524Y-119907200D01*
X203059524Y-119907200D02*
X202964286Y-119811961D01*
X202964286Y-119811961D02*
X202916667Y-119716723D01*
X202916667Y-119716723D02*
X202869048Y-119526247D01*
X202869048Y-119526247D02*
X202869048Y-119383390D01*
X202869048Y-119383390D02*
X202916667Y-119192914D01*
X202916667Y-119192914D02*
X202964286Y-119097676D01*
X202964286Y-119097676D02*
X203059524Y-119002438D01*
X203059524Y-119002438D02*
X203202381Y-118954819D01*
X203202381Y-118954819D02*
X203297619Y-118954819D01*
X203297619Y-118954819D02*
X203440476Y-119002438D01*
X203440476Y-119002438D02*
X203488095Y-119050057D01*
X88833333Y-91084819D02*
X88500000Y-90608628D01*
X88261905Y-91084819D02*
X88261905Y-90084819D01*
X88261905Y-90084819D02*
X88642857Y-90084819D01*
X88642857Y-90084819D02*
X88738095Y-90132438D01*
X88738095Y-90132438D02*
X88785714Y-90180057D01*
X88785714Y-90180057D02*
X88833333Y-90275295D01*
X88833333Y-90275295D02*
X88833333Y-90418152D01*
X88833333Y-90418152D02*
X88785714Y-90513390D01*
X88785714Y-90513390D02*
X88738095Y-90561009D01*
X88738095Y-90561009D02*
X88642857Y-90608628D01*
X88642857Y-90608628D02*
X88261905Y-90608628D01*
X89309524Y-91084819D02*
X89500000Y-91084819D01*
X89500000Y-91084819D02*
X89595238Y-91037200D01*
X89595238Y-91037200D02*
X89642857Y-90989580D01*
X89642857Y-90989580D02*
X89738095Y-90846723D01*
X89738095Y-90846723D02*
X89785714Y-90656247D01*
X89785714Y-90656247D02*
X89785714Y-90275295D01*
X89785714Y-90275295D02*
X89738095Y-90180057D01*
X89738095Y-90180057D02*
X89690476Y-90132438D01*
X89690476Y-90132438D02*
X89595238Y-90084819D01*
X89595238Y-90084819D02*
X89404762Y-90084819D01*
X89404762Y-90084819D02*
X89309524Y-90132438D01*
X89309524Y-90132438D02*
X89261905Y-90180057D01*
X89261905Y-90180057D02*
X89214286Y-90275295D01*
X89214286Y-90275295D02*
X89214286Y-90513390D01*
X89214286Y-90513390D02*
X89261905Y-90608628D01*
X89261905Y-90608628D02*
X89309524Y-90656247D01*
X89309524Y-90656247D02*
X89404762Y-90703866D01*
X89404762Y-90703866D02*
X89595238Y-90703866D01*
X89595238Y-90703866D02*
X89690476Y-90656247D01*
X89690476Y-90656247D02*
X89738095Y-90608628D01*
X89738095Y-90608628D02*
X89785714Y-90513390D01*
X78208333Y-86084819D02*
X77875000Y-85608628D01*
X77636905Y-86084819D02*
X77636905Y-85084819D01*
X77636905Y-85084819D02*
X78017857Y-85084819D01*
X78017857Y-85084819D02*
X78113095Y-85132438D01*
X78113095Y-85132438D02*
X78160714Y-85180057D01*
X78160714Y-85180057D02*
X78208333Y-85275295D01*
X78208333Y-85275295D02*
X78208333Y-85418152D01*
X78208333Y-85418152D02*
X78160714Y-85513390D01*
X78160714Y-85513390D02*
X78113095Y-85561009D01*
X78113095Y-85561009D02*
X78017857Y-85608628D01*
X78017857Y-85608628D02*
X77636905Y-85608628D01*
X78589286Y-85180057D02*
X78636905Y-85132438D01*
X78636905Y-85132438D02*
X78732143Y-85084819D01*
X78732143Y-85084819D02*
X78970238Y-85084819D01*
X78970238Y-85084819D02*
X79065476Y-85132438D01*
X79065476Y-85132438D02*
X79113095Y-85180057D01*
X79113095Y-85180057D02*
X79160714Y-85275295D01*
X79160714Y-85275295D02*
X79160714Y-85370533D01*
X79160714Y-85370533D02*
X79113095Y-85513390D01*
X79113095Y-85513390D02*
X78541667Y-86084819D01*
X78541667Y-86084819D02*
X79160714Y-86084819D01*
X212912118Y-61079726D02*
X212912118Y-59809726D01*
X212912118Y-59809726D02*
X213214499Y-59809726D01*
X213214499Y-59809726D02*
X213395928Y-59870202D01*
X213395928Y-59870202D02*
X213516880Y-59991154D01*
X213516880Y-59991154D02*
X213577357Y-60112107D01*
X213577357Y-60112107D02*
X213637833Y-60354011D01*
X213637833Y-60354011D02*
X213637833Y-60535440D01*
X213637833Y-60535440D02*
X213577357Y-60777345D01*
X213577357Y-60777345D02*
X213516880Y-60898297D01*
X213516880Y-60898297D02*
X213395928Y-61019250D01*
X213395928Y-61019250D02*
X213214499Y-61079726D01*
X213214499Y-61079726D02*
X212912118Y-61079726D01*
X214847357Y-61079726D02*
X214121642Y-61079726D01*
X214484499Y-61079726D02*
X214484499Y-59809726D01*
X214484499Y-59809726D02*
X214363547Y-59991154D01*
X214363547Y-59991154D02*
X214242595Y-60112107D01*
X214242595Y-60112107D02*
X214121642Y-60172583D01*
X88357142Y-96084819D02*
X88023809Y-95608628D01*
X87785714Y-96084819D02*
X87785714Y-95084819D01*
X87785714Y-95084819D02*
X88166666Y-95084819D01*
X88166666Y-95084819D02*
X88261904Y-95132438D01*
X88261904Y-95132438D02*
X88309523Y-95180057D01*
X88309523Y-95180057D02*
X88357142Y-95275295D01*
X88357142Y-95275295D02*
X88357142Y-95418152D01*
X88357142Y-95418152D02*
X88309523Y-95513390D01*
X88309523Y-95513390D02*
X88261904Y-95561009D01*
X88261904Y-95561009D02*
X88166666Y-95608628D01*
X88166666Y-95608628D02*
X87785714Y-95608628D01*
X89309523Y-96084819D02*
X88738095Y-96084819D01*
X89023809Y-96084819D02*
X89023809Y-95084819D01*
X89023809Y-95084819D02*
X88928571Y-95227676D01*
X88928571Y-95227676D02*
X88833333Y-95322914D01*
X88833333Y-95322914D02*
X88738095Y-95370533D01*
X89928571Y-95084819D02*
X90023809Y-95084819D01*
X90023809Y-95084819D02*
X90119047Y-95132438D01*
X90119047Y-95132438D02*
X90166666Y-95180057D01*
X90166666Y-95180057D02*
X90214285Y-95275295D01*
X90214285Y-95275295D02*
X90261904Y-95465771D01*
X90261904Y-95465771D02*
X90261904Y-95703866D01*
X90261904Y-95703866D02*
X90214285Y-95894342D01*
X90214285Y-95894342D02*
X90166666Y-95989580D01*
X90166666Y-95989580D02*
X90119047Y-96037200D01*
X90119047Y-96037200D02*
X90023809Y-96084819D01*
X90023809Y-96084819D02*
X89928571Y-96084819D01*
X89928571Y-96084819D02*
X89833333Y-96037200D01*
X89833333Y-96037200D02*
X89785714Y-95989580D01*
X89785714Y-95989580D02*
X89738095Y-95894342D01*
X89738095Y-95894342D02*
X89690476Y-95703866D01*
X89690476Y-95703866D02*
X89690476Y-95465771D01*
X89690476Y-95465771D02*
X89738095Y-95275295D01*
X89738095Y-95275295D02*
X89785714Y-95180057D01*
X89785714Y-95180057D02*
X89833333Y-95132438D01*
X89833333Y-95132438D02*
X89928571Y-95084819D01*
X128999819Y-85766904D02*
X129809342Y-85766904D01*
X129809342Y-85766904D02*
X129904580Y-85719285D01*
X129904580Y-85719285D02*
X129952200Y-85671666D01*
X129952200Y-85671666D02*
X129999819Y-85576428D01*
X129999819Y-85576428D02*
X129999819Y-85385952D01*
X129999819Y-85385952D02*
X129952200Y-85290714D01*
X129952200Y-85290714D02*
X129904580Y-85243095D01*
X129904580Y-85243095D02*
X129809342Y-85195476D01*
X129809342Y-85195476D02*
X128999819Y-85195476D01*
X129095057Y-84766904D02*
X129047438Y-84719285D01*
X129047438Y-84719285D02*
X128999819Y-84624047D01*
X128999819Y-84624047D02*
X128999819Y-84385952D01*
X128999819Y-84385952D02*
X129047438Y-84290714D01*
X129047438Y-84290714D02*
X129095057Y-84243095D01*
X129095057Y-84243095D02*
X129190295Y-84195476D01*
X129190295Y-84195476D02*
X129285533Y-84195476D01*
X129285533Y-84195476D02*
X129428390Y-84243095D01*
X129428390Y-84243095D02*
X129999819Y-84814523D01*
X129999819Y-84814523D02*
X129999819Y-84195476D01*
X142723571Y-39458773D02*
X142663095Y-39519250D01*
X142663095Y-39519250D02*
X142481666Y-39579726D01*
X142481666Y-39579726D02*
X142360714Y-39579726D01*
X142360714Y-39579726D02*
X142179285Y-39519250D01*
X142179285Y-39519250D02*
X142058333Y-39398297D01*
X142058333Y-39398297D02*
X141997856Y-39277345D01*
X141997856Y-39277345D02*
X141937380Y-39035440D01*
X141937380Y-39035440D02*
X141937380Y-38854011D01*
X141937380Y-38854011D02*
X141997856Y-38612107D01*
X141997856Y-38612107D02*
X142058333Y-38491154D01*
X142058333Y-38491154D02*
X142179285Y-38370202D01*
X142179285Y-38370202D02*
X142360714Y-38309726D01*
X142360714Y-38309726D02*
X142481666Y-38309726D01*
X142481666Y-38309726D02*
X142663095Y-38370202D01*
X142663095Y-38370202D02*
X142723571Y-38430678D01*
X143933095Y-39579726D02*
X143207380Y-39579726D01*
X143570237Y-39579726D02*
X143570237Y-38309726D01*
X143570237Y-38309726D02*
X143449285Y-38491154D01*
X143449285Y-38491154D02*
X143328333Y-38612107D01*
X143328333Y-38612107D02*
X143207380Y-38672583D01*
X145142619Y-39579726D02*
X144416904Y-39579726D01*
X144779761Y-39579726D02*
X144779761Y-38309726D01*
X144779761Y-38309726D02*
X144658809Y-38491154D01*
X144658809Y-38491154D02*
X144537857Y-38612107D01*
X144537857Y-38612107D02*
X144416904Y-38672583D01*
X78208333Y-101084819D02*
X77875000Y-100608628D01*
X77636905Y-101084819D02*
X77636905Y-100084819D01*
X77636905Y-100084819D02*
X78017857Y-100084819D01*
X78017857Y-100084819D02*
X78113095Y-100132438D01*
X78113095Y-100132438D02*
X78160714Y-100180057D01*
X78160714Y-100180057D02*
X78208333Y-100275295D01*
X78208333Y-100275295D02*
X78208333Y-100418152D01*
X78208333Y-100418152D02*
X78160714Y-100513390D01*
X78160714Y-100513390D02*
X78113095Y-100561009D01*
X78113095Y-100561009D02*
X78017857Y-100608628D01*
X78017857Y-100608628D02*
X77636905Y-100608628D01*
X79113095Y-100084819D02*
X78636905Y-100084819D01*
X78636905Y-100084819D02*
X78589286Y-100561009D01*
X78589286Y-100561009D02*
X78636905Y-100513390D01*
X78636905Y-100513390D02*
X78732143Y-100465771D01*
X78732143Y-100465771D02*
X78970238Y-100465771D01*
X78970238Y-100465771D02*
X79065476Y-100513390D01*
X79065476Y-100513390D02*
X79113095Y-100561009D01*
X79113095Y-100561009D02*
X79160714Y-100656247D01*
X79160714Y-100656247D02*
X79160714Y-100894342D01*
X79160714Y-100894342D02*
X79113095Y-100989580D01*
X79113095Y-100989580D02*
X79065476Y-101037200D01*
X79065476Y-101037200D02*
X78970238Y-101084819D01*
X78970238Y-101084819D02*
X78732143Y-101084819D01*
X78732143Y-101084819D02*
X78636905Y-101037200D01*
X78636905Y-101037200D02*
X78589286Y-100989580D01*
X88547142Y-101084819D02*
X88213809Y-100608628D01*
X87975714Y-101084819D02*
X87975714Y-100084819D01*
X87975714Y-100084819D02*
X88356666Y-100084819D01*
X88356666Y-100084819D02*
X88451904Y-100132438D01*
X88451904Y-100132438D02*
X88499523Y-100180057D01*
X88499523Y-100180057D02*
X88547142Y-100275295D01*
X88547142Y-100275295D02*
X88547142Y-100418152D01*
X88547142Y-100418152D02*
X88499523Y-100513390D01*
X88499523Y-100513390D02*
X88451904Y-100561009D01*
X88451904Y-100561009D02*
X88356666Y-100608628D01*
X88356666Y-100608628D02*
X87975714Y-100608628D01*
X89499523Y-101084819D02*
X88928095Y-101084819D01*
X89213809Y-101084819D02*
X89213809Y-100084819D01*
X89213809Y-100084819D02*
X89118571Y-100227676D01*
X89118571Y-100227676D02*
X89023333Y-100322914D01*
X89023333Y-100322914D02*
X88928095Y-100370533D01*
X90451904Y-101084819D02*
X89880476Y-101084819D01*
X90166190Y-101084819D02*
X90166190Y-100084819D01*
X90166190Y-100084819D02*
X90070952Y-100227676D01*
X90070952Y-100227676D02*
X89975714Y-100322914D01*
X89975714Y-100322914D02*
X89880476Y-100370533D01*
X128843773Y-101816428D02*
X128904250Y-101876904D01*
X128904250Y-101876904D02*
X128964726Y-102058333D01*
X128964726Y-102058333D02*
X128964726Y-102179285D01*
X128964726Y-102179285D02*
X128904250Y-102360714D01*
X128904250Y-102360714D02*
X128783297Y-102481666D01*
X128783297Y-102481666D02*
X128662345Y-102542143D01*
X128662345Y-102542143D02*
X128420440Y-102602619D01*
X128420440Y-102602619D02*
X128239011Y-102602619D01*
X128239011Y-102602619D02*
X127997107Y-102542143D01*
X127997107Y-102542143D02*
X127876154Y-102481666D01*
X127876154Y-102481666D02*
X127755202Y-102360714D01*
X127755202Y-102360714D02*
X127694726Y-102179285D01*
X127694726Y-102179285D02*
X127694726Y-102058333D01*
X127694726Y-102058333D02*
X127755202Y-101876904D01*
X127755202Y-101876904D02*
X127815678Y-101816428D01*
X128964726Y-100606904D02*
X128964726Y-101332619D01*
X128964726Y-100969762D02*
X127694726Y-100969762D01*
X127694726Y-100969762D02*
X127876154Y-101090714D01*
X127876154Y-101090714D02*
X127997107Y-101211666D01*
X127997107Y-101211666D02*
X128057583Y-101332619D01*
X128118059Y-99518333D02*
X128964726Y-99518333D01*
X127634250Y-99820714D02*
X128541392Y-100123095D01*
X128541392Y-100123095D02*
X128541392Y-99336904D01*
X78208333Y-96084819D02*
X77875000Y-95608628D01*
X77636905Y-96084819D02*
X77636905Y-95084819D01*
X77636905Y-95084819D02*
X78017857Y-95084819D01*
X78017857Y-95084819D02*
X78113095Y-95132438D01*
X78113095Y-95132438D02*
X78160714Y-95180057D01*
X78160714Y-95180057D02*
X78208333Y-95275295D01*
X78208333Y-95275295D02*
X78208333Y-95418152D01*
X78208333Y-95418152D02*
X78160714Y-95513390D01*
X78160714Y-95513390D02*
X78113095Y-95561009D01*
X78113095Y-95561009D02*
X78017857Y-95608628D01*
X78017857Y-95608628D02*
X77636905Y-95608628D01*
X79065476Y-95418152D02*
X79065476Y-96084819D01*
X78827381Y-95037200D02*
X78589286Y-95751485D01*
X78589286Y-95751485D02*
X79208333Y-95751485D01*
X103547618Y-136454819D02*
X103214285Y-135978628D01*
X102976190Y-136454819D02*
X102976190Y-135454819D01*
X102976190Y-135454819D02*
X103357142Y-135454819D01*
X103357142Y-135454819D02*
X103452380Y-135502438D01*
X103452380Y-135502438D02*
X103499999Y-135550057D01*
X103499999Y-135550057D02*
X103547618Y-135645295D01*
X103547618Y-135645295D02*
X103547618Y-135788152D01*
X103547618Y-135788152D02*
X103499999Y-135883390D01*
X103499999Y-135883390D02*
X103452380Y-135931009D01*
X103452380Y-135931009D02*
X103357142Y-135978628D01*
X103357142Y-135978628D02*
X102976190Y-135978628D01*
X103976190Y-135931009D02*
X104309523Y-135931009D01*
X104452380Y-136454819D02*
X103976190Y-136454819D01*
X103976190Y-136454819D02*
X103976190Y-135454819D01*
X103976190Y-135454819D02*
X104452380Y-135454819D01*
X104833333Y-136407200D02*
X104976190Y-136454819D01*
X104976190Y-136454819D02*
X105214285Y-136454819D01*
X105214285Y-136454819D02*
X105309523Y-136407200D01*
X105309523Y-136407200D02*
X105357142Y-136359580D01*
X105357142Y-136359580D02*
X105404761Y-136264342D01*
X105404761Y-136264342D02*
X105404761Y-136169104D01*
X105404761Y-136169104D02*
X105357142Y-136073866D01*
X105357142Y-136073866D02*
X105309523Y-136026247D01*
X105309523Y-136026247D02*
X105214285Y-135978628D01*
X105214285Y-135978628D02*
X105023809Y-135931009D01*
X105023809Y-135931009D02*
X104928571Y-135883390D01*
X104928571Y-135883390D02*
X104880952Y-135835771D01*
X104880952Y-135835771D02*
X104833333Y-135740533D01*
X104833333Y-135740533D02*
X104833333Y-135645295D01*
X104833333Y-135645295D02*
X104880952Y-135550057D01*
X104880952Y-135550057D02*
X104928571Y-135502438D01*
X104928571Y-135502438D02*
X105023809Y-135454819D01*
X105023809Y-135454819D02*
X105261904Y-135454819D01*
X105261904Y-135454819D02*
X105404761Y-135502438D01*
X105833333Y-135931009D02*
X106166666Y-135931009D01*
X106309523Y-136454819D02*
X105833333Y-136454819D01*
X105833333Y-136454819D02*
X105833333Y-135454819D01*
X105833333Y-135454819D02*
X106309523Y-135454819D01*
X106595238Y-135454819D02*
X107166666Y-135454819D01*
X106880952Y-136454819D02*
X106880952Y-135454819D01*
D16*
X231076667Y-34304318D02*
X231076667Y-35211461D01*
X231076667Y-35211461D02*
X231016190Y-35392889D01*
X231016190Y-35392889D02*
X230895238Y-35513842D01*
X230895238Y-35513842D02*
X230713809Y-35574318D01*
X230713809Y-35574318D02*
X230592857Y-35574318D01*
X232346667Y-35574318D02*
X231620952Y-35574318D01*
X231983809Y-35574318D02*
X231983809Y-34304318D01*
X231983809Y-34304318D02*
X231862857Y-34485746D01*
X231862857Y-34485746D02*
X231741905Y-34606699D01*
X231741905Y-34606699D02*
X231620952Y-34667175D01*
D14*
X215916667Y-146907200D02*
X216059524Y-146954819D01*
X216059524Y-146954819D02*
X216297619Y-146954819D01*
X216297619Y-146954819D02*
X216392857Y-146907200D01*
X216392857Y-146907200D02*
X216440476Y-146859580D01*
X216440476Y-146859580D02*
X216488095Y-146764342D01*
X216488095Y-146764342D02*
X216488095Y-146669104D01*
X216488095Y-146669104D02*
X216440476Y-146573866D01*
X216440476Y-146573866D02*
X216392857Y-146526247D01*
X216392857Y-146526247D02*
X216297619Y-146478628D01*
X216297619Y-146478628D02*
X216107143Y-146431009D01*
X216107143Y-146431009D02*
X216011905Y-146383390D01*
X216011905Y-146383390D02*
X215964286Y-146335771D01*
X215964286Y-146335771D02*
X215916667Y-146240533D01*
X215916667Y-146240533D02*
X215916667Y-146145295D01*
X215916667Y-146145295D02*
X215964286Y-146050057D01*
X215964286Y-146050057D02*
X216011905Y-146002438D01*
X216011905Y-146002438D02*
X216107143Y-145954819D01*
X216107143Y-145954819D02*
X216345238Y-145954819D01*
X216345238Y-145954819D02*
X216488095Y-146002438D01*
X216821429Y-145954819D02*
X217059524Y-146954819D01*
X217059524Y-146954819D02*
X217250000Y-146240533D01*
X217250000Y-146240533D02*
X217440476Y-146954819D01*
X217440476Y-146954819D02*
X217678572Y-145954819D01*
X218535714Y-145954819D02*
X218059524Y-145954819D01*
X218059524Y-145954819D02*
X218011905Y-146431009D01*
X218011905Y-146431009D02*
X218059524Y-146383390D01*
X218059524Y-146383390D02*
X218154762Y-146335771D01*
X218154762Y-146335771D02*
X218392857Y-146335771D01*
X218392857Y-146335771D02*
X218488095Y-146383390D01*
X218488095Y-146383390D02*
X218535714Y-146431009D01*
X218535714Y-146431009D02*
X218583333Y-146526247D01*
X218583333Y-146526247D02*
X218583333Y-146764342D01*
X218583333Y-146764342D02*
X218535714Y-146859580D01*
X218535714Y-146859580D02*
X218488095Y-146907200D01*
X218488095Y-146907200D02*
X218392857Y-146954819D01*
X218392857Y-146954819D02*
X218154762Y-146954819D01*
X218154762Y-146954819D02*
X218059524Y-146907200D01*
X218059524Y-146907200D02*
X218011905Y-146859580D01*
X215369048Y-155954819D02*
X215369048Y-154954819D01*
X215369048Y-154954819D02*
X215607143Y-154954819D01*
X215607143Y-154954819D02*
X215750000Y-155002438D01*
X215750000Y-155002438D02*
X215845238Y-155097676D01*
X215845238Y-155097676D02*
X215892857Y-155192914D01*
X215892857Y-155192914D02*
X215940476Y-155383390D01*
X215940476Y-155383390D02*
X215940476Y-155526247D01*
X215940476Y-155526247D02*
X215892857Y-155716723D01*
X215892857Y-155716723D02*
X215845238Y-155811961D01*
X215845238Y-155811961D02*
X215750000Y-155907200D01*
X215750000Y-155907200D02*
X215607143Y-155954819D01*
X215607143Y-155954819D02*
X215369048Y-155954819D01*
X216559524Y-154954819D02*
X216750000Y-154954819D01*
X216750000Y-154954819D02*
X216845238Y-155002438D01*
X216845238Y-155002438D02*
X216940476Y-155097676D01*
X216940476Y-155097676D02*
X216988095Y-155288152D01*
X216988095Y-155288152D02*
X216988095Y-155621485D01*
X216988095Y-155621485D02*
X216940476Y-155811961D01*
X216940476Y-155811961D02*
X216845238Y-155907200D01*
X216845238Y-155907200D02*
X216750000Y-155954819D01*
X216750000Y-155954819D02*
X216559524Y-155954819D01*
X216559524Y-155954819D02*
X216464286Y-155907200D01*
X216464286Y-155907200D02*
X216369048Y-155811961D01*
X216369048Y-155811961D02*
X216321429Y-155621485D01*
X216321429Y-155621485D02*
X216321429Y-155288152D01*
X216321429Y-155288152D02*
X216369048Y-155097676D01*
X216369048Y-155097676D02*
X216464286Y-155002438D01*
X216464286Y-155002438D02*
X216559524Y-154954819D01*
X217321429Y-154954819D02*
X217559524Y-155954819D01*
X217559524Y-155954819D02*
X217750000Y-155240533D01*
X217750000Y-155240533D02*
X217940476Y-155954819D01*
X217940476Y-155954819D02*
X218178572Y-154954819D01*
X218559524Y-155954819D02*
X218559524Y-154954819D01*
X218559524Y-154954819D02*
X219130952Y-155954819D01*
X219130952Y-155954819D02*
X219130952Y-154954819D01*
X72458773Y-66816428D02*
X72519250Y-66876904D01*
X72519250Y-66876904D02*
X72579726Y-67058333D01*
X72579726Y-67058333D02*
X72579726Y-67179285D01*
X72579726Y-67179285D02*
X72519250Y-67360714D01*
X72519250Y-67360714D02*
X72398297Y-67481666D01*
X72398297Y-67481666D02*
X72277345Y-67542143D01*
X72277345Y-67542143D02*
X72035440Y-67602619D01*
X72035440Y-67602619D02*
X71854011Y-67602619D01*
X71854011Y-67602619D02*
X71612107Y-67542143D01*
X71612107Y-67542143D02*
X71491154Y-67481666D01*
X71491154Y-67481666D02*
X71370202Y-67360714D01*
X71370202Y-67360714D02*
X71309726Y-67179285D01*
X71309726Y-67179285D02*
X71309726Y-67058333D01*
X71309726Y-67058333D02*
X71370202Y-66876904D01*
X71370202Y-66876904D02*
X71430678Y-66816428D01*
X72579726Y-65606904D02*
X72579726Y-66332619D01*
X72579726Y-65969762D02*
X71309726Y-65969762D01*
X71309726Y-65969762D02*
X71491154Y-66090714D01*
X71491154Y-66090714D02*
X71612107Y-66211666D01*
X71612107Y-66211666D02*
X71672583Y-66332619D01*
X71309726Y-64457857D02*
X71309726Y-65062619D01*
X71309726Y-65062619D02*
X71914488Y-65123095D01*
X71914488Y-65123095D02*
X71854011Y-65062619D01*
X71854011Y-65062619D02*
X71793535Y-64941666D01*
X71793535Y-64941666D02*
X71793535Y-64639285D01*
X71793535Y-64639285D02*
X71854011Y-64518333D01*
X71854011Y-64518333D02*
X71914488Y-64457857D01*
X71914488Y-64457857D02*
X72035440Y-64397380D01*
X72035440Y-64397380D02*
X72337821Y-64397380D01*
X72337821Y-64397380D02*
X72458773Y-64457857D01*
X72458773Y-64457857D02*
X72519250Y-64518333D01*
X72519250Y-64518333D02*
X72579726Y-64639285D01*
X72579726Y-64639285D02*
X72579726Y-64941666D01*
X72579726Y-64941666D02*
X72519250Y-65062619D01*
X72519250Y-65062619D02*
X72458773Y-65123095D01*
D17*
%TO.C,SW3*%
X228750000Y-114000000D02*
X228750000Y-115500000D01*
X230000000Y-118000000D02*
X234500000Y-118000000D01*
X234500000Y-111500000D02*
X230000000Y-111500000D01*
X235750000Y-115500000D02*
X235750000Y-114000000D01*
D10*
%TO.C,J4*%
X70620000Y-135150000D02*
X70620000Y-148850000D01*
X70620000Y-148850000D02*
X75620000Y-148850000D01*
X75620000Y-135150000D02*
X70620000Y-135150000D01*
X75680000Y-126400000D02*
X90680000Y-126400000D01*
X75680000Y-157600000D02*
X75680000Y-126400000D01*
X90680000Y-126400000D02*
X90680000Y-157600000D01*
X90680000Y-157600000D02*
X75680000Y-157600000D01*
X91220000Y-147480000D02*
X91220000Y-147480000D01*
X91420000Y-147480000D02*
X91420000Y-147480000D01*
X91220000Y-147480000D02*
G75*
G02*
X91420000Y-147480000I100000J0D01*
G01*
X91420000Y-147480000D02*
G75*
G02*
X91220000Y-147480000I-100000J0D01*
G01*
D17*
%TO.C,R6*%
X75105000Y-106630000D02*
X81645000Y-106630000D01*
X75105000Y-106960000D02*
X75105000Y-106630000D01*
X75105000Y-109040000D02*
X75105000Y-109370000D01*
X75105000Y-109370000D02*
X81645000Y-109370000D01*
X81645000Y-106630000D02*
X81645000Y-106960000D01*
X81645000Y-109370000D02*
X81645000Y-109040000D01*
%TO.C,U7*%
X104430000Y-68085000D02*
X104430000Y-103885000D01*
X104430000Y-103885000D02*
X122330000Y-103885000D01*
X106920000Y-68145000D02*
X106920000Y-103825000D01*
X106920000Y-103825000D02*
X119840000Y-103825000D01*
X112380000Y-68145000D02*
X106920000Y-68145000D01*
X119840000Y-68145000D02*
X114380000Y-68145000D01*
X119840000Y-103825000D02*
X119840000Y-68145000D01*
X122330000Y-68085000D02*
X104430000Y-68085000D01*
X122330000Y-103885000D02*
X122330000Y-68085000D01*
X114380000Y-68145000D02*
G75*
G02*
X112380000Y-68145000I-1000000J0D01*
G01*
%TO.C,U8*%
X73175000Y-68670000D02*
X73175000Y-78950000D01*
X73175000Y-78950000D02*
X93735000Y-78950000D01*
X73235000Y-71160000D02*
X73235000Y-72810000D01*
X73235000Y-74810000D02*
X73235000Y-76460000D01*
X73235000Y-76460000D02*
X93675000Y-76460000D01*
X93675000Y-71160000D02*
X73235000Y-71160000D01*
X93675000Y-76460000D02*
X93675000Y-71160000D01*
X93735000Y-68670000D02*
X73175000Y-68670000D01*
X93735000Y-78950000D02*
X93735000Y-68670000D01*
X73235000Y-72810000D02*
G75*
G02*
X73235000Y-74810000I0J-1000000D01*
G01*
%TO.C,R8*%
X85730000Y-86630000D02*
X92270000Y-86630000D01*
X85730000Y-86960000D02*
X85730000Y-86630000D01*
X85730000Y-89040000D02*
X85730000Y-89370000D01*
X85730000Y-89370000D02*
X92270000Y-89370000D01*
X92270000Y-86630000D02*
X92270000Y-86960000D01*
X92270000Y-89370000D02*
X92270000Y-89040000D01*
%TO.C,R1*%
X75105000Y-81630000D02*
X81645000Y-81630000D01*
X75105000Y-81960000D02*
X75105000Y-81630000D01*
X75105000Y-84040000D02*
X75105000Y-84370000D01*
X75105000Y-84370000D02*
X81645000Y-84370000D01*
X81645000Y-81630000D02*
X81645000Y-81960000D01*
X81645000Y-84370000D02*
X81645000Y-84040000D01*
%TO.C,R13*%
X95630000Y-88420000D02*
X95960000Y-88420000D01*
X95630000Y-94960000D02*
X95630000Y-88420000D01*
X95960000Y-94960000D02*
X95630000Y-94960000D01*
X98040000Y-94960000D02*
X98370000Y-94960000D01*
X98370000Y-88420000D02*
X98040000Y-88420000D01*
X98370000Y-94960000D02*
X98370000Y-88420000D01*
D18*
%TO.C,J5*%
X84075000Y-114795000D02*
X122685000Y-114795000D01*
X84075000Y-119745000D02*
X84075000Y-114795000D01*
X122685000Y-114795000D02*
X122685000Y-119745000D01*
X122685000Y-119745000D02*
X84075000Y-119745000D01*
D10*
X85600000Y-114350000D02*
G75*
G02*
X85500000Y-114350000I-50000J0D01*
G01*
X85500000Y-114350000D02*
G75*
G02*
X85600000Y-114350000I50000J0D01*
G01*
%TO.C,U1*%
X233470000Y-57700000D02*
X238070000Y-57700000D01*
X238070000Y-47300000D02*
X235000000Y-47300000D01*
X238070000Y-57700000D02*
X238070000Y-47300000D01*
D16*
%TO.C,C12*%
X208795000Y-69460000D02*
X208795000Y-74540000D01*
X211975000Y-69460000D02*
X211975000Y-74540000D01*
D17*
%TO.C,U3*%
X73175000Y-52670000D02*
X73175000Y-62950000D01*
X73175000Y-62950000D02*
X91195000Y-62950000D01*
X73235000Y-55160000D02*
X73235000Y-56810000D01*
X73235000Y-58810000D02*
X73235000Y-60460000D01*
X73235000Y-60460000D02*
X91135000Y-60460000D01*
X91135000Y-55160000D02*
X73235000Y-55160000D01*
X91135000Y-60460000D02*
X91135000Y-55160000D01*
X91195000Y-52670000D02*
X73175000Y-52670000D01*
X91195000Y-62950000D02*
X91195000Y-52670000D01*
X73235000Y-56810000D02*
G75*
G02*
X73235000Y-58810000I0J-1000000D01*
G01*
D16*
%TO.C,C10*%
X74460000Y-48410000D02*
X79540000Y-48410000D01*
X74460000Y-51590000D02*
X79540000Y-51590000D01*
D17*
%TO.C,X1*%
X217430000Y-85990000D02*
X217430000Y-98140000D01*
X217430000Y-98140000D02*
X237580000Y-98140000D01*
X237580000Y-85240000D02*
X218180000Y-85240000D01*
X238330000Y-97390000D02*
X238330000Y-85990000D01*
X217430000Y-85990000D02*
G75*
G02*
X218180000Y-85240000I750000J0D01*
G01*
X237580000Y-85240000D02*
G75*
G02*
X238330000Y-85990000I0J-750000D01*
G01*
X238330000Y-97390000D02*
G75*
G02*
X237580000Y-98140000I-750000J0D01*
G01*
%TO.C,SW4*%
X213750000Y-132000000D02*
X213750000Y-133500000D01*
X215000000Y-136000000D02*
X219500000Y-136000000D01*
X219500000Y-129500000D02*
X215000000Y-129500000D01*
X220750000Y-133500000D02*
X220750000Y-132000000D01*
D16*
%TO.C,C4*%
X231500000Y-76600000D02*
X236580000Y-76600000D01*
X231500000Y-79780000D02*
X236580000Y-79780000D01*
%TO.C,C2*%
X233960000Y-66910000D02*
X239040000Y-66910000D01*
X233960000Y-70090000D02*
X239040000Y-70090000D01*
D18*
%TO.C,D3*%
X95270000Y-36050000D02*
X95270000Y-36050000D01*
X95270000Y-41950000D02*
X95270000Y-41950000D01*
X97770000Y-37500000D02*
X97770000Y-40500000D01*
X95270000Y-36050000D02*
G75*
G02*
X95270000Y-41950000I0J-2950000D01*
G01*
X95270000Y-41950000D02*
G75*
G02*
X95270000Y-36050000I0J2950000D01*
G01*
D10*
%TO.C,C6*%
X99500000Y-71000000D02*
G75*
G02*
X94500000Y-71000000I-2500000J0D01*
G01*
X94500000Y-71000000D02*
G75*
G02*
X99500000Y-71000000I2500000J0D01*
G01*
D16*
%TO.C,C9*%
X149920000Y-95410000D02*
X155000000Y-95410000D01*
X149920000Y-98590000D02*
X155000000Y-98590000D01*
D17*
%TO.C,SW7*%
X225750000Y-141000000D02*
X225750000Y-142500000D01*
X227000000Y-145000000D02*
X231500000Y-145000000D01*
X231500000Y-138500000D02*
X227000000Y-138500000D01*
X232750000Y-142500000D02*
X232750000Y-141000000D01*
%TO.C,U5*%
X189430000Y-68085000D02*
X189430000Y-103885000D01*
X189430000Y-103885000D02*
X207330000Y-103885000D01*
X191920000Y-68145000D02*
X191920000Y-103825000D01*
X191920000Y-103825000D02*
X204840000Y-103825000D01*
X197380000Y-68145000D02*
X191920000Y-68145000D01*
X204840000Y-68145000D02*
X199380000Y-68145000D01*
X204840000Y-103825000D02*
X204840000Y-68145000D01*
X207330000Y-68085000D02*
X189430000Y-68085000D01*
X207330000Y-103885000D02*
X207330000Y-68085000D01*
X199380000Y-68145000D02*
G75*
G02*
X197380000Y-68145000I-1000000J0D01*
G01*
D16*
%TO.C,C13*%
X183000000Y-117410000D02*
X188080000Y-117410000D01*
X183000000Y-120590000D02*
X188080000Y-120590000D01*
D10*
%TO.C,D2*%
X217838000Y-64850000D02*
X221900000Y-64850000D01*
X221900000Y-63550000D02*
X226800000Y-63550000D01*
X221900000Y-64850000D02*
X223200000Y-63550000D01*
X221900000Y-66150000D02*
X221900000Y-63550000D01*
X226800000Y-63550000D02*
X226800000Y-66150000D01*
X226800000Y-64850000D02*
X230862000Y-64850000D01*
X226800000Y-66150000D02*
X221900000Y-66150000D01*
%TO.C,J3*%
X115855000Y-128650000D02*
X115855000Y-130000000D01*
X117500000Y-131350000D02*
X157245000Y-131350000D01*
X157245000Y-128650000D02*
X115855000Y-128650000D01*
X157245000Y-131350000D02*
X157245000Y-128650000D01*
D17*
%TO.C,R3*%
X75105000Y-91630000D02*
X81645000Y-91630000D01*
X75105000Y-91960000D02*
X75105000Y-91630000D01*
X75105000Y-94040000D02*
X75105000Y-94370000D01*
X75105000Y-94370000D02*
X81645000Y-94370000D01*
X81645000Y-91630000D02*
X81645000Y-91960000D01*
X81645000Y-94370000D02*
X81645000Y-94040000D01*
%TO.C,R12*%
X85730000Y-106630000D02*
X92270000Y-106630000D01*
X85730000Y-106960000D02*
X85730000Y-106630000D01*
X85730000Y-109040000D02*
X85730000Y-109370000D01*
X85730000Y-109370000D02*
X92270000Y-109370000D01*
X92270000Y-106630000D02*
X92270000Y-106960000D01*
X92270000Y-109370000D02*
X92270000Y-109040000D01*
D10*
%TO.C,C8*%
X99500000Y-83000000D02*
G75*
G02*
X94500000Y-83000000I-2500000J0D01*
G01*
X94500000Y-83000000D02*
G75*
G02*
X99500000Y-83000000I2500000J0D01*
G01*
D17*
%TO.C,U6*%
X130485000Y-102055000D02*
X130485000Y-119955000D01*
X130485000Y-119955000D02*
X181525000Y-119955000D01*
X130545000Y-104545000D02*
X130545000Y-110005000D01*
X130545000Y-112005000D02*
X130545000Y-117465000D01*
X130545000Y-117465000D02*
X181465000Y-117465000D01*
X181465000Y-104545000D02*
X130545000Y-104545000D01*
X181465000Y-117465000D02*
X181465000Y-104545000D01*
X181525000Y-102055000D02*
X130485000Y-102055000D01*
X181525000Y-119955000D02*
X181525000Y-102055000D01*
X130545000Y-110005000D02*
G75*
G02*
X130545000Y-112005000I0J-1000000D01*
G01*
D10*
%TO.C,C7*%
X99500000Y-77000000D02*
G75*
G02*
X94500000Y-77000000I-2500000J0D01*
G01*
X94500000Y-77000000D02*
G75*
G02*
X99500000Y-77000000I2500000J0D01*
G01*
%TO.C,C5*%
X99500000Y-65000000D02*
G75*
G02*
X94500000Y-65000000I-2500000J0D01*
G01*
X94500000Y-65000000D02*
G75*
G02*
X99500000Y-65000000I2500000J0D01*
G01*
%TO.C,C1*%
X239000000Y-61000000D02*
G75*
G02*
X234000000Y-61000000I-2500000J0D01*
G01*
X234000000Y-61000000D02*
G75*
G02*
X239000000Y-61000000I2500000J0D01*
G01*
D17*
%TO.C,R7*%
X85730000Y-81630000D02*
X92270000Y-81630000D01*
X85730000Y-81960000D02*
X85730000Y-81630000D01*
X85730000Y-84040000D02*
X85730000Y-84370000D01*
X85730000Y-84370000D02*
X92270000Y-84370000D01*
X92270000Y-81630000D02*
X92270000Y-81960000D01*
X92270000Y-84370000D02*
X92270000Y-84040000D01*
D18*
%TO.C,SW1*%
X72000000Y-38500000D02*
X72000000Y-38500000D01*
X72100000Y-38500000D02*
X72100000Y-38500000D01*
D10*
X72650000Y-35100000D02*
X85350000Y-35100000D01*
X72650000Y-41900000D02*
X72650000Y-35100000D01*
X85350000Y-35100000D02*
X85350000Y-41900000D01*
X85350000Y-41900000D02*
X72650000Y-41900000D01*
D18*
X72000000Y-38500000D02*
G75*
G02*
X72100000Y-38500000I50000J0D01*
G01*
X72100000Y-38500000D02*
G75*
G02*
X72000000Y-38500000I-50000J0D01*
G01*
D19*
%TO.C,Y1*%
X220530000Y-75860000D02*
X227230000Y-75860000D01*
X227230000Y-80520000D02*
X220530000Y-80520000D01*
X218205000Y-78365000D02*
G75*
G02*
X220530000Y-75860000I2415001J89999D01*
G01*
X220530000Y-80520000D02*
G75*
G02*
X218205000Y-78365000I-84999J2240001D01*
G01*
X227230000Y-75860000D02*
G75*
G02*
X229555000Y-78365000I-90000J-2415000D01*
G01*
X229555000Y-78365000D02*
G75*
G02*
X227230000Y-80520000I-2240000J85000D01*
G01*
D17*
%TO.C,J2*%
X73670000Y-112645000D02*
X75000000Y-112645000D01*
X73670000Y-113975000D02*
X73670000Y-112645000D01*
X73670000Y-115245000D02*
X73670000Y-120385000D01*
X73670000Y-115245000D02*
X76330000Y-115245000D01*
X73670000Y-120385000D02*
X76330000Y-120385000D01*
X76330000Y-115245000D02*
X76330000Y-120385000D01*
%TO.C,SW6*%
X201750000Y-141000000D02*
X201750000Y-142500000D01*
X203000000Y-145000000D02*
X207500000Y-145000000D01*
X207500000Y-138500000D02*
X203000000Y-138500000D01*
X208750000Y-142500000D02*
X208750000Y-141000000D01*
D18*
%TO.C,U4*%
X130260000Y-45120000D02*
X180780000Y-45120000D01*
X130260000Y-68050000D02*
X130260000Y-45120000D01*
X180780000Y-45120000D02*
X180780000Y-68050000D01*
X180780000Y-68050000D02*
X130260000Y-68050000D01*
D19*
%TO.C,RV1*%
X102150000Y-153341640D02*
X102150000Y-153480000D01*
X103520000Y-155150000D02*
X106480000Y-155150000D01*
X107850000Y-153480000D02*
X107850000Y-153341640D01*
X102150000Y-153341640D02*
G75*
G02*
X104126341Y-148973580I2850000J1341640D01*
G01*
X105873659Y-148973580D02*
G75*
G02*
X107850000Y-153341640I-873659J-3026420D01*
G01*
D10*
X101100000Y-154500000D02*
G75*
G02*
X100900000Y-154500000I-100000J0D01*
G01*
X100900000Y-154500000D02*
G75*
G02*
X101100000Y-154500000I100000J0D01*
G01*
D16*
%TO.C,C3*%
X226460000Y-66910000D02*
X231540000Y-66910000D01*
X226460000Y-70090000D02*
X231540000Y-70090000D01*
D17*
%TO.C,SW8*%
X198750000Y-114000000D02*
X198750000Y-115500000D01*
X200000000Y-118000000D02*
X204500000Y-118000000D01*
X204500000Y-111500000D02*
X200000000Y-111500000D01*
X205750000Y-115500000D02*
X205750000Y-114000000D01*
%TO.C,R9*%
X85730000Y-91630000D02*
X92270000Y-91630000D01*
X85730000Y-91960000D02*
X85730000Y-91630000D01*
X85730000Y-94040000D02*
X85730000Y-94370000D01*
X85730000Y-94370000D02*
X92270000Y-94370000D01*
X92270000Y-91630000D02*
X92270000Y-91960000D01*
X92270000Y-94370000D02*
X92270000Y-94040000D01*
%TO.C,R2*%
X75105000Y-86630000D02*
X81645000Y-86630000D01*
X75105000Y-86960000D02*
X75105000Y-86630000D01*
X75105000Y-89040000D02*
X75105000Y-89370000D01*
X75105000Y-89370000D02*
X81645000Y-89370000D01*
X81645000Y-86630000D02*
X81645000Y-86960000D01*
X81645000Y-89370000D02*
X81645000Y-89040000D01*
D10*
%TO.C,D1*%
X217838000Y-60500000D02*
X221900000Y-60500000D01*
X221900000Y-59200000D02*
X226800000Y-59200000D01*
X221900000Y-60500000D02*
X223200000Y-59200000D01*
X221900000Y-61800000D02*
X221900000Y-59200000D01*
X226800000Y-59200000D02*
X226800000Y-61800000D01*
X226800000Y-60500000D02*
X230862000Y-60500000D01*
X226800000Y-61800000D02*
X221900000Y-61800000D01*
D17*
%TO.C,R10*%
X85730000Y-96630000D02*
X92270000Y-96630000D01*
X85730000Y-96960000D02*
X85730000Y-96630000D01*
X85730000Y-99040000D02*
X85730000Y-99370000D01*
X85730000Y-99370000D02*
X92270000Y-99370000D01*
X92270000Y-96630000D02*
X92270000Y-96960000D01*
X92270000Y-99370000D02*
X92270000Y-99040000D01*
%TO.C,U2*%
X130485000Y-76055000D02*
X130485000Y-93955000D01*
X130485000Y-93955000D02*
X181525000Y-93955000D01*
X130545000Y-78545000D02*
X130545000Y-84005000D01*
X130545000Y-86005000D02*
X130545000Y-91465000D01*
X130545000Y-91465000D02*
X181465000Y-91465000D01*
X181465000Y-78545000D02*
X130545000Y-78545000D01*
X181465000Y-91465000D02*
X181465000Y-78545000D01*
X181525000Y-76055000D02*
X130485000Y-76055000D01*
X181525000Y-93955000D02*
X181525000Y-76055000D01*
X130545000Y-84005000D02*
G75*
G02*
X130545000Y-86005000I0J-1000000D01*
G01*
D16*
%TO.C,C11*%
X141000000Y-40410000D02*
X146080000Y-40410000D01*
X141000000Y-43590000D02*
X146080000Y-43590000D01*
D17*
%TO.C,R5*%
X75105000Y-101630000D02*
X81645000Y-101630000D01*
X75105000Y-101960000D02*
X75105000Y-101630000D01*
X75105000Y-104040000D02*
X75105000Y-104370000D01*
X75105000Y-104370000D02*
X81645000Y-104370000D01*
X81645000Y-101630000D02*
X81645000Y-101960000D01*
X81645000Y-104370000D02*
X81645000Y-104040000D01*
%TO.C,R11*%
X85920000Y-101630000D02*
X92460000Y-101630000D01*
X85920000Y-101960000D02*
X85920000Y-101630000D01*
X85920000Y-104040000D02*
X85920000Y-104370000D01*
X85920000Y-104370000D02*
X92460000Y-104370000D01*
X92460000Y-101630000D02*
X92460000Y-101960000D01*
X92460000Y-104370000D02*
X92460000Y-104040000D01*
D16*
%TO.C,C14*%
X123795000Y-103540000D02*
X123795000Y-98460000D01*
X126975000Y-103540000D02*
X126975000Y-98460000D01*
D17*
%TO.C,R4*%
X75105000Y-96630000D02*
X81645000Y-96630000D01*
X75105000Y-96960000D02*
X75105000Y-96630000D01*
X75105000Y-99040000D02*
X75105000Y-99370000D01*
X75105000Y-99370000D02*
X81645000Y-99370000D01*
X81645000Y-96630000D02*
X81645000Y-96960000D01*
X81645000Y-99370000D02*
X81645000Y-99040000D01*
%TO.C,SW2*%
X101500000Y-130250000D02*
X101500000Y-131750000D01*
X102750000Y-134250000D02*
X107250000Y-134250000D01*
X107250000Y-127750000D02*
X102750000Y-127750000D01*
X108500000Y-131750000D02*
X108500000Y-130250000D01*
D10*
%TO.C,J1*%
X221430000Y-40850000D02*
X221430000Y-40850000D01*
X221430000Y-41050000D02*
X221430000Y-41050000D01*
D18*
X223530000Y-36450000D02*
X223930000Y-36450000D01*
X223530000Y-37950000D02*
X223530000Y-36450000D01*
X223530000Y-43950000D02*
X223530000Y-45450000D01*
X223530000Y-45450000D02*
X237930000Y-45450000D01*
X237930000Y-36450000D02*
X229930000Y-36450000D01*
X237930000Y-45450000D02*
X237930000Y-36450000D01*
D10*
X221430000Y-40850000D02*
G75*
G02*
X221430000Y-41050000I0J-100000D01*
G01*
X221430000Y-41050000D02*
G75*
G02*
X221430000Y-40850000I0J100000D01*
G01*
D17*
%TO.C,SW5*%
X213750000Y-150000000D02*
X213750000Y-151500000D01*
X215000000Y-154000000D02*
X219500000Y-154000000D01*
X219500000Y-147500000D02*
X215000000Y-147500000D01*
X220750000Y-151500000D02*
X220750000Y-150000000D01*
D16*
%TO.C,C15*%
X74460000Y-64410000D02*
X79540000Y-64410000D01*
X74460000Y-67590000D02*
X79540000Y-67590000D01*
%TD*%
M02*
